<svg width="1440" height="1500" viewBox="0 0 1440 1500" fill="none" xmlns="http://www.w3.org/2000/svg">
<path d="M1440 34.2941C1440 34.2941 1101 111.456 720 34.2941C339 -42.8676 0 34.2941 0 34.2941V75.8427H1440V34.2941Z" fill="#E8EFFB"/>
<path d="M0 1465.71C0 1465.71 339 1388.54 720 1465.71C1101 1542.87 1440 1465.71 1440 1465.71V1424.16H0V1465.71Z" fill="#E8EFFB"/>
<rect y="75.8427" width="1440" height="1348.31" fill="#E8EFFB"/>
<path d="M1440 1281.49C1440 1281.49 1101 1358.65 720 1281.49C339 1204.32 0 1281.49 0 1281.49V1323.03H1440V1281.49Z" fill="#C9D9F5"/>
<path d="M0 1389.86C0 1389.86 339 1312.7 720 1389.86C1101 1467.02 1440 1389.86 1440 1389.86V1348.31H0V1389.86Z" fill="#C9D9F5"/>
<rect y="1323.03" width="1440" height="25.2809" fill="#C9D9F5"/>
<g clip-path="url(#clip0_68_3820)">
<path d="M1253.81 91.658C1254.01 91.9376 1254.14 92.2529 1254.22 92.586C1254.29 92.9192 1254.3 93.2636 1254.24 93.5995C1254.18 93.9355 1254.05 94.2565 1253.87 94.5442C1253.69 94.8318 1253.45 95.0805 1253.17 95.2761C1239.74 104.687 1230.6 115.036 1224.32 128.145C1229.01 131.067 1234.56 132.397 1240.35 131.922C1248.02 131.293 1255.36 127.63 1261.56 121.335C1267.09 115.715 1269.53 109.453 1271.88 103.396C1274.86 95.7534 1277.67 88.5347 1286.69 82.9676C1287.69 82.3467 1288.25 81.3339 1288.2 80.2426C1288.13 78.9939 1287.36 78.0063 1285.9 77.3052C1282.47 75.6631 1272.24 74.1279 1261.04 74.4066C1243.05 74.8523 1233.04 79.4591 1227.8 83.2459C1221.05 88.1397 1216.36 95.3921 1214.73 103.23C1214.42 104.707 1214.22 106.205 1214.14 107.712C1213.76 114.551 1215.94 120.762 1220.13 124.88C1226.78 111.425 1236.32 100.736 1250.2 91.0127C1250.48 90.8168 1250.79 90.6781 1251.12 90.6044C1251.46 90.5308 1251.8 90.5238 1252.14 90.5838C1252.47 90.6437 1252.79 90.7695 1253.08 90.9538C1253.37 91.1381 1253.62 91.3775 1253.81 91.658ZM1221.15 135.612C1222.11 133.022 1223.17 130.538 1224.32 128.146C1223.01 127.333 1221.78 126.403 1220.64 125.369C1220.47 125.211 1220.3 125.048 1220.13 124.882C1218.7 127.785 1217.42 130.76 1216.29 133.794C1216.16 134.115 1216.1 134.459 1216.11 134.804C1216.11 135.15 1216.19 135.491 1216.33 135.807C1216.47 136.123 1216.67 136.408 1216.92 136.645C1217.17 136.883 1217.47 137.067 1217.79 137.188C1218.11 137.309 1218.46 137.365 1218.8 137.351C1219.15 137.337 1219.49 137.254 1219.8 137.107C1220.11 136.961 1220.39 136.753 1220.62 136.496C1220.85 136.24 1221.03 135.94 1221.15 135.613L1221.15 135.612Z" fill="#C9D9F5"/>
</g>
<path d="M199.679 102.538C200.14 102.048 200.694 101.654 201.308 101.378C201.921 101.101 202.584 100.949 203.256 100.929C203.929 100.908 204.6 101.021 205.229 101.26C205.858 101.498 206.434 101.859 206.924 102.32C230.509 124.537 254.174 138.055 282.022 144.944C285.779 134.694 286.112 123.413 282.867 112.407C278.562 97.8041 268.536 85.0812 253.882 75.616C240.801 67.1662 227.725 64.9656 215.076 62.8387C199.118 60.1545 184.044 57.6177 169.659 42.3868C168.058 40.7019 165.876 40.0261 163.791 40.5738C161.408 41.2144 159.81 43.0979 159.044 46.2113C157.25 53.4984 158.403 73.9216 163.448 95.4818C171.549 130.12 184.477 147.648 193.897 156.255C206.069 167.366 221.963 173.52 237.758 173.52C240.735 173.524 243.708 173.306 246.653 172.866C260.013 170.842 271.134 164.131 277.403 154.368C248.738 146.911 224.25 132.731 199.887 109.793C199.396 109.331 199.001 108.777 198.725 108.162C198.449 107.547 198.297 106.883 198.277 106.209C198.258 105.535 198.372 104.864 198.612 104.234C198.853 103.604 199.215 103.028 199.679 102.538ZM297.72 148.084C292.329 147.254 287.108 146.213 282.025 144.954C280.98 147.807 279.679 150.56 278.139 153.18C277.906 153.58 277.659 153.977 277.406 154.368C283.589 155.969 289.849 157.252 296.163 158.212C296.835 158.33 297.524 158.313 298.189 158.161C298.854 158.01 299.482 157.727 300.037 157.329C300.591 156.932 301.061 156.428 301.418 155.846C301.775 155.265 302.012 154.618 302.116 153.944C302.22 153.27 302.188 152.582 302.022 151.92C301.857 151.258 301.561 150.636 301.152 150.091C300.742 149.545 300.229 149.086 299.64 148.741C299.051 148.397 298.4 148.173 297.723 148.084H297.72Z" fill="#C9D9F5"/>
<defs>
<clipPath id="clip0_68_3820">
<rect width="84" height="84" fill="white" transform="matrix(-1 0 0.000591762 -1 1290.95 149.022)"/>
</clipPath>
</defs>
</svg>
