<svg width="24" height="25" viewBox="0 0 24 25" fill="none" xmlns="http://www.w3.org/2000/svg">
<g id="mingcute:time-duration-line">
<g id="Group">
<path id="Vector" fill-rule="evenodd" clip-rule="evenodd" d="M10.9747 3.50155C11.0332 3.76013 10.9867 4.03138 10.8453 4.25565C10.7039 4.47993 10.4792 4.63888 10.2207 4.69755C10.0245 4.7422 9.82998 4.79424 9.63768 4.85355C9.5122 4.89229 9.38032 4.90594 9.24957 4.89371C9.11882 4.88148 8.99175 4.84362 8.87563 4.78229C8.75951 4.72096 8.65661 4.63735 8.5728 4.53625C8.48899 4.43515 8.42592 4.31853 8.38718 4.19305C8.34844 4.06757 8.33479 3.9357 8.34702 3.80494C8.35925 3.67419 8.39711 3.54713 8.45844 3.43101C8.51977 3.31489 8.60338 3.21199 8.70448 3.12818C8.80558 3.04437 8.9222 2.98129 9.04768 2.94255C9.28768 2.86789 9.53101 2.80289 9.77768 2.74755C9.90579 2.71842 10.0384 2.71482 10.1679 2.73695C10.2974 2.75908 10.4212 2.80651 10.5324 2.87653C10.6436 2.94655 10.7398 3.03779 10.8157 3.14504C10.8916 3.25228 10.9456 3.37343 10.9747 3.50155ZM13.0247 3.50155C13.0834 3.243 13.2423 3.01834 13.4666 2.87695C13.6909 2.73556 13.9621 2.68901 14.2207 2.74755C18.6747 3.75755 22.0007 7.73955 22.0007 12.4996C22.0007 18.0226 17.5227 22.4996 12.0007 22.4996C7.23968 22.4996 3.25768 19.1746 2.24768 14.7206C2.19584 14.4645 2.24623 14.1984 2.38808 13.9791C2.52993 13.7597 2.75198 13.6046 3.00673 13.5468C3.26148 13.4891 3.52871 13.5333 3.75128 13.6701C3.97384 13.8068 4.13406 14.0252 4.19768 14.2786C4.51589 15.6723 5.20178 16.9553 6.18398 17.9941C7.16618 19.0329 8.4088 19.7895 9.78256 20.1853C11.1563 20.581 12.611 20.6014 13.9953 20.2443C15.3796 19.8871 16.6429 19.1656 17.6538 18.1547C18.6647 17.1438 19.3863 15.8805 19.7434 14.4962C20.1005 13.1119 20.0801 11.6572 19.6844 10.2834C19.2887 8.90967 18.5321 7.66705 17.4933 6.68485C16.4545 5.70266 15.1714 5.01677 13.7777 4.69855C13.5191 4.63966 13.2945 4.48047 13.1533 4.25599C13.0121 4.03152 12.9658 3.76014 13.0247 3.50155ZM6.61368 5.21955C6.70311 5.31584 6.77269 5.42882 6.81843 5.55201C6.86417 5.67521 6.88518 5.80622 6.88026 5.93754C6.87533 6.06886 6.84458 6.19793 6.78974 6.31735C6.7349 6.43678 6.65707 6.54423 6.56068 6.63355C6.41268 6.77022 6.27035 6.91222 6.13368 7.05955C5.95202 7.24857 5.7034 7.3587 5.44134 7.36621C5.17929 7.37373 4.92476 7.27804 4.73257 7.09974C4.54037 6.92144 4.42588 6.6748 4.41374 6.41292C4.40161 6.15104 4.4928 5.89486 4.66768 5.69955C4.83768 5.51555 5.01501 5.33789 5.19968 5.16655C5.29597 5.07712 5.40894 5.00755 5.53214 4.9618C5.65534 4.91606 5.78634 4.89505 5.91766 4.89998C6.04899 4.9049 6.17805 4.93566 6.29748 4.99049C6.41691 5.04533 6.52435 5.12316 6.61368 5.21955ZM11.9997 6.49955C12.2649 6.49955 12.5192 6.60491 12.7068 6.79245C12.8943 6.97998 12.9997 7.23434 12.9997 7.49955V12.0856L15.7067 14.7926C15.8888 14.9812 15.9896 15.2338 15.9874 15.496C15.9851 15.7582 15.8799 16.009 15.6945 16.1944C15.5091 16.3798 15.2583 16.485 14.9961 16.4872C14.7339 16.4895 14.4813 16.3887 14.2927 16.2066L11.2927 13.2066C11.1051 13.0191 10.9997 12.7647 10.9997 12.4996V7.49955C10.9997 7.23434 11.105 6.97998 11.2926 6.79245C11.4801 6.60491 11.7345 6.49955 11.9997 6.49955ZM3.69268 8.88755C3.94607 8.96569 4.15805 9.14127 4.28201 9.37568C4.40597 9.61009 4.43174 9.88414 4.35368 10.1376C4.29436 10.3299 4.24233 10.5243 4.19768 10.7206C4.13406 10.9739 3.97384 11.1923 3.75128 11.329C3.52871 11.4658 3.26148 11.51 3.00673 11.4523C2.75198 11.3945 2.52993 11.2394 2.38808 11.0201C2.24623 10.8007 2.19584 10.5346 2.24768 10.2786C2.30368 10.0319 2.36868 9.78855 2.44268 9.54855C2.52082 9.29516 2.6964 9.08318 2.93081 8.95922C3.16522 8.83527 3.43926 8.80949 3.69268 8.88755Z" fill="white"/>
</g>
</g>
</svg>
