<svg width="24" height="24" viewBox="0 0 24 24" fill="none" xmlns="http://www.w3.org/2000/svg">
<path fill-rule="evenodd" clip-rule="evenodd" d="M10.9747 3.00204C11.0332 3.26062 10.9867 3.53187 10.8453 3.75614C10.7039 3.98042 10.4792 4.13936 10.2207 4.19804C10.0245 4.24269 9.82998 4.29473 9.63768 4.35404C9.5122 4.39278 9.38032 4.40643 9.24957 4.3942C9.11882 4.38197 8.99175 4.34411 8.87563 4.28278C8.75951 4.22145 8.65661 4.13784 8.5728 4.03674C8.48899 3.93564 8.42592 3.81902 8.38718 3.69354C8.34844 3.56806 8.33479 3.43618 8.34702 3.30543C8.35925 3.17468 8.39711 3.04762 8.45844 2.9315C8.51977 2.81538 8.60338 2.71248 8.70448 2.62867C8.80558 2.54486 8.9222 2.48178 9.04768 2.44304C9.28768 2.36837 9.53101 2.30337 9.77768 2.24804C9.90579 2.21891 10.0384 2.2153 10.1679 2.23743C10.2974 2.25956 10.4212 2.307 10.5324 2.37702C10.6436 2.44704 10.7398 2.53828 10.8157 2.64552C10.8916 2.75277 10.9456 2.87392 10.9747 3.00204ZM13.0247 3.00204C13.0834 2.74349 13.2423 2.51883 13.4666 2.37743C13.6909 2.23604 13.9621 2.1895 14.2207 2.24804C18.6747 3.25804 22.0007 7.24004 22.0007 12C22.0007 17.523 17.5227 22 12.0007 22C7.23968 22 3.25768 18.675 2.24768 14.221C2.19584 13.965 2.24623 13.6989 2.38808 13.4795C2.52993 13.2602 2.75198 13.1051 3.00673 13.0473C3.26148 12.9896 3.52871 13.0338 3.75128 13.1705C3.97384 13.3073 4.13406 13.5257 4.19768 13.779C4.51589 15.1728 5.20178 16.4558 6.18398 17.4946C7.16618 18.5334 8.4088 19.29 9.78256 19.6858C11.1563 20.0815 12.611 20.1018 13.9953 19.7447C15.3796 19.3876 16.6429 18.6661 17.6538 17.6552C18.6647 16.6443 19.3863 15.381 19.7434 13.9967C20.1005 12.6124 20.0801 11.1577 19.6844 9.78392C19.2887 8.41016 18.5321 7.16754 17.4933 6.18534C16.4545 5.20314 15.1714 4.51726 13.7777 4.19904C13.5191 4.14015 13.2945 3.98096 13.1533 3.75648C13.0121 3.532 12.9658 3.26063 13.0247 3.00204ZM6.61368 4.72004C6.70311 4.81633 6.77269 4.92931 6.81843 5.0525C6.86417 5.1757 6.88518 5.3067 6.88026 5.43803C6.87533 5.56935 6.84458 5.69841 6.78974 5.81784C6.7349 5.93727 6.65707 6.04472 6.56068 6.13404C6.41268 6.27071 6.27035 6.41271 6.13368 6.56004C5.95202 6.74906 5.7034 6.85919 5.44134 6.8667C5.17929 6.87422 4.92476 6.77853 4.73257 6.60023C4.54037 6.42193 4.42588 6.17529 4.41374 5.91341C4.40161 5.65152 4.4928 5.39535 4.66768 5.20004C4.83768 5.01604 5.01501 4.83837 5.19968 4.66704C5.29597 4.57761 5.40894 4.50803 5.53214 4.46229C5.65534 4.41655 5.78634 4.39554 5.91766 4.40046C6.04899 4.40539 6.17805 4.43614 6.29748 4.49098C6.41691 4.54582 6.52435 4.62365 6.61368 4.72004ZM11.9997 6.00004C12.2649 6.00004 12.5192 6.1054 12.7068 6.29294C12.8943 6.48047 12.9997 6.73483 12.9997 7.00004V11.586L15.7067 14.293C15.8888 14.4816 15.9896 14.7342 15.9874 14.9964C15.9851 15.2586 15.8799 15.5095 15.6945 15.6949C15.5091 15.8803 15.2583 15.9854 14.9961 15.9877C14.7339 15.99 14.4813 15.8892 14.2927 15.707L11.2927 12.707C11.1051 12.5196 10.9997 12.2652 10.9997 12V7.00004C10.9997 6.73483 11.105 6.48047 11.2926 6.29294C11.4801 6.1054 11.7345 6.00004 11.9997 6.00004ZM3.69268 8.38804C3.94607 8.46618 4.15805 8.64176 4.28201 8.87617C4.40597 9.11058 4.43174 9.38463 4.35368 9.63804C4.29436 9.83034 4.24233 10.0248 4.19768 10.221C4.13406 10.4744 3.97384 10.6928 3.75128 10.8295C3.52871 10.9663 3.26148 11.0105 3.00673 10.9528C2.75198 10.895 2.52993 10.7399 2.38808 10.5205C2.24623 10.3012 2.19584 10.0351 2.24768 9.77904C2.30368 9.53238 2.36868 9.28904 2.44268 9.04904C2.52082 8.79565 2.6964 8.58367 2.93081 8.45971C3.16522 8.33576 3.43926 8.30998 3.69268 8.38804Z" fill="#284159"/>
</svg>
