<svg width="348" height="231" viewBox="0 0 348 231" fill="none" xmlns="http://www.w3.org/2000/svg">
<path d="M87.3451 33.0752H44.7764V94.5115H87.3451V33.0752Z" fill="#C9D9F5"/>
<path d="M85.213 33.0752H42.6438V94.5115H85.213V33.0752Z" fill="white"/>
<path d="M79.9237 39.7285H47.9323V87.8569H79.9237V39.7285Z" fill="white"/>
<path d="M79.9239 87.8571C79.9239 87.8571 79.9198 87.7758 79.9174 87.622C79.916 87.4631 79.9137 87.2362 79.9109 86.9396C79.9082 86.3349 79.9035 85.4492 79.898 84.2997C79.8915 81.993 79.8817 78.6319 79.8692 74.3857C79.8567 65.8992 79.8381 53.8817 79.8168 39.7292L79.923 39.835C70.1493 39.8378 59.3186 39.841 47.9358 39.8447H47.9321L48.0476 39.7297C48.0388 57.8854 48.0304 74.6255 48.0239 87.8581L47.9316 87.7661C57.6742 87.7865 65.6601 87.8026 71.217 87.8142C73.9968 87.8243 76.1674 87.8322 77.6503 87.8377C78.3872 87.8424 78.9519 87.8456 79.3388 87.8479C79.7226 87.8507 79.9239 87.8571 79.9239 87.8571C79.9239 87.8571 79.7356 87.8636 79.3593 87.8668C78.976 87.8692 78.4173 87.8729 77.6879 87.877C76.2101 87.8826 74.046 87.8904 71.2754 87.9006C65.7047 87.9121 57.6993 87.9288 47.9325 87.9486H47.8402V87.8567C47.8337 74.6245 47.8253 57.8844 47.8165 39.7283V39.6128H47.9325H47.9362C59.3196 39.616 70.1498 39.6193 79.9235 39.6225H80.0297V39.7283C80.0084 53.9089 79.9903 65.9505 79.9773 74.4541C79.9652 78.6901 79.9555 82.0433 79.9485 84.3446C79.943 85.4848 79.9388 86.363 79.9355 86.9632C79.9328 87.2547 79.9309 87.4778 79.929 87.6335C79.9281 87.7842 79.9239 87.8571 79.9239 87.8571Z" fill="#C9D9F5"/>
<path d="M85.3324 33.075C85.3574 33.0944 85.0684 33.5143 84.5737 34.1727C84.0791 34.831 83.3771 35.7268 82.5762 36.6952C81.7749 37.664 81.0264 38.5215 80.472 39.1309C79.9175 39.7402 79.5593 40.1034 79.5352 40.0826C79.5106 40.0613 79.8256 39.6608 80.3476 39.0246C80.9183 38.3353 81.6204 37.4871 82.3971 36.5487C83.1729 35.6104 83.8745 34.7617 84.4447 34.072C84.9723 33.4395 85.3069 33.0551 85.3324 33.075Z" fill="#C9D9F5"/>
<path d="M80.0873 87.7021C81.676 90.2177 83.552 92.5536 85.6669 94.6502L80.0873 87.7021Z" fill="white"/>
<path d="M85.6669 94.6502C85.646 94.6715 85.266 94.3435 84.6944 93.7692C84.1223 93.1954 83.3641 92.3694 82.5897 91.4056C81.8152 90.4405 81.1731 89.5225 80.7364 88.8411C80.2998 88.1592 80.0618 87.7184 80.0873 87.7022C80.1161 87.6842 80.4028 88.094 80.8719 88.7496C81.341 89.4056 82.0008 90.3024 82.7702 91.2619C83.5404 92.2201 84.274 93.0577 84.8136 93.6579C85.3523 94.2576 85.691 94.6262 85.6669 94.6502Z" fill="#C9D9F5"/>
<path d="M42.6376 94.4624C44.4964 92.1792 46.3547 89.896 48.2135 87.6123L42.6376 94.4624Z" fill="white"/>
<path d="M48.2137 87.6126C48.2634 87.6528 47.0556 89.2185 45.516 91.1099C43.976 93.0018 42.6879 94.5024 42.6378 94.4622C42.5882 94.422 43.796 92.8563 45.336 90.9644C46.8755 89.0735 48.1641 87.5724 48.2137 87.6126Z" fill="#C9D9F5"/>
<path d="M42.6438 33.075C42.6939 33.0357 43.9059 34.4781 45.3503 36.2965C46.7952 38.1154 47.9255 39.6215 47.8754 39.6613C47.8253 39.701 46.6138 38.2586 45.1689 36.4397C43.724 34.6209 42.5937 33.1143 42.6438 33.075Z" fill="#C9D9F5"/>
<path d="M69.9568 49.501H59.2449V79.7842H69.9568V49.501Z" fill="#C9D9F5"/>
<path d="M144.735 24.123V51.0267H105.927L104.529 24.3111L144.735 24.123Z" fill="#C9D9F5"/>
<path d="M104.529 24.3114V50.9697H143.337V24.3114L104.529 24.3114Z" fill="white"/>
<path d="M143.521 51.1531H104.345V24.1279H143.521V51.1531ZM104.713 50.7863H143.153V24.4943H104.713V50.7863Z" fill="#C9D9F5"/>
<path d="M139.133 27.6235H108.732V47.6577H139.133V27.6235Z" fill="white"/>
<path d="M139.134 27.6234C139.134 27.6234 139.081 27.6267 138.984 27.6285C138.881 27.6299 138.738 27.6313 138.551 27.6336C138.166 27.6359 137.607 27.6396 136.882 27.6442C135.422 27.6498 133.298 27.6576 130.617 27.6678C125.256 27.6784 117.667 27.6932 108.732 27.7107L108.821 27.6234C108.823 33.7445 108.826 40.5266 108.828 47.6553V47.6576L108.732 47.562C120.201 47.5693 130.774 47.5763 139.134 47.5814L139.057 47.6576C139.074 41.5606 139.088 36.5617 139.097 33.081C139.106 31.3411 139.112 29.9819 139.117 29.0501C139.121 28.5895 139.123 28.236 139.125 27.9907C139.129 27.7509 139.134 27.6234 139.134 27.6234C139.134 27.6234 139.139 27.7398 139.142 27.975C139.144 28.2171 139.147 28.5659 139.15 29.02C139.155 29.9477 139.161 31.3014 139.17 33.0339C139.18 36.5262 139.193 41.5412 139.21 47.6581V47.7338H139.133C130.773 47.7389 120.2 47.7458 108.732 47.7532H108.636V47.6576V47.6553C108.639 40.5266 108.641 33.7445 108.644 27.6234V27.5356H108.731C117.69 27.5532 125.299 27.568 130.674 27.5786C133.347 27.5888 135.463 27.5966 136.919 27.6022C137.637 27.6068 138.19 27.6105 138.571 27.6128C138.753 27.6151 138.893 27.6165 138.993 27.6179C139.089 27.6197 139.134 27.6234 139.134 27.6234Z" fill="#C9D9F5"/>
<path d="M104.529 24.2361C104.546 24.2153 104.8 24.3812 105.197 24.6662C105.593 24.9518 106.134 25.3565 106.718 25.8217C107.302 26.2869 107.816 26.7272 108.177 27.0566C108.538 27.3865 108.75 27.6036 108.733 27.623C108.697 27.6637 107.764 26.8972 106.598 25.9709C105.432 25.0455 104.495 24.28 104.529 24.2361Z" fill="#C9D9F5"/>
<path d="M143.337 24.3113C143.37 24.3529 142.455 25.1276 141.295 26.0419C140.134 26.9567 139.167 27.6645 139.134 27.6234C139.101 27.5822 140.015 26.807 141.176 25.8922C142.337 24.9779 143.304 24.2702 143.337 24.3113Z" fill="#C9D9F5"/>
<path d="M143.306 50.9732C141.864 49.8095 140.422 48.6452 138.979 47.4814L143.306 50.9732Z" fill="white"/>
<path d="M138.98 47.4816C139.013 47.4405 140.009 48.1894 141.203 49.1531C142.398 50.1178 143.34 50.9323 143.306 50.9734C143.273 51.0145 142.278 50.2661 141.082 49.3014C139.888 48.3377 138.946 47.5227 138.98 47.4816Z" fill="#C9D9F5"/>
<path d="M104.529 50.9697C104.496 50.9281 105.401 50.1612 106.55 49.257C107.699 48.352 108.657 47.6525 108.69 47.6936C108.723 47.7347 107.818 48.5017 106.669 49.4067C105.52 50.3108 104.562 51.0108 104.529 50.9697Z" fill="#C9D9F5"/>
<path d="M114.905 33.865V40.5732H134.034V33.865H114.905Z" fill="#C9D9F5"/>
<path d="M302.85 144.684C302.85 144.684 299.363 143.067 296.63 151.2C293.898 159.333 293.087 163.909 293.087 163.909C293.087 163.909 292.302 165.644 291.055 164.772C289.807 163.9 287.87 161.187 286.093 161.992C284.25 162.827 283.937 165.061 284.776 168.151C285.616 171.24 287.206 178.076 287.347 178.695C287.486 179.302 287.268 180.259 286.323 179.801C285.377 179.343 279.622 174.607 277.529 177.461C275.436 180.314 279.195 188.538 279.588 189.445C279.982 190.352 279.857 190.783 279.442 191.084C279.026 191.384 277.242 189.611 275.55 188.331C273.858 187.051 271.67 185.862 270.601 187.609C269.532 189.356 270.084 195.864 277.819 205.418L281.693 209.611L287.322 208.452C299.217 205.24 303.501 200.294 303.666 198.255C303.831 196.216 301.359 195.899 299.235 195.946C297.11 195.993 294.62 196.385 294.461 195.899C294.302 195.413 294.455 194.991 295.309 194.487C296.162 193.983 304.055 189.523 304.042 185.99C304.031 182.456 296.58 182.925 295.544 182.743C294.508 182.562 294.897 181.659 295.368 181.249C295.847 180.831 301.165 176.227 303.666 174.217C306.168 172.207 307.232 170.215 306.232 168.462C305.268 166.771 302.101 167.835 300.576 167.812C299.052 167.788 299.441 165.925 299.441 165.925C299.441 165.925 301.483 161.747 304.067 153.566C306.651 145.385 302.776 144.656 302.776 144.656" fill="white"/>
<path d="M280.941 210.76C282.862 204.759 286.457 194.151 289.496 185.028C292.533 175.907 295.276 167.647 297.228 161.657C298.199 158.666 298.985 156.243 299.531 154.561C299.802 153.729 300.014 153.08 300.159 152.631C300.231 152.417 300.287 152.25 300.327 152.131C300.365 152.019 300.39 151.962 300.39 151.962C300.39 151.962 300.377 152.022 300.344 152.137C300.308 152.257 300.258 152.425 300.194 152.642C300.055 153.092 299.854 153.745 299.597 154.581C299.078 156.265 298.309 158.696 297.347 161.696C295.425 167.696 292.702 175.963 289.664 185.084C286.625 194.207 283.012 204.808 281.061 210.799" fill="#C9D9F5"/>
<path d="M288.649 165.896C288.66 165.891 288.731 166.019 288.849 166.256C288.969 166.493 289.13 166.84 289.327 167.271C289.719 168.135 290.229 169.34 290.769 170.68C291.296 172.003 291.772 173.2 292.137 174.116C292.303 174.527 292.444 174.874 292.558 175.154C292.658 175.399 292.708 175.536 292.697 175.542C292.686 175.547 292.615 175.419 292.494 175.182C292.376 174.945 292.213 174.597 292.021 174.165C291.637 173.298 291.143 172.086 290.604 170.746C290.068 169.427 289.583 168.234 289.212 167.321C289.043 166.91 288.9 166.564 288.786 166.285C288.687 166.039 288.638 165.901 288.649 165.896Z" fill="#C9D9F5"/>
<path d="M293.232 175.565C293.212 175.521 295.661 174.363 298.703 172.98C301.745 171.597 304.227 170.512 304.248 170.556C304.268 170.6 301.819 171.758 298.777 173.141C295.735 174.524 293.253 175.609 293.232 175.565Z" fill="#C9D9F5"/>
<path d="M287.932 189.364C287.931 189.352 288.079 189.323 288.347 189.282C288.651 189.238 289.032 189.183 289.483 189.117C290.442 188.976 291.766 188.776 293.218 188.502C294.672 188.231 295.978 187.94 296.922 187.722C297.367 187.62 297.741 187.534 298.042 187.465C298.307 187.405 298.454 187.378 298.457 187.39C298.461 187.402 298.319 187.451 298.059 187.531C297.8 187.611 297.422 187.72 296.953 187.844C296.014 188.093 294.708 188.404 293.251 188.676C291.794 188.951 290.464 189.132 289.499 189.241C289.016 189.293 288.625 189.332 288.354 189.35C288.084 189.371 287.933 189.376 287.932 189.364Z" fill="#C9D9F5"/>
<path d="M281.853 181.526C281.863 181.519 281.958 181.62 282.122 181.809C282.307 182.029 282.535 182.3 282.804 182.619C283.373 183.309 284.15 184.269 285 185.335C285.85 186.403 286.611 187.375 287.156 188.084C287.407 188.417 287.62 188.7 287.794 188.93C287.941 189.132 288.018 189.247 288.008 189.255C287.999 189.262 287.904 189.162 287.739 188.973C287.554 188.752 287.326 188.482 287.058 188.162C286.488 187.473 285.711 186.513 284.861 185.445C284.012 184.378 283.25 183.406 282.705 182.697C282.454 182.364 282.241 182.081 282.068 181.851C281.92 181.649 281.844 181.534 281.853 181.526Z" fill="#C9D9F5"/>
<path d="M275.62 193.116C275.63 193.108 275.751 193.238 275.961 193.481C276.189 193.75 276.484 194.098 276.838 194.516C277.573 195.396 278.579 196.618 279.681 197.975C280.783 199.333 281.773 200.568 282.483 201.468C282.82 201.9 283.099 202.26 283.317 202.539C283.51 202.794 283.613 202.939 283.603 202.947C283.594 202.954 283.473 202.824 283.263 202.582C283.034 202.312 282.739 201.964 282.385 201.546C281.65 200.667 280.645 199.444 279.542 198.087C278.44 196.729 277.45 195.494 276.74 194.595C276.404 194.163 276.124 193.803 275.907 193.524C275.713 193.269 275.61 193.124 275.62 193.116Z" fill="#C9D9F5"/>
<path d="M283.479 202.658C283.477 202.646 283.664 202.605 284.002 202.542C284.372 202.474 284.854 202.387 285.435 202.28C286.645 202.059 288.315 201.746 290.148 201.348C291.983 200.954 293.633 200.553 294.826 200.255C295.4 200.112 295.876 199.993 296.24 199.902C296.574 199.821 296.76 199.781 296.764 199.792C296.767 199.804 296.587 199.866 296.258 199.969C295.93 200.071 295.452 200.212 294.859 200.376C293.673 200.705 292.023 201.126 290.186 201.521C288.349 201.919 286.673 202.213 285.456 202.404C284.848 202.497 284.355 202.568 284.013 202.61C283.671 202.652 283.481 202.67 283.479 202.658Z" fill="#C9D9F5"/>
<path d="M313.22 210.593C313.22 210.659 249.472 210.713 170.852 210.713C92.2061 210.713 28.4716 210.659 28.4716 210.593C28.4716 210.526 92.2061 210.473 170.852 210.473C249.472 210.473 313.22 210.526 313.22 210.593Z" fill="black"/>
<path d="M225.82 49.2669L221.415 53.0386L227.326 59.8832L231.731 56.1116L225.82 49.2669Z" fill="black"/>
<path d="M229.948 49.2815L220.875 57.0505L214.503 49.6733C217.006 46.1746 219.999 43.5292 223.576 41.9048L229.948 49.2815Z" fill="#284159"/>
<path d="M222.394 55.7502C222.343 55.7936 220.806 54.1166 218.961 52.0043C217.115 49.8916 215.66 48.1438 215.71 48.0999C215.76 48.0565 217.298 49.7331 219.143 51.8463C220.989 53.9586 222.444 55.7063 222.394 55.7502Z" fill="black"/>
<path d="M224.123 54.2691C224.097 54.2899 223.706 53.8579 223.093 53.1436C222.48 52.4294 221.646 51.4328 220.733 50.3264C219.847 49.243 219.046 48.2635 218.406 47.4809C218.14 47.1506 217.908 46.8632 217.707 46.6146C217.541 46.4058 217.456 46.3042 217.455 46.2936C217.545 46.2076 219.092 47.9595 220.919 50.1734C221.833 51.2808 222.647 52.2945 223.226 53.0364C223.805 53.778 224.149 54.2483 224.123 54.2691Z" fill="black"/>
<path d="M226.425 52.2978C226.399 52.3185 226.006 51.8806 225.389 51.1566C224.773 50.4327 223.934 49.4218 223.017 48.2987C222.13 47.1968 221.327 46.2012 220.687 45.4066C220.422 45.0688 220.192 44.7745 219.993 44.5214C219.826 44.3056 219.756 44.2068 219.75 44.1864C219.781 44.1481 220.199 44.5833 220.819 45.2985C221.444 46.0159 222.288 47.0231 223.205 48.1471C224.122 49.2707 224.94 50.2982 225.523 51.0499C226.104 51.8011 226.451 52.277 226.425 52.2978Z" fill="black"/>
<path d="M228.523 50.4503C228.473 50.4933 226.947 48.7964 225.116 46.6601C223.285 44.5229 221.842 42.7562 221.892 42.7132C221.943 42.6702 223.468 44.3672 225.3 46.5039C227.131 48.6402 228.574 50.4073 228.523 50.4503Z" fill="black"/>
<path d="M303.888 54.5002L299.874 50.3179L293.319 56.555L297.332 60.7373L303.888 54.5002Z" fill="black"/>
<path d="M304.072 58.5992L295.805 49.9853L302.87 43.2627C306.51 45.5685 309.32 48.4052 311.137 51.8767L304.072 58.5992Z" fill="#284159"/>
<path d="M297.188 51.4274C297.142 51.3798 298.744 49.7633 300.765 47.8178C302.787 45.8714 304.464 44.3329 304.511 44.381C304.557 44.4286 302.956 46.0446 300.933 47.991C298.912 49.9365 297.235 51.4754 297.188 51.4274Z" fill="black"/>
<path d="M298.764 53.0693C298.742 53.0448 299.155 52.6332 299.84 51.9864C300.524 51.3396 301.479 50.4576 302.541 49.4911C303.582 48.5532 304.522 47.7059 305.273 47.0286C305.59 46.7464 305.866 46.5006 306.105 46.2885C306.306 46.1125 306.403 46.0224 306.414 46.0215C306.504 46.106 304.829 47.7369 302.704 49.669C301.642 50.6359 300.668 51.498 299.954 52.1125C299.24 52.7274 298.787 53.0942 298.764 53.0693Z" fill="black"/>
<path d="M300.862 55.255C300.839 55.2305 301.258 54.8161 301.952 54.1651C302.646 53.5146 303.616 52.6276 304.694 51.6569C305.753 50.7163 306.709 49.8662 307.473 49.1885C307.798 48.9071 308.081 48.6627 308.325 48.4516C308.532 48.2737 308.628 48.1993 308.648 48.1924C308.688 48.2201 308.274 48.6595 307.589 49.3132C306.902 49.972 305.936 50.8637 304.857 51.8348C303.778 52.8059 302.79 53.6726 302.067 54.2912C301.343 54.9099 300.884 55.2795 300.862 55.255Z" fill="black"/>
<path d="M302.824 57.2441C302.779 57.196 304.401 55.5901 306.447 53.6576C308.495 51.7246 310.191 50.1972 310.237 50.2452C310.283 50.2933 308.661 51.8992 306.614 53.8322C304.567 55.7648 302.87 57.2926 302.824 57.2441Z" fill="black"/>
<path d="M266.837 34.52H259.96V45.2065H266.837V34.52Z" fill="black"/>
<path d="M270.525 37.7163H256.359V26.1978C261.318 24.9813 266.055 24.9069 270.525 26.1978V37.7163Z" fill="#165AD4"/>
<path d="M270.692 26.2463C270.698 26.2616 270.512 26.3526 270.169 26.5041C269.828 26.6607 269.318 26.8506 268.677 27.0511C268.037 27.2553 267.257 27.442 266.38 27.5935C265.502 27.7321 264.526 27.8282 263.498 27.8379C262.47 27.8384 261.493 27.7515 260.613 27.6212C259.735 27.4785 258.953 27.2992 258.311 27.101C257.668 26.907 257.156 26.7217 256.814 26.5683C256.469 26.42 256.282 26.3309 256.289 26.3156C256.306 26.2736 257.071 26.5938 258.357 26.9375C259 27.113 259.777 27.2729 260.646 27.4023C261.518 27.5191 262.482 27.5981 263.497 27.5977C264.512 27.5884 265.475 27.5002 266.345 27.375C267.213 27.2373 267.989 27.0701 268.629 26.8885C269.912 26.5318 270.674 26.2043 270.692 26.2463Z" fill="black"/>
<path d="M261.039 37.6842C260.972 37.6842 260.918 35.4731 260.918 32.7459C260.918 30.0178 260.973 27.8071 261.039 27.8071C261.105 27.8071 261.159 30.0178 261.159 32.7459C261.16 35.4731 261.105 37.6842 261.039 37.6842Z" fill="black"/>
<path d="M263.734 37.751C263.667 37.751 263.614 35.5297 263.614 32.79C263.614 30.0494 263.668 27.8286 263.734 27.8286C263.801 27.8286 263.854 30.0494 263.854 32.79C263.854 35.5297 263.801 37.751 263.734 37.751Z" fill="black"/>
<path d="M266.429 37.7066C266.362 37.7066 266.309 35.4853 266.309 32.7456C266.309 30.005 266.363 27.7842 266.429 27.7842C266.495 27.7842 266.549 30.005 266.549 32.7456C266.55 35.4853 266.496 37.7066 266.429 37.7066Z" fill="black"/>
<path d="M268.674 37.7068C268.607 37.7068 268.553 35.3058 268.553 32.3449C268.553 29.383 268.608 26.9824 268.674 26.9824C268.74 26.9824 268.794 29.383 268.794 32.3449C268.794 35.3058 268.74 37.7068 268.674 37.7068Z" fill="black"/>
<path d="M258.49 37.638C258.424 37.638 258.37 35.237 258.37 32.276C258.37 29.3141 258.424 26.9136 258.49 26.9136C258.557 26.9136 258.611 29.3141 258.611 32.276C258.611 35.2374 258.557 37.638 258.49 37.638Z" fill="black"/>
<path d="M297.943 126.95C317.482 107.495 317.482 75.9517 297.943 56.4966C278.404 37.0415 246.724 37.0415 227.185 56.4966C207.645 75.9517 207.645 107.495 227.185 126.95C246.724 146.405 278.404 146.405 297.943 126.95Z" fill="#165AD4"/>
<path d="M262.566 133.166C285.774 133.166 304.587 114.433 304.587 91.3255C304.587 68.2178 285.774 49.4854 262.566 49.4854C239.358 49.4854 220.545 68.2178 220.545 91.3255C220.545 114.433 239.358 133.166 262.566 133.166Z" fill="white"/>
<path d="M304.587 91.3256C304.587 91.3256 304.573 91.096 304.558 90.6474C304.53 90.1997 304.547 89.5307 304.469 88.6585C304.364 86.9135 304.072 84.3364 303.272 81.1098C302.843 79.5058 302.322 77.7289 301.548 75.8597C300.789 73.9876 299.853 71.9904 298.624 69.9733C296.194 65.9345 292.71 61.7086 287.962 58.1045C285.598 56.2981 282.91 54.6765 279.949 53.3376C276.989 52.0001 273.755 50.9255 270.305 50.3074C266.862 49.6749 263.217 49.4259 259.495 49.7151C257.632 49.825 255.758 50.1267 253.878 50.4977C252.001 50.8973 250.129 51.4333 248.274 52.0893C240.879 54.7555 233.852 59.7345 228.79 66.6405C227.508 68.3508 226.386 70.1979 225.373 72.117C224.857 73.0729 224.417 74.0703 223.966 75.0673C223.562 76.0837 223.144 77.0997 222.81 78.1503C222.123 80.2422 221.555 82.396 221.214 84.6049C220.865 86.8114 220.681 89.0572 220.666 91.3196C220.681 93.5829 220.863 95.8296 221.212 98.0366C221.553 100.246 222.12 102.401 222.808 104.494C223.141 105.545 223.559 106.561 223.963 107.578C224.414 108.575 224.854 109.573 225.37 110.529C226.383 112.449 227.505 114.297 228.787 116.007C233.85 122.915 240.878 127.896 248.274 130.562C250.13 131.218 252.002 131.754 253.879 132.154C255.76 132.524 257.634 132.827 259.498 132.936C263.22 133.225 266.865 132.976 270.308 132.343C273.758 131.725 276.992 130.65 279.952 129.312C282.914 127.973 285.601 126.351 287.965 124.544C292.713 120.94 296.197 116.714 298.626 112.676C299.855 110.658 300.79 108.662 301.549 106.79C302.323 104.92 302.844 103.144 303.273 101.54C304.073 98.3138 304.364 95.7372 304.469 93.9923C304.548 93.1205 304.531 92.4515 304.558 92.0038C304.573 91.5552 304.587 91.3256 304.587 91.3256C304.587 91.3256 304.59 91.5552 304.582 92.0043C304.563 92.4524 304.588 93.1218 304.517 93.9955C304.427 95.7432 304.151 98.3258 303.363 101.563C302.94 103.172 302.425 104.956 301.655 106.833C300.901 108.712 299.969 110.718 298.741 112.745C296.315 116.803 292.828 121.053 288.067 124.68C285.697 126.499 283.001 128.132 280.029 129.482C277.058 130.83 273.81 131.914 270.344 132.54C266.885 133.18 263.223 133.435 259.481 133.148C257.608 133.039 255.724 132.738 253.833 132.367C251.946 131.967 250.064 131.429 248.198 130.772C240.76 128.097 233.69 123.093 228.596 116.147C227.306 114.427 226.177 112.57 225.158 110.639C224.639 109.678 224.196 108.674 223.743 107.672C223.336 106.649 222.915 105.627 222.58 104.57C221.888 102.465 221.318 100.298 220.974 98.0754C220.623 95.8555 220.439 93.5958 220.425 91.32C220.44 89.0447 220.625 86.786 220.976 84.567C221.319 82.3452 221.891 80.1789 222.583 78.0754C222.919 77.0184 223.339 75.9969 223.746 74.9745C224.199 73.9719 224.642 72.9689 225.162 72.0075C226.18 70.0777 227.31 68.2205 228.599 66.5014C233.693 59.5585 240.762 54.5559 248.198 51.8814C250.064 51.2235 251.946 50.6862 253.833 50.2861C255.724 49.9151 257.607 49.6139 259.48 49.5049C263.222 49.218 266.883 49.4721 270.342 50.1119C273.807 50.7375 277.055 51.8213 280.026 53.1695C282.999 54.5194 285.695 56.1517 288.066 57.9701C292.826 61.5973 296.314 65.8472 298.74 69.9054C299.968 71.9327 300.9 73.9382 301.655 75.8181C302.425 77.6952 302.94 79.479 303.363 81.0881C304.151 84.3258 304.428 86.9084 304.518 88.6566C304.588 89.5298 304.564 90.1997 304.583 90.6478C304.59 91.0955 304.587 91.3256 304.587 91.3256Z" fill="black"/>
<path d="M298.423 89.807C297.089 89.8625 296.004 89.8121 295.998 89.6943C295.992 89.577 297.067 89.4208 298.4 89.3455C299.732 89.2702 300.818 89.3206 300.825 89.4582C300.832 89.5954 299.756 89.7516 298.423 89.807Z" fill="black"/>
<path d="M297.528 99.4395C296.228 99.1369 295.195 98.7987 295.221 98.6841C295.247 98.5696 296.326 98.7059 297.63 98.9886C298.933 99.2713 299.966 99.6091 299.936 99.7435C299.905 99.8784 298.827 99.7421 297.528 99.4395Z" fill="black"/>
<path d="M294.058 108.475C292.888 107.834 291.985 107.232 292.042 107.128C292.098 107.025 293.099 107.446 294.278 108.068C295.457 108.69 296.36 109.293 296.295 109.414C296.229 109.535 295.227 109.115 294.058 108.475Z" fill="black"/>
<path d="M288.281 116.253C287.326 115.325 286.617 114.504 286.699 114.419C286.781 114.335 287.633 115.006 288.602 115.92C289.571 116.833 290.28 117.654 290.184 117.753C290.089 117.852 289.236 117.181 288.281 116.253Z" fill="black"/>
<path d="M280.629 122.213C279.958 121.064 279.496 120.085 279.597 120.025C279.699 119.966 280.339 120.84 281.028 121.978C281.716 123.116 282.178 124.096 282.059 124.166C281.94 124.236 281.3 123.361 280.629 122.213Z" fill="black"/>
<path d="M271.649 125.904C271.314 124.617 271.135 123.55 271.249 123.52C271.363 123.489 271.743 124.503 272.097 125.785C272.452 127.066 272.631 128.133 272.497 128.168C272.363 128.204 271.983 127.19 271.649 125.904Z" fill="black"/>
<path d="M262.002 127.058C262.023 125.728 262.136 124.652 262.253 124.653C262.371 124.654 262.466 125.732 262.465 127.061C262.464 128.39 262.351 129.466 262.213 129.465C262.075 129.464 261.98 128.385 262.002 127.058Z" fill="black"/>
<path d="M252.394 125.605C252.774 124.331 253.174 123.324 253.288 123.357C253.402 123.39 253.202 124.454 252.842 125.734C252.482 127.013 252.082 128.019 251.949 127.981C251.815 127.942 252.015 126.878 252.394 125.605Z" fill="black"/>
<path d="M243.539 121.628C244.249 120.503 244.906 119.64 245.006 119.702C245.106 119.763 244.626 120.734 243.934 121.87C243.241 123.006 242.584 123.868 242.467 123.796C242.349 123.724 242.829 122.753 243.539 121.628Z" fill="black"/>
<path d="M236.075 115.435C237.061 114.539 237.925 113.882 238.005 113.969C238.085 114.055 237.362 114.863 236.39 115.774C235.418 116.684 234.554 117.341 234.461 117.24C234.366 117.139 235.089 116.331 236.075 115.435Z" fill="black"/>
<path d="M230.544 107.481C231.735 106.881 232.745 106.48 232.799 106.584C232.852 106.688 231.939 107.274 230.757 107.892C229.576 108.509 228.566 108.911 228.503 108.789C228.44 108.667 229.354 108.081 230.544 107.481Z" fill="black"/>
<path d="M227.371 98.342C228.68 98.0842 229.761 97.9687 229.785 98.0833C229.808 98.1979 228.77 98.5167 227.464 98.7943C226.16 99.072 225.079 99.1875 225.051 99.0526C225.023 98.9182 226.062 98.5998 227.371 98.342Z" fill="black"/>
<path d="M226.771 88.6838C228.102 88.7817 229.175 88.9563 229.167 89.0737C229.159 89.191 228.073 89.2229 226.741 89.1448C225.409 89.0668 224.336 88.8926 224.345 88.7549C224.354 88.6177 225.441 88.5858 226.771 88.6838Z" fill="black"/>
<path d="M228.79 79.2203C230.045 79.6726 231.03 80.1286 230.991 80.239C230.952 80.3494 229.897 80.0884 228.635 79.6555C227.374 79.2226 226.388 78.7666 226.434 78.6368C226.48 78.507 227.535 78.7685 228.79 79.2203Z" fill="black"/>
<path d="M233.293 70.6505C234.38 71.4216 235.207 72.1243 235.139 72.2204C235.071 72.3165 234.126 71.7829 233.026 71.0289C231.928 70.2749 231.102 69.5722 231.181 69.4595C231.26 69.3463 232.206 69.8799 233.293 70.6505Z" fill="black"/>
<path d="M239.934 63.5892C240.775 64.6213 241.383 65.5181 241.293 65.5925C241.202 65.6673 240.433 64.9018 239.576 63.8826C238.72 62.8644 238.111 61.9672 238.218 61.8798C238.325 61.7925 239.093 62.5581 239.934 63.5892Z" fill="black"/>
<path d="M248.23 58.5554C248.762 59.7746 249.106 60.8012 248.998 60.8488C248.891 60.8963 248.357 59.9534 247.806 58.7425C247.256 57.5325 246.912 56.5055 247.039 56.4496C247.165 56.3942 247.699 57.3371 248.23 58.5554Z" fill="black"/>
<path d="M257.584 55.9351C257.766 57.2518 257.819 58.3329 257.703 58.3495C257.586 58.3666 257.327 57.3156 257.125 56.0016C256.923 54.6886 256.87 53.6075 257.006 53.5877C257.143 53.5678 257.402 54.6193 257.584 55.9351Z" fill="black"/>
<path d="M267.302 55.897C267.125 57.2146 266.888 58.2703 266.771 58.256C266.654 58.2412 266.685 57.1596 266.841 55.8397C266.997 54.5207 267.235 53.4646 267.372 53.4816C267.509 53.4987 267.477 54.5807 267.302 55.897Z" fill="black"/>
<path d="M276.671 58.4578C276.144 59.6789 275.629 60.632 275.52 60.5863C275.412 60.541 275.735 59.5079 276.243 58.2786C276.751 57.0501 277.266 56.097 277.394 56.1506C277.521 56.2042 277.197 57.2377 276.671 58.4578Z" fill="black"/>
<path d="M285.002 63.4344C284.166 64.4706 283.414 65.2514 283.321 65.1784C283.229 65.1054 283.819 64.1967 284.638 63.1479C285.458 62.1001 286.211 61.3189 286.319 61.4043C286.428 61.4898 285.838 62.399 285.002 63.4344Z" fill="black"/>
<path d="M291.697 70.4452C290.613 71.2214 289.679 71.774 289.609 71.6792C289.54 71.5845 290.352 70.8652 291.423 70.0724C292.494 69.2801 293.429 68.728 293.51 68.8389C293.592 68.9502 292.779 69.6696 291.697 70.4452Z" fill="black"/>
<path d="M296.258 78.9866C295.004 79.4435 293.955 79.7248 293.914 79.6149C293.873 79.5049 294.849 79.03 296.096 78.5541C297.341 78.0783 298.391 77.7969 298.439 77.9258C298.488 78.0552 297.511 78.5301 296.258 78.9866Z" fill="black"/>
<path d="M298.338 88.4351C297.007 88.5404 295.921 88.5312 295.91 88.4143C295.9 88.2974 296.969 88.1015 298.298 87.9763C299.626 87.8511 300.713 87.8604 300.725 87.9971C300.737 88.1339 299.668 88.3298 298.338 88.4351Z" fill="black"/>
<path d="M246.25 46.0596C246.251 46.0633 246.203 46.086 246.107 46.1257C245.999 46.1691 245.858 46.226 245.68 46.2976C245.307 46.4542 244.741 46.6427 244.039 46.9531C242.62 47.5348 240.601 48.4699 238.228 49.8406C237.039 50.5221 235.78 51.3403 234.46 52.2615C233.159 53.2096 231.787 54.2504 230.438 55.4567C227.72 57.8443 225.019 60.7984 222.645 64.2287C220.296 67.678 218.512 71.258 217.265 74.6464C216.626 76.3363 216.15 77.9875 215.735 79.5385C215.353 81.0982 215.045 82.5632 214.838 83.9136C214.417 86.6131 214.276 88.8256 214.246 90.353C214.211 91.1171 214.24 91.7108 214.229 92.1132C214.226 92.3045 214.225 92.4555 214.223 92.5715C214.22 92.675 214.217 92.7276 214.213 92.7281C214.209 92.7281 214.204 92.6754 214.199 92.5724C214.194 92.4565 214.188 92.3054 214.18 92.1141C214.175 91.7113 214.131 91.1167 214.152 90.3511C214.152 88.82 214.268 86.5997 214.669 83.8873C214.865 82.5304 215.165 81.0575 215.541 79.4895C215.949 77.9298 216.42 76.2694 217.055 74.5697C218.297 71.1615 220.084 67.5597 222.445 64.0924C224.831 60.6441 227.552 57.6794 230.29 55.2899C231.65 54.0827 233.032 53.0432 234.344 52.0984C235.674 51.1804 236.944 50.3673 238.142 49.6928C240.534 48.3359 242.57 47.4221 244.003 46.8658C244.712 46.5678 245.284 46.3932 245.663 46.2514C245.845 46.189 245.989 46.14 246.099 46.1021C246.197 46.0707 246.249 46.0559 246.25 46.0596Z" fill="white"/>
<path d="M260.215 43.3622C260.217 43.3969 259.662 43.4579 258.766 43.5521C257.87 43.6464 256.633 43.7799 255.27 43.955C253.907 44.1315 252.677 44.3167 251.786 44.453C250.895 44.5893 250.343 44.6711 250.337 44.6369C250.331 44.6055 250.871 44.4646 251.757 44.2853C252.641 44.1056 253.872 43.8931 255.239 43.7161C256.606 43.5401 257.85 43.4329 258.752 43.3821C259.654 43.3318 260.213 43.3304 260.215 43.3622Z" fill="white"/>
<g opacity="0.4">
<path d="M228.982 116.475C228.982 116.475 250.758 150.691 284.538 133.166C319.797 114.874 300.319 72.9375 300.319 72.9375C300.319 72.9375 316.911 106.357 282.538 128.146C273.977 133.573 264.657 133.577 257.547 132.869C239.378 131.056 228.982 116.475 228.982 116.475Z" fill="black"/>
</g>
<path d="M274.28 69.0894C274.49 75.2233 274.303 81.3707 273.721 87.4807C273.51 89.6909 273.24 91.9283 272.399 93.9851C271.558 96.0415 270.073 97.926 268.02 98.7946C265.968 99.6631 263.326 99.3028 261.89 97.604L274.28 69.0894Z" fill="#C9D9F5"/>
<path d="M261.654 88.0258L276.925 62.4189L267.708 91.3258L262.999 92.7294L261.654 88.0258Z" fill="#165AD4"/>
<g opacity="0.4">
<path d="M276.925 62.4189L265.6 88.582L267.708 91.3258L276.925 62.4189Z" fill="black"/>
</g>
<path d="M262.999 97.6229C265.713 97.6229 267.914 95.4318 267.914 92.7289C267.914 90.0261 265.713 87.835 262.999 87.835C260.284 87.835 258.083 90.0261 258.083 92.7289C258.083 95.4318 260.284 97.6229 262.999 97.6229Z" fill="white"/>
<path d="M267.914 92.7292C267.882 92.7315 267.909 92.2926 267.715 91.5455C267.522 90.8128 267.028 89.7372 265.921 88.9066C265.372 88.5009 264.682 88.1567 263.887 88.02C263.098 87.8879 262.208 87.9147 261.362 88.2367C260.936 88.3845 260.526 88.6081 260.149 88.8899C259.768 89.1662 259.421 89.509 259.136 89.9059C258.546 90.688 258.215 91.6924 258.204 92.7282C258.214 93.764 258.546 94.7689 259.136 95.5515C259.421 95.9488 259.767 96.2916 260.149 96.5679C260.526 96.8497 260.936 97.0733 261.362 97.2212C262.208 97.5437 263.098 97.5705 263.887 97.4379C264.682 97.3006 265.372 96.9565 265.921 96.5508C267.028 95.7201 267.522 94.6446 267.714 93.9119C267.909 93.1653 267.882 92.7268 267.914 92.7292C267.914 92.7292 267.975 93.1662 267.806 93.9354C267.638 94.6885 267.158 95.8089 266.025 96.6867C265.464 97.1154 264.751 97.4827 263.925 97.6342C263.104 97.7811 262.175 97.7608 261.287 97.4295C260.84 97.2771 260.408 97.0456 260.012 96.7523C259.61 96.4644 259.246 96.1064 258.945 95.691C258.324 94.8724 257.972 93.8158 257.963 92.7282C257.972 91.6411 258.325 90.585 258.945 89.7664C259.246 89.351 259.611 88.993 260.012 88.7051C260.408 88.4118 260.84 88.1803 261.286 88.0283C262.174 87.6975 263.103 87.6772 263.924 87.8236C264.751 87.9752 265.463 88.3425 266.024 88.7712C267.157 89.649 267.638 90.7694 267.805 91.5224C267.975 92.2921 267.914 92.7292 267.914 92.7292Z" fill="black"/>
<path d="M266.587 93.4466C266.987 91.4748 265.706 89.5532 263.726 89.1547C261.746 88.7562 259.816 90.0316 259.416 92.0035C259.015 93.9753 260.296 95.8968 262.277 96.2953C264.257 96.6938 266.187 95.4184 266.587 93.4466Z" fill="#284159"/>
<path d="M224.259 210.16H248.437L237.165 113.442L224.259 210.16Z" fill="#C9D9F5"/>
<path d="M105.308 113.442L89.569 211.3L223.875 213.041L237.165 113.442H105.308Z" fill="white"/>
<path d="M231.183 158.274H98.0974L100.996 140.252H233.588L231.183 158.274Z" fill="white"/>
<path d="M231.193 158.286H98.084L98.0858 158.272L100.986 140.241H233.601L233.599 140.254L231.193 158.286ZM98.1109 158.262H231.173L233.575 140.264H101.006L98.1109 158.262Z" fill="black"/>
<path d="M105.308 113.442L100.996 140.252H233.588L237.165 113.442H105.308Z" fill="#165AD4"/>
<path d="M105.308 113.443C106.268 113.442 159.019 113.398 237.165 113.334H237.29L237.273 113.457C233.386 142.615 228.978 175.68 224.322 210.603L224.308 210.707H224.202C223.725 210.707 223.208 210.707 222.69 210.707C173.092 210.699 127.137 210.692 89.6837 210.686H89.5677L89.5863 210.572C99.1062 151.756 105.178 114.246 105.308 113.443C105.179 114.246 99.1832 151.768 89.7812 210.603L89.6837 210.489C127.137 210.483 173.092 210.475 222.69 210.467C223.208 210.467 223.725 210.467 224.202 210.467L224.082 210.572C228.746 175.65 233.163 142.586 237.057 113.428L237.165 113.551C159.019 113.487 106.267 113.443 105.308 113.443Z" fill="black"/>
<path d="M233.588 140.252C233.588 140.319 203.904 140.373 167.295 140.373C130.674 140.373 100.996 140.319 100.996 140.252C100.996 140.186 130.674 140.132 167.295 140.132C203.904 140.132 233.588 140.186 233.588 140.252Z" fill="black"/>
<path d="M231.183 158.273C231.183 158.34 201.331 158.394 164.516 158.394C127.689 158.394 97.8436 158.34 97.8436 158.273C97.8436 158.207 127.689 158.153 164.516 158.153C201.331 158.153 231.183 158.207 231.183 158.273Z" fill="black"/>
<path d="M228.475 174.854C228.475 174.921 198.624 174.974 161.809 174.974C124.981 174.974 95.1362 174.92 95.1362 174.854C95.1362 174.788 124.981 174.734 161.809 174.734C198.624 174.733 228.475 174.787 228.475 174.854Z" fill="black"/>
<path d="M225.768 191.434C225.768 191.5 195.917 191.554 159.101 191.554C122.274 191.554 92.4288 191.5 92.4288 191.434C92.4288 191.367 122.274 191.313 159.101 191.313C195.917 191.313 225.768 191.368 225.768 191.434Z" fill="black"/>
<path d="M108.425 210.735C108.359 210.725 110.796 194.937 113.868 175.477C116.941 156.01 119.486 140.242 119.551 140.252C119.617 140.263 117.18 156.047 114.107 175.514C111.035 194.975 108.491 210.745 108.425 210.735Z" fill="black"/>
<path d="M128.944 210.735C128.878 210.725 131.316 194.937 134.388 175.477C137.461 156.01 140.005 140.242 140.07 140.252C140.136 140.263 137.699 156.047 134.626 175.514C131.555 194.975 129.01 210.745 128.944 210.735Z" fill="black"/>
<path d="M148.011 210.03C147.945 210.02 150.358 194.39 153.399 175.124C156.442 155.852 158.96 140.242 159.027 140.252C159.093 140.263 156.681 155.889 153.638 175.161C150.596 194.427 148.077 210.04 148.011 210.03Z" fill="black"/>
<path d="M166.879 210.588C166.813 210.578 169.245 194.823 172.311 175.403C175.377 155.977 177.916 140.242 177.982 140.253C178.048 140.263 175.616 156.015 172.55 175.441C169.484 194.86 166.944 210.598 166.879 210.588Z" fill="black"/>
<path d="M185.834 210.588C185.768 210.578 188.201 194.823 191.266 175.403C194.333 155.977 196.871 140.242 196.938 140.253C197.004 140.263 194.572 156.015 191.505 175.441C188.439 194.86 185.9 210.598 185.834 210.588Z" fill="black"/>
<path d="M204.774 210.69C204.708 210.68 207.144 194.902 210.214 175.455C213.285 156 215.827 140.242 215.893 140.252C215.959 140.263 213.524 156.037 210.452 175.492C207.382 194.94 204.84 210.701 204.774 210.69Z" fill="black"/>
<g opacity="0.2">
<path d="M192.846 141.512C195.131 140.506 196.557 138.138 197.15 135.721C197.744 133.305 197.647 130.782 197.732 128.295C197.817 125.809 198.117 123.238 199.396 121.1C200.151 119.836 201.215 118.784 202.053 117.574C202.892 116.363 203.514 114.879 203.205 113.441L188.923 113.513L192.846 141.512Z" fill="black"/>
</g>
<path d="M133.609 159.607C133.615 159.613 133.567 159.671 133.471 159.774C133.353 159.896 133.211 160.043 133.041 160.219C132.665 160.603 132.111 161.148 131.419 161.814C130.035 163.147 128.091 164.955 125.89 166.891C123.686 168.827 121.643 170.523 120.143 171.724C119.393 172.325 118.781 172.805 118.352 173.129C118.156 173.275 117.992 173.397 117.855 173.498C117.74 173.581 117.677 173.621 117.672 173.614C117.667 173.608 117.72 173.555 117.825 173.461C117.954 173.35 118.108 173.216 118.294 173.056C118.734 172.685 119.322 172.191 120.034 171.593C121.506 170.359 123.529 168.644 125.73 166.71C127.929 164.776 129.889 162.991 131.302 161.69C131.987 161.06 132.552 160.541 132.976 160.152C133.159 159.989 133.31 159.852 133.437 159.739C133.544 159.647 133.604 159.601 133.609 159.607Z" fill="black"/>
<path d="M132.562 173.803C132.549 173.814 132.352 173.62 132.007 173.259C131.635 172.865 131.146 172.346 130.555 171.718C129.304 170.389 127.626 168.606 125.77 166.636C123.896 164.682 122.201 162.914 120.937 161.597C120.341 160.974 119.848 160.459 119.474 160.069C119.131 159.705 118.946 159.498 118.958 159.487C118.97 159.475 119.177 159.659 119.54 160.002C119.904 160.345 120.424 160.849 121.059 161.478C122.332 162.734 124.066 164.493 125.946 166.47C127.825 168.448 129.492 170.269 130.681 171.604C131.276 172.271 131.753 172.815 132.077 173.196C132.401 173.576 132.574 173.792 132.562 173.803Z" fill="black"/>
<path d="M137.517 163.854C137.517 163.854 137.562 163.732 137.661 163.499C137.761 163.266 137.934 162.927 138.219 162.521C138.78 161.72 139.861 160.611 141.659 159.966C142.104 159.805 142.591 159.677 143.113 159.606C143.633 159.524 144.19 159.513 144.765 159.563C145.917 159.655 147.139 160.061 148.29 160.758C149.439 161.456 150.513 162.471 151.328 163.762C152.127 165.047 152.709 166.639 152.597 168.348C152.543 169.197 152.279 170.057 151.803 170.814C151.329 171.57 150.672 172.234 149.892 172.739C148.334 173.756 146.377 174.267 144.377 174.164C143.379 174.108 142.37 173.903 141.406 173.52C140.447 173.136 139.534 172.561 138.808 171.768C138.451 171.367 138.15 170.914 137.912 170.425C137.681 169.932 137.524 169.403 137.44 168.86C137.273 167.771 137.396 166.639 137.726 165.567C138.397 163.422 139.945 161.499 142.022 160.37C144.084 159.206 146.746 159.067 149.004 160.049C150.137 160.525 151.161 161.293 151.93 162.28C152.703 163.269 153.162 164.49 153.313 165.744C153.465 167 153.274 168.315 152.711 169.476C152.428 170.055 152.056 170.594 151.607 171.063C151.154 171.529 150.636 171.929 150.074 172.26C147.8 173.561 145.016 173.727 142.611 172.956C141.406 172.573 140.277 171.948 139.364 171.091C138.449 170.24 137.788 169.114 137.556 167.901C137.312 166.698 137.454 165.41 138.045 164.34C138.337 163.806 138.746 163.34 139.222 162.971C139.7 162.602 140.243 162.335 140.803 162.141C141.928 161.756 143.109 161.664 144.255 161.687C145.401 161.714 146.539 161.845 147.622 162.157C148.7 162.468 149.736 162.961 150.548 163.718C151.361 164.468 151.909 165.471 152.119 166.52C152.337 167.568 152.26 168.653 151.937 169.638C151.613 170.627 151.03 171.498 150.318 172.2C148.884 173.605 146.972 174.378 145.116 174.457C144.187 174.498 143.266 174.37 142.425 174.066C141.587 173.758 140.828 173.272 140.254 172.639C139.67 172.015 139.254 171.276 138.995 170.51C138.729 169.747 138.624 168.954 138.657 168.19C138.704 166.65 139.393 165.278 140.301 164.293C141.211 163.295 142.329 162.64 143.423 162.281C144.522 161.913 145.604 161.878 146.54 161.985C148.433 162.225 149.747 163.006 150.537 163.586C150.934 163.884 151.215 164.139 151.396 164.317C151.574 164.498 151.661 164.595 151.661 164.595C151.661 164.595 151.563 164.51 151.379 164.335C151.193 164.163 150.909 163.915 150.509 163.626C149.714 163.061 148.402 162.301 146.53 162.078C145.603 161.98 144.538 162.022 143.459 162.389C142.385 162.749 141.289 163.4 140.401 164.382C139.515 165.355 138.851 166.694 138.811 168.196C138.781 168.941 138.886 169.714 139.149 170.458C139.404 171.203 139.811 171.92 140.379 172.523C140.937 173.135 141.672 173.602 142.486 173.899C143.304 174.192 144.201 174.314 145.108 174.271C146.919 174.19 148.786 173.429 150.177 172.059C150.868 171.374 151.431 170.528 151.74 169.574C152.051 168.623 152.123 167.573 151.911 166.563C151.706 165.551 151.181 164.597 150.399 163.877C149.619 163.152 148.615 162.673 147.561 162.37C146.503 162.066 145.381 161.938 144.251 161.913C143.122 161.892 141.965 161.986 140.879 162.359C139.798 162.719 138.8 163.429 138.251 164.453C137.691 165.466 137.553 166.7 137.789 167.856C138.013 169.02 138.644 170.095 139.529 170.919C140.411 171.747 141.509 172.355 142.686 172.729C145.029 173.482 147.751 173.314 149.953 172.053C150.496 171.732 150.997 171.346 151.433 170.898C151.865 170.445 152.223 169.928 152.494 169.372C153.035 168.256 153.221 166.987 153.074 165.772C152.928 164.559 152.485 163.377 151.741 162.425C151 161.473 150.01 160.729 148.911 160.266C146.717 159.312 144.14 159.443 142.132 160.572C140.109 161.668 138.594 163.546 137.939 165.633C137.616 166.676 137.496 167.776 137.656 168.827C137.736 169.351 137.886 169.861 138.107 170.334C138.336 170.804 138.624 171.24 138.967 171.627C139.665 172.392 140.549 172.953 141.484 173.33C142.423 173.705 143.411 173.908 144.389 173.966C146.345 174.072 148.268 173.574 149.789 172.584C151.317 171.61 152.342 170 152.428 168.337C152.543 166.677 151.98 165.111 151.198 163.844C150.401 162.571 149.349 161.566 148.22 160.873C147.089 160.182 145.888 159.776 144.754 159.678C144.189 159.626 143.641 159.633 143.128 159.711C142.613 159.777 142.132 159.9 141.691 160.055C139.91 160.679 138.829 161.764 138.259 162.55C137.97 162.949 137.791 163.282 137.684 163.51C137.577 163.738 137.517 163.854 137.517 163.854Z" fill="#165AD4"/>
<path d="M150.085 176.61C150.128 176.661 146.446 179.794 141.862 183.606C137.277 187.42 133.526 190.469 133.484 190.418C133.441 190.367 137.122 187.236 141.707 183.422C146.291 179.609 150.043 176.559 150.085 176.61Z" fill="black"/>
<path d="M150.887 190.009C150.877 190.022 150.657 189.865 150.269 189.569C149.852 189.244 149.303 188.816 148.64 188.3C147.271 187.22 145.39 185.716 143.323 184.043C141.254 182.37 139.39 180.844 138.049 179.731C137.406 179.191 136.873 178.744 136.468 178.403C136.099 178.085 135.899 177.904 135.91 177.891C135.92 177.878 136.14 178.035 136.528 178.331C136.945 178.656 137.494 179.083 138.157 179.599C139.526 180.679 141.407 182.183 143.475 183.856C145.542 185.529 147.406 187.054 148.747 188.167C149.39 188.707 149.923 189.155 150.328 189.495C150.698 189.814 150.897 189.996 150.887 190.009Z" fill="black"/>
<path d="M188.82 176.786C188.86 176.84 185.339 179.523 180.957 182.78C176.573 186.038 172.988 188.634 172.949 188.581C172.909 188.528 176.429 185.845 180.812 182.587C185.194 179.331 188.78 176.733 188.82 176.786Z" fill="black"/>
<path d="M190.186 188.155C190.15 188.211 186.413 185.903 181.839 182.999C177.264 180.095 173.585 177.697 173.621 177.641C173.657 177.585 177.394 179.892 181.969 182.797C186.543 185.7 190.222 188.099 190.186 188.155Z" fill="black"/>
<path d="M150.687 210.593C150.639 210.547 154.295 206.733 158.851 202.076C163.409 197.418 167.142 193.68 167.189 193.727C167.237 193.773 163.582 197.586 159.024 202.244C154.468 206.901 150.735 210.639 150.687 210.593Z" fill="#165AD4"/>
<path d="M166.143 210.588C166.137 210.593 166.085 210.538 165.993 210.429C165.885 210.296 165.756 210.137 165.6 209.945C165.238 209.493 164.755 208.889 164.169 208.158C162.955 206.655 161.24 204.608 159.251 202.432C157.259 200.256 155.371 198.366 153.98 197.023C153.302 196.375 152.744 195.84 152.326 195.439C152.148 195.267 152.001 195.124 151.878 195.005C151.778 194.904 151.728 194.847 151.734 194.841C151.739 194.835 151.8 194.879 151.911 194.969C152.042 195.079 152.2 195.211 152.389 195.37C152.802 195.721 153.386 196.243 154.098 196.9C155.521 198.214 157.433 200.089 159.429 202.269C161.424 204.451 163.122 206.52 164.303 208.053C164.894 208.819 165.363 209.447 165.675 209.889C165.816 210.091 165.934 210.26 166.032 210.4C166.112 210.518 166.15 210.583 166.143 210.588Z" fill="#165AD4"/>
<path d="M128.163 191.158C128.163 191.158 128.31 202.507 125.433 209.305L107.897 206.328C107.897 206.328 113.179 195.574 111.741 189.596L128.163 191.158Z" fill="white"/>
<path d="M128.156 190.732C128.156 190.732 125.959 204.652 124.613 208.799L107.18 205.377C107.18 205.377 110.765 191.903 110.718 188.154L128.156 190.732Z" fill="#165AD4"/>
<path d="M112.491 194.4C112.478 194.464 115.081 195.063 118.305 195.739C121.53 196.415 124.154 196.911 124.167 196.847C124.181 196.783 121.578 196.184 118.353 195.508C115.13 194.832 112.505 194.336 112.491 194.4Z" fill="white"/>
<path d="M112.046 197.351C112.033 197.415 114.636 198.015 117.86 198.69C121.085 199.366 123.709 199.862 123.722 199.798C123.736 199.735 121.133 199.135 117.908 198.46C114.685 197.784 112.06 197.287 112.046 197.351Z" fill="white"/>
<path d="M114.598 200.691C114.592 200.723 114.958 200.83 115.555 200.977C116.153 201.124 116.982 201.311 117.9 201.504C118.819 201.697 119.653 201.858 120.259 201.963C120.866 202.068 121.244 202.117 121.251 202.086C121.258 202.054 120.891 201.947 120.294 201.8C119.697 201.653 118.868 201.466 117.949 201.273C117.031 201.081 116.197 200.919 115.59 200.814C114.983 200.708 114.605 200.659 114.598 200.691Z" fill="white"/>
<path d="M211.111 159.282C211.111 159.282 212.908 170.345 211.087 177.4L193.527 177.024C193.527 177.024 197.12 165.759 194.845 160.128L211.111 159.282Z" fill="white"/>
<path d="M211.042 158.868C211.042 158.868 210.924 172.78 210.213 177.024L192.688 176.199C192.688 176.199 194.228 162.523 193.636 158.868H211.042Z" fill="#284159"/>
<path d="M196.104 165.058C196.104 165.122 198.741 165.179 201.994 165.184C205.248 165.19 207.885 165.141 207.885 165.077C207.885 165.013 205.248 164.956 201.994 164.951C198.741 164.946 196.104 164.994 196.104 165.058Z" fill="white"/>
<path d="M196.272 168C196.272 168.064 198.909 168.121 202.162 168.126C205.416 168.132 208.053 168.084 208.053 168.02C208.053 167.955 205.416 167.899 202.162 167.893C198.91 167.888 196.272 167.936 196.272 168Z" fill="white"/>
<path d="M199.415 170.715C199.415 170.747 199.79 170.777 200.398 170.799C201.005 170.821 201.844 170.836 202.771 170.837C203.698 170.838 204.537 170.827 205.144 170.807C205.751 170.787 206.127 170.758 206.127 170.726C206.127 170.694 205.752 170.664 205.145 170.642C204.537 170.62 203.698 170.606 202.771 170.604C201.845 170.603 201.006 170.614 200.398 170.634C199.791 170.654 199.415 170.683 199.415 170.715Z" fill="white"/>
<path d="M214.851 127.391C211.573 127.391 208.277 125.347 206.542 122.126C204.866 119.012 204.325 115.205 205.058 111.682C206.022 107.05 209.095 103.275 212.886 102.065C216.114 101.036 221.877 101.62 224.594 106.137C226.708 109.655 226.486 113.296 226.476 113.45C226.423 114.213 225.763 114.788 224.992 114.738C224.227 114.686 223.648 114.028 223.698 113.265C223.701 113.209 223.849 110.296 222.205 107.561C220.108 104.072 215.511 104.139 213.736 104.705C210.493 105.74 208.41 109.238 207.784 112.244C207.182 115.141 207.623 118.265 208.996 120.816C210.365 123.361 213.134 124.941 215.59 124.563C216.345 124.448 217.061 124.967 217.177 125.724C217.293 126.481 216.771 127.188 216.011 127.304C215.626 127.362 215.239 127.391 214.851 127.391Z" fill="black"/>
<path d="M124.963 127.391C121.685 127.392 118.389 125.348 116.654 122.126C114.978 119.012 114.437 115.205 115.17 111.682C115.981 107.784 118.728 103.295 123.037 102.054C125 101.489 127.363 101.61 129.358 102.376L128.355 104.962C126.652 104.307 124.891 104.406 123.81 104.717C120.615 105.637 118.538 109.161 117.896 112.245C117.294 115.142 117.735 118.267 119.108 120.817C120.479 123.362 123.254 124.942 125.702 124.564L126.124 127.305C125.739 127.362 125.35 127.391 124.963 127.391Z" fill="black"/>
<path d="M213.685 113.519L212.406 120.5H231.248L232.921 113.588L213.685 113.519Z" fill="#165AD4"/>
<path d="M129.74 126.288C129.74 127.935 128.399 129.271 126.744 129.271C125.09 129.271 123.749 127.936 123.749 126.288C123.749 124.641 125.09 123.306 126.744 123.306C128.399 123.306 129.74 124.641 129.74 126.288Z" fill="black"/>
<path d="M219.529 126.288C219.529 127.935 218.188 129.271 216.533 129.271C214.879 129.271 213.537 127.936 213.537 126.288C213.537 124.641 214.878 123.306 216.533 123.306C218.188 123.306 219.529 124.641 219.529 126.288Z" fill="black"/>
<path d="M170.078 68.5239L165.15 87.1356L148.142 88.9517V91.9575L172.043 92.7937L176.535 71.9159L170.078 68.5239Z" fill="#FFBE9D"/>
<path d="M177.254 93.2873C177.254 93.2873 150.677 92.027 143.105 97.9267C135.534 103.826 139.175 113.443 139.175 113.443L181.95 113.332L185.724 91.7461L177.254 93.2873Z" fill="black"/>
<path d="M181.77 107.531C181.769 107.539 181.637 107.53 181.388 107.504C181.138 107.477 180.77 107.44 180.298 107.379C179.352 107.261 177.987 107.068 176.306 106.785C172.945 106.224 168.328 105.261 163.335 103.8C160.841 103.066 158.481 102.322 156.299 101.785C154.117 101.258 152.116 100.917 150.419 100.852C148.725 100.778 147.348 100.9 146.417 101.08C145.945 101.14 145.592 101.256 145.345 101.298C145.1 101.351 144.97 101.375 144.968 101.367C144.966 101.359 145.091 101.319 145.333 101.251C145.576 101.193 145.927 101.062 146.399 100.988C147.331 100.779 148.717 100.63 150.426 100.682C152.138 100.727 154.157 101.052 156.352 101.57C158.547 102.097 160.913 102.837 163.404 103.57C168.386 105.027 172.987 106.015 176.336 106.618C178.01 106.922 179.371 107.14 180.312 107.286C180.765 107.357 181.126 107.414 181.395 107.457C181.642 107.497 181.771 107.523 181.77 107.531Z" fill="#284159"/>
<path d="M157.07 101.66C157.016 101.715 156.125 100.756 154.714 100.03C153.311 99.288 152.012 99.1041 152.027 99.0288C152.031 98.9997 152.36 99.0071 152.88 99.1138C153.399 99.2192 154.106 99.4414 154.827 99.8165C155.546 100.193 156.132 100.645 156.514 101.01C156.898 101.375 157.091 101.641 157.07 101.66Z" fill="#284159"/>
<path d="M180.063 150.809L180.421 161.933L178.156 170.813C177.992 171.453 178.408 172.097 179.06 172.216C179.426 172.282 179.798 172.171 180.063 171.913C181.754 170.269 187.944 164.189 187.872 163.376C187.788 162.435 188.277 151.617 188.277 151.617L180.063 150.809Z" fill="#165AD4"/>
<g opacity="0.6">
<path d="M179.06 172.216L187.865 162.625L187.869 163.096C187.873 163.504 187.733 163.9 187.471 164.213C186.769 165.05 184.779 167.318 180.097 171.913C179.825 172.18 179.434 172.294 179.06 172.216Z" fill="white"/>
</g>
<g opacity="0.6">
<path d="M185.538 159.055C185.26 159.25 185.172 159.673 185.357 159.958C185.542 160.243 185.973 160.335 186.254 160.144C186.536 159.954 186.657 159.45 186.441 159.187C186.226 158.925 185.714 158.844 185.486 159.096" fill="white"/>
</g>
<path d="M181.57 167.33C181.507 167.361 181.25 166.78 180.582 166.473C179.924 166.146 179.308 166.308 179.293 166.24C179.283 166.212 179.424 166.125 179.685 166.085C179.944 166.045 180.323 166.078 180.689 166.253C181.055 166.428 181.317 166.702 181.447 166.929C181.579 167.156 181.598 167.32 181.57 167.33Z" fill="black"/>
<path d="M180.788 168.827C180.735 168.876 180.373 168.517 179.793 168.358C179.217 168.186 178.719 168.297 178.701 168.228C178.668 168.171 179.204 167.93 179.862 168.123C180.522 168.308 180.846 168.797 180.788 168.827Z" fill="black"/>
<path d="M183.035 165.406C182.983 165.46 182.429 164.905 181.549 164.578C180.675 164.238 179.891 164.283 179.888 164.209C179.869 164.15 180.698 163.987 181.637 164.35C182.579 164.703 183.088 165.374 183.035 165.406Z" fill="black"/>
<path d="M183.21 162.015C183.181 162.082 182.561 161.831 181.757 161.809C180.954 161.777 180.318 161.986 180.294 161.917C180.262 161.863 180.902 161.532 181.766 161.565C182.629 161.59 183.245 161.963 183.21 162.015Z" fill="black"/>
<path d="M183.188 158.747C183.154 158.812 182.53 158.447 181.682 158.493C180.832 158.52 180.242 158.939 180.203 158.877C180.184 158.854 180.305 158.713 180.561 158.562C180.816 158.412 181.214 158.27 181.671 158.249C182.128 158.23 182.537 158.337 182.803 158.465C183.072 158.593 183.204 158.722 183.188 158.747Z" fill="black"/>
<path d="M181.695 157.871C181.681 157.871 181.655 157.722 181.676 157.45C181.699 157.18 181.774 156.783 182.002 156.344C182.121 156.136 182.244 155.869 182.555 155.72C182.709 155.645 182.941 155.671 183.074 155.818C183.207 155.96 183.25 156.142 183.256 156.318C183.251 157.025 182.648 157.714 181.851 157.823C181.051 157.917 180.321 157.468 179.998 156.861C179.927 156.704 179.877 156.511 179.962 156.322C180.045 156.132 180.272 156.054 180.432 156.08C180.765 156.126 180.976 156.315 181.172 156.454C181.56 156.759 181.801 157.081 181.943 157.312C182.085 157.545 182.131 157.689 182.118 157.695C182.079 157.725 181.83 157.151 181.068 156.593C180.876 156.464 180.654 156.302 180.415 156.282C180.299 156.272 180.199 156.319 180.158 156.413C180.116 156.503 180.141 156.642 180.202 156.766C180.475 157.262 181.143 157.671 181.819 157.581C182.491 157.496 183.021 156.889 183.03 156.321C183.03 156.184 182.992 156.046 182.918 155.966C182.845 155.886 182.735 155.866 182.632 155.908C182.415 155.997 182.271 156.233 182.154 156.428C181.691 157.249 181.745 157.881 181.695 157.871Z" fill="black"/>
<path d="M185.724 91.7457C185.724 91.7457 174.231 113.38 174.073 117.142C173.916 120.905 174.073 155.707 174.073 155.707H191.865C192.337 155.707 194.995 140.03 194.453 136.425C193.912 132.819 191.994 113.42 191.994 113.42H202.229C202.229 113.42 205.036 110.433 204.933 106.639C204.876 104.548 203.502 100.266 202.136 97.9998C201.26 96.5459 195.643 88.9238 195.643 88.9238L185.724 91.7457Z" fill="black"/>
<path d="M184.955 93.2081C184.958 93.2099 184.941 93.252 184.904 93.3323C184.86 93.4243 184.805 93.5407 184.736 93.6853C184.575 94.0092 184.351 94.4596 184.066 95.0325C183.769 95.6206 183.409 96.333 182.993 97.1568C182.784 97.5717 182.56 98.0143 182.324 98.4832C182.102 98.9609 181.868 99.4654 181.622 99.9944C180.632 102.116 179.458 104.635 178.154 107.43C177.499 108.829 176.811 110.297 176.098 111.817C175.743 112.578 175.382 113.351 175.016 114.137C174.672 114.925 174.405 115.759 174.226 116.623C174.043 117.488 173.969 118.354 173.955 119.222C173.923 120.088 173.909 120.942 173.892 121.781C173.87 123.459 173.859 125.079 173.864 126.621C173.868 129.707 173.901 132.485 173.933 134.819C173.968 137.139 173.996 139.023 174.017 140.346C174.024 140.985 174.03 141.488 174.034 141.849C174.034 142.01 174.034 142.138 174.033 142.24C174.032 142.328 174.029 142.373 174.025 142.373C174.021 142.373 174.015 142.328 174.009 142.241C174.003 142.139 173.995 142.011 173.986 141.85C173.97 141.489 173.949 140.987 173.923 140.348C173.875 139.044 173.816 137.156 173.762 134.822C173.709 132.488 173.658 129.709 173.641 126.621C173.631 125.078 173.636 123.457 173.656 121.777C173.67 120.936 173.684 120.082 173.715 119.214C173.727 118.347 173.803 117.452 173.989 116.574C174.172 115.694 174.445 114.843 174.795 114.041C175.164 113.254 175.527 112.479 175.884 111.717C176.602 110.197 177.293 108.731 177.953 107.334C179.275 104.547 180.466 102.035 181.469 99.9195C181.72 99.3929 181.959 98.8907 182.186 98.4153C182.429 97.9491 182.658 97.5088 182.872 97.0963C183.303 96.279 183.674 95.573 183.982 94.9891C184.284 94.425 184.521 93.981 184.692 93.6622C184.77 93.5218 184.833 93.409 184.882 93.3199C184.927 93.2446 184.951 93.2062 184.955 93.2081Z" fill="#284159"/>
<path d="M181.235 100.579C181.169 100.597 180.783 99.3779 180.309 97.8764C179.837 96.3735 179.454 95.1543 179.518 95.1317C179.58 95.1095 180.065 96.2968 180.54 97.8048C181.015 99.3114 181.298 100.562 181.235 100.579Z" fill="#284159"/>
<path d="M194.488 135.759C194.48 135.76 194.462 135.675 194.436 135.514C194.41 135.325 194.377 135.09 194.336 134.805C194.255 134.154 194.145 133.27 194.011 132.193C193.757 129.954 193.412 126.92 193.031 123.567C192.657 120.196 192.34 117.142 192.154 114.928C192.062 113.847 191.987 112.96 191.932 112.306C191.913 112.019 191.897 111.783 191.884 111.592C191.876 111.429 191.876 111.342 191.884 111.342C191.892 111.341 191.909 111.426 191.933 111.588C191.957 111.777 191.988 112.011 192.026 112.297C192.1 112.949 192.201 113.834 192.324 114.912C192.57 117.151 192.903 120.187 193.272 123.542C193.625 126.897 193.946 129.933 194.182 132.174C194.284 133.254 194.368 134.141 194.43 134.794C194.452 135.082 194.47 135.318 194.485 135.508C194.495 135.672 194.496 135.758 194.488 135.759Z" fill="#284159"/>
<path d="M189.969 33.801C189.698 31.9743 191.287 30.1752 193.128 29.9553C194.969 29.7354 196.813 30.9038 197.661 32.5467C198.508 34.1895 198.449 36.1965 197.798 37.9253C197.358 39.0932 196.477 40.2787 195.228 40.3702C194.025 40.458 193.025 39.5141 192.197 38.6409" fill="black"/>
<path d="M176.908 42.9549C173.21 34.8565 182.006 30.7882 186.806 32.1377C191.317 33.4063 193.241 35.6415 193.983 38.6454C194.725 41.6507 194.69 44.9055 193.507 47.7676C192.924 49.179 191.873 50.613 190.351 50.7891" fill="black"/>
<path d="M189.683 36.6403C190.474 36.7235 191.07 37.3962 191.054 38.1885L190.186 58.8029C190.153 61.2372 186.582 62.613 183.964 62.5581C181.321 62.5026 181.233 61.2118 181.194 58.8963C181.13 55.027 181.132 53.5745 181.13 53.5967C181.13 53.5967 177.79 53.0446 177.098 48.705C176.753 46.547 176.862 43.0085 177.045 40.1164C177.21 37.513 178.943 34.3188 181.547 34.5932L189.683 36.6403Z" fill="#FFBE9D"/>
<path d="M178.736 42.5826C178.725 42.8764 178.967 43.1278 179.275 43.1439C179.582 43.1601 179.84 42.936 179.851 42.6422C179.861 42.3484 179.62 42.097 179.313 42.0804C179.004 42.0642 178.746 42.2888 178.736 42.5826Z" fill="black"/>
<path d="M177.816 41.9569C177.886 42.0295 178.309 41.7176 178.911 41.719C179.511 41.7121 179.953 42.0202 180.018 41.9468C180.05 41.9144 179.98 41.7832 179.788 41.6437C179.598 41.5051 179.276 41.3702 178.901 41.3716C178.526 41.3734 178.211 41.5111 178.03 41.6516C177.845 41.7929 177.782 41.9241 177.816 41.9569Z" fill="black"/>
<path d="M184.615 42.5826C184.605 42.8764 184.847 43.1278 185.154 43.1439C185.462 43.1601 185.72 42.936 185.73 42.6422C185.741 42.3484 185.499 42.097 185.192 42.0804C184.884 42.0642 184.626 42.2888 184.615 42.5826Z" fill="black"/>
<path d="M183.728 42.0688C183.798 42.1413 184.221 41.8295 184.823 41.8309C185.424 41.8239 185.865 42.1321 185.93 42.0586C185.962 42.0263 185.892 41.8951 185.7 41.756C185.51 41.6174 185.188 41.4825 184.813 41.4839C184.439 41.4862 184.124 41.6234 183.942 41.7639C183.757 41.9048 183.694 42.036 183.728 42.0688Z" fill="black"/>
<path d="M181.546 46.51C181.548 46.4758 181.174 46.4116 180.569 46.3344C180.415 46.3187 180.27 46.2882 180.244 46.1838C180.208 46.0734 180.272 45.9084 180.347 45.7306C180.491 45.3605 180.642 44.9729 180.801 44.5663C181.431 42.9082 181.888 41.5453 181.821 41.5204C181.753 41.4954 181.187 42.8195 180.557 44.4772C180.405 44.886 180.26 45.2755 180.122 45.6483C180.064 45.822 179.963 46.0193 180.042 46.2485C180.083 46.3626 180.196 46.4457 180.294 46.4721C180.393 46.5021 180.479 46.5035 180.555 46.5081C181.165 46.5414 181.543 46.5437 181.546 46.51Z" fill="black"/>
<path d="M181.13 53.5969C181.13 53.5969 184.062 53.7854 186.967 52.0469C186.967 52.0469 185.551 55.0277 181.189 54.6216L181.13 53.5969Z" fill="#EB996E"/>
<path d="M181.8 47.9533C182.016 47.6687 182.395 47.5121 182.771 47.5527C183.033 47.5805 183.296 47.7061 183.454 47.9177C183.613 48.1293 183.646 48.4296 183.502 48.6315C183.34 48.8588 183.001 48.911 182.714 48.8302C182.427 48.7489 182.18 48.5608 181.945 48.3733C181.88 48.3215 181.814 48.2675 181.773 48.1963C181.733 48.1252 181.724 48.0323 181.774 47.9732" fill="#EB996E"/>
<path d="M183.316 46.9239C183.218 46.9183 183.217 47.5684 182.658 48.0295C182.1 48.4924 181.404 48.4194 181.399 48.5104C181.39 48.5511 181.554 48.6365 181.848 48.6444C182.136 48.6541 182.557 48.5621 182.899 48.2799C183.24 47.9971 183.386 47.6192 183.409 47.3526C183.433 47.0814 183.36 46.9202 183.316 46.9239Z" fill="black"/>
<path d="M183.458 41.02C183.517 41.1826 184.118 41.1054 184.823 41.1904C185.531 41.2611 186.1 41.4667 186.193 41.3207C186.235 41.251 186.136 41.0976 185.906 40.94C185.678 40.7825 185.314 40.6333 184.89 40.5862C184.466 40.54 184.079 40.6069 183.822 40.7114C183.563 40.8148 183.432 40.9428 183.458 41.02Z" fill="black"/>
<path d="M178.037 40.2238C178.143 40.3596 178.557 40.2187 179.056 40.2118C179.554 40.1878 179.976 40.3033 180.073 40.161C180.116 40.0917 180.049 39.9558 179.865 39.8269C179.683 39.6985 179.379 39.5936 179.037 39.6043C178.694 39.6149 178.398 39.7382 178.225 39.8778C178.048 40.0177 177.991 40.1577 178.037 40.2238Z" fill="black"/>
<path d="M183.711 33.1478C182.123 33.2005 180.918 33.6814 179.524 34.4409C178.13 35.2005 176.964 36.4539 176.535 37.9775C176.444 38.3009 176.392 38.6696 176.57 38.9547C176.804 39.3317 177.359 39.394 177.765 39.2111C178.171 39.0286 178.462 38.6673 178.737 38.3185C178.943 39.1145 179.736 39.7197 180.562 39.7105C181.388 39.7013 182.167 39.079 182.355 38.2783C182.362 39.1113 183.199 39.8001 184.035 39.7706C184.872 39.7405 185.612 39.0984 185.89 38.3125C186.046 39.0531 186.212 39.8177 186.657 40.4312C187.102 41.0443 187.908 41.4661 188.63 41.2314C188.528 41.8782 188.429 42.5592 188.659 43.1723C188.89 43.7853 189.815 54.2215 190.436 54.0089C191.04 53.8024 191.034 43.151 191.175 42.531C191.447 41.3358 191.68 40.1189 191.642 38.8942C191.604 37.6689 191.275 36.4229 190.52 35.4546C189.74 34.4525 188.557 33.8172 187.326 33.4934C186.094 33.1695 184.806 33.1335 183.533 33.1496" fill="black"/>
<path d="M192.444 52.1551C192.447 52.163 192.402 52.1838 192.311 52.2166C192.222 52.2494 192.084 52.2877 191.903 52.3132C191.545 52.37 190.998 52.3667 190.373 52.1584C189.755 51.9583 189.041 51.5134 188.581 50.7594C188.107 50.0175 187.928 49.0279 188.007 48.0424C188.079 47.0514 188.308 46.1459 188.416 45.3134C188.535 44.4804 188.588 43.7232 188.61 43.087C188.631 42.4504 188.623 41.9339 188.615 41.5767C188.607 41.2196 188.602 41.0214 188.62 41.02C188.635 41.0186 188.672 41.2141 188.709 41.5712C188.746 41.9283 188.78 42.4471 188.781 43.0898C188.781 43.7324 188.744 44.4984 188.637 45.343C188.538 46.1898 188.316 47.099 188.248 48.0591C188.172 49.014 188.337 49.9426 188.77 50.6444C189.191 51.3559 189.844 51.7856 190.43 51.9985C191.02 52.2175 191.542 52.2475 191.893 52.2208C192.247 52.194 192.438 52.1339 192.444 52.1551Z" fill="black"/>
<path d="M182.176 32.5886C182.196 32.578 182.39 32.9536 182.401 33.6189C182.419 34.2698 182.19 35.2312 181.472 35.9788C180.749 36.7216 179.793 36.985 179.138 36.9919C178.47 37.0053 178.085 36.8265 178.096 36.8062C178.104 36.7637 178.497 36.8783 179.128 36.8219C179.749 36.7729 180.63 36.498 181.298 35.8115C181.962 35.1213 182.204 34.2347 182.23 33.6147C182.263 32.985 182.133 32.5992 182.176 32.5886Z" fill="#284159"/>
<path d="M182.824 37.6978C182.848 37.7015 182.794 37.9972 182.46 38.3178C182.136 38.6357 181.52 38.9189 180.816 38.8768C180.118 38.8311 179.549 38.5437 179.177 38.3164C178.802 38.0836 178.601 37.9006 178.618 37.8752C178.638 37.8452 178.873 37.9783 179.259 38.1672C179.643 38.3525 180.193 38.5955 180.831 38.6366C181.464 38.674 182.028 38.4458 182.348 38.1889C182.677 37.933 182.787 37.6784 182.824 37.6978Z" fill="#284159"/>
<path d="M193.325 36.3731C193.353 36.3759 193.356 36.8309 193.242 37.56C193.125 38.2788 192.875 39.3123 192.175 40.234C191.464 41.1566 190.428 41.6043 189.678 41.6496C189.3 41.6764 188.994 41.6279 188.795 41.5627C188.595 41.4994 188.494 41.4412 188.499 41.4283C188.511 41.3802 188.946 41.5752 189.659 41.48C190.361 41.3955 191.318 40.951 191.984 40.0871C192.646 39.2167 192.917 38.228 193.075 37.5272C193.229 36.8189 193.287 36.3685 193.325 36.3731Z" fill="#284159"/>
<path d="M194.123 38.4776C194.139 38.4762 194.167 38.6055 194.192 38.843C194.217 39.0805 194.237 39.426 194.217 39.8548C194.177 40.6947 193.95 41.9486 193.056 42.9677C192.615 43.469 192.067 43.8395 191.509 44.0165C190.951 44.1957 190.411 44.1943 189.983 44.1084C189.552 44.0192 189.232 43.8529 189.036 43.7102C188.839 43.5674 188.756 43.4598 188.764 43.451C188.79 43.408 189.183 43.8127 190.013 43.9407C190.42 44.0008 190.925 43.9837 191.439 43.8063C191.951 43.6316 192.459 43.2819 192.874 42.8093C193.717 41.8506 193.965 40.6633 194.048 39.8418C194.125 39.0065 194.082 38.4799 194.123 38.4776Z" fill="#284159"/>
<path d="M132.965 94.3185L124.54 113.494H136.137L144.395 94.166L132.965 94.3185Z" fill="#284159"/>
<path d="M126.837 73.9294L136.339 92.5285H166.294L165.082 90.0989L156.403 89.842L149.33 74.1608C148.89 73.186 147.917 72.5586 146.844 72.5586H127.682C126.975 72.5581 126.517 73.3015 126.837 73.9294Z" fill="#C9D9F5"/>
<path d="M141.838 82.2578C141.838 82.888 141.325 83.399 140.692 83.399C140.059 83.399 139.546 82.888 139.546 82.2578C139.546 81.6277 140.059 81.1167 140.692 81.1167C141.326 81.1167 141.838 81.6277 141.838 82.2578Z" fill="black"/>
<path d="M169.486 92.5581H132.867V94.3368H169.486V92.5581Z" fill="#284159"/>
<path d="M158.208 93.4473L169.346 113.513H174.675L175.831 111.218L176.901 108.8L169.486 94.3362L158.208 93.4473Z" fill="#284159"/>
<path d="M177.564 59.0498C177.564 59.0498 171.095 61.3173 169.704 68.5231L176.535 71.9156L177.564 59.0498Z" fill="#165AD4"/>
<path d="M177.564 59.0501C177.564 59.0501 173.037 69.1494 173.21 74.662C173.27 76.5816 174.535 81.5777 174.535 81.5777L176.885 93.9907C176.885 93.9907 194.893 91.5624 195.294 91.5624C195.694 91.5624 194.692 81.3776 194.692 81.3776L197.627 61.8022C197.627 61.8022 196.281 59.136 190.21 58.2125C186.562 57.6581 177.564 59.0501 177.564 59.0501Z" fill="#165AD4"/>
<path d="M175.875 64.9119C175.917 64.9364 175.442 65.6853 174.873 66.9886C174.585 67.6382 174.298 68.4351 174.037 69.3356C173.789 70.2402 173.575 71.2501 173.447 72.3247C173.33 73.4007 173.313 74.4333 173.351 75.3702C173.405 76.3062 173.505 77.1471 173.641 77.8442C173.902 79.2409 174.198 80.0766 174.152 80.0909C174.136 80.0965 174.055 79.8904 173.923 79.5125C173.853 79.324 173.776 79.0916 173.706 78.8158C173.633 78.5405 173.537 78.23 173.473 77.877C173.316 77.1771 173.196 76.3293 173.13 75.3822C173.078 74.4347 173.089 73.3878 173.207 72.2975C173.336 71.2085 173.561 70.1861 173.823 69.2741C174.1 68.3658 174.407 67.5661 174.718 66.9188C174.859 66.589 175.023 66.3076 175.155 66.0554C175.285 65.8017 175.413 65.5924 175.522 65.4243C175.736 65.0856 175.861 64.9031 175.875 64.9119Z" fill="black"/>
<path d="M179.752 58.9545L180.014 56.1903C180.071 55.593 180.57 55.1333 181.173 55.1236L190.058 54.9933C190.618 54.985 191.087 55.4123 191.13 55.9681L191.359 58.9545C191.359 58.9545 190.403 61.2982 187.792 62.5595C185.18 63.8207 181.119 63.8618 181.119 63.8618L179.752 58.9545Z" fill="#165AD4"/>
<path d="M182.078 55.1433C182.107 55.1687 181.975 55.323 181.92 55.6242C181.856 55.925 181.9 56.3569 181.937 56.8531C182.004 57.8386 182.004 58.6406 181.938 58.6452C181.872 58.6498 181.764 57.8547 181.697 56.8693C181.661 56.3842 181.639 55.9106 181.755 55.5812C181.865 55.2477 182.063 55.1202 182.078 55.1433Z" fill="black"/>
<path d="M184.206 58.5722C184.139 58.5759 184.04 57.7979 183.985 56.8346C183.963 56.3532 183.929 55.9185 183.975 55.5872C184.021 55.2551 184.158 55.0832 184.184 55.1003C184.216 55.1165 184.144 55.2962 184.145 55.6002C184.144 55.9009 184.203 56.3384 184.226 56.8208C184.281 57.784 184.272 58.5681 184.206 58.5722Z" fill="black"/>
<path d="M186.874 58.4989C186.808 58.5076 186.653 57.7509 186.528 56.8089C186.403 55.8664 186.355 55.0958 186.422 55.087C186.487 55.0782 186.643 55.835 186.767 56.7774C186.892 57.7195 186.94 58.4901 186.874 58.4989Z" fill="black"/>
<path d="M189.178 58.6934C189.114 58.7045 188.923 57.8756 188.843 56.8324C188.762 55.7892 188.825 54.9415 188.89 54.9424C188.959 54.9428 189.004 55.7828 189.084 56.8139C189.161 57.8451 189.245 58.6823 189.178 58.6934Z" fill="black"/>
<g opacity="0.3">
<path d="M190.939 69.2563C190.585 72.3693 190.819 77.7243 191.922 80.6585L197.11 72.1272L190.939 69.2563Z" fill="black"/>
</g>
<path d="M197.146 61.1738L197.17 61.1997C198.641 62.7377 199.719 64.606 200.31 66.6467L201.263 70.9849L191.054 72.558C191.054 72.558 190.175 70.1431 190.665 66.874C191.155 63.6049 197.146 61.1738 197.146 61.1738Z" fill="#165AD4"/>
<path d="M201.264 70.985C201.265 70.9924 201.195 71.0099 201.062 71.0367C200.904 71.0654 200.71 71.101 200.475 71.1435C199.929 71.2322 199.193 71.3518 198.29 71.4987C196.399 71.7852 193.817 72.1765 190.895 72.6191L190.763 72.639L190.758 72.5059C190.734 71.8933 190.717 71.2534 190.706 70.6006C190.681 68.8926 190.684 67.2636 190.804 65.7815C190.892 64.2883 191.381 62.9799 191.993 62.0305C192.606 61.0714 193.347 60.4805 193.895 60.1719C194.17 60.0153 194.396 59.9164 194.554 59.8656C194.712 59.8115 194.795 59.787 194.798 59.7949C194.808 59.8198 194.472 59.9233 193.944 60.2518C193.42 60.5794 192.717 61.1744 192.137 62.1206C191.559 63.0617 191.101 64.3313 191.026 65.7995C190.919 67.2668 190.923 68.8931 190.948 70.5965C190.964 71.2474 190.981 71.8864 190.997 72.4967L190.86 72.3839C193.788 71.9728 196.373 71.6096 198.268 71.343C199.174 71.2257 199.914 71.1301 200.463 71.0589C200.7 71.0326 200.895 71.0109 201.056 70.9933C201.191 70.9804 201.263 70.9776 201.264 70.985Z" fill="black"/>
<path d="M179.703 64.6142C179.659 64.6641 179.022 64.174 178.282 63.5193C177.541 62.8647 176.976 62.2941 177.02 62.2446C177.064 62.1952 177.701 62.6849 178.442 63.3396C179.183 63.9938 179.748 64.5648 179.703 64.6142Z" fill="white"/>
<path d="M178.325 69.9626C178.36 70.019 177.8 70.4283 177.074 70.8769C176.348 71.3255 175.731 71.6429 175.696 71.5866C175.66 71.5302 176.22 71.1209 176.946 70.6723C177.673 70.2237 178.29 69.9058 178.325 69.9626Z" fill="white"/>
<path d="M184.016 71.277C183.95 71.2728 183.949 70.3881 184.015 69.301C184.081 68.2134 184.188 67.3352 184.254 67.3389C184.321 67.343 184.321 68.2278 184.256 69.3153C184.19 70.4029 184.083 71.2811 184.016 71.277Z" fill="white"/>
<path d="M189.554 76.6239C189.497 76.6636 188.969 75.9988 188.262 75.2319C187.558 74.4617 186.94 73.8782 186.985 73.8256C187.026 73.7761 187.724 74.2862 188.44 75.0697C189.159 75.85 189.607 76.5883 189.554 76.6239Z" fill="white"/>
<path d="M190.334 65.4486C190.371 65.5036 189.765 65.9739 188.981 66.4983C188.196 67.0231 187.53 67.4038 187.493 67.3484C187.456 67.2929 188.061 66.8231 188.846 66.2987C189.631 65.7743 190.297 65.3937 190.334 65.4486Z" fill="white"/>
<path d="M185.333 61.4047C185.369 61.4606 184.708 61.9471 183.856 62.4913C183.004 63.0355 182.285 63.431 182.249 63.3751C182.213 63.3192 182.874 62.8327 183.726 62.2885C184.577 61.7447 185.297 61.3488 185.333 61.4047Z" fill="white"/>
<path d="M189.842 63.0125C189.78 63.037 189.465 62.3865 189.138 61.5595C188.811 60.7325 188.596 60.0427 188.659 60.0182C188.721 59.9938 189.036 60.6443 189.363 61.4712C189.69 62.2978 189.904 62.988 189.842 63.0125Z" fill="white"/>
<path d="M196.045 65.0381C195.997 65.0853 195.534 64.7009 195.009 64.1798C194.483 63.6586 194.096 63.198 194.143 63.1509C194.19 63.1038 194.654 63.4881 195.179 64.0093C195.704 64.5304 196.092 64.991 196.045 65.0381Z" fill="white"/>
<path d="M193.5 69.5433C193.433 69.547 193.345 68.915 193.301 68.1324C193.257 67.3493 193.276 66.7117 193.343 66.708C193.409 66.7043 193.498 67.3359 193.542 68.119C193.585 68.9016 193.567 69.5396 193.5 69.5433Z" fill="white"/>
<path d="M198.644 68.61C198.641 68.6747 197.909 68.6927 197.021 68.5564C196.132 68.4225 195.439 68.1878 195.456 68.1249C195.473 68.0589 196.182 68.1864 197.057 68.3185C197.932 68.4529 198.647 68.5417 198.644 68.61Z" fill="white"/>
<path d="M177.855 77.9199C177.795 77.9481 177.378 77.1937 176.923 76.235C176.468 75.2759 176.148 74.4757 176.209 74.4475C176.269 74.4194 176.687 75.1733 177.141 76.1325C177.596 77.0911 177.916 77.8913 177.855 77.9199Z" fill="white"/>
<path d="M184.648 85.2094C184.595 85.2487 184.089 84.6462 183.519 83.865C182.949 83.0833 182.531 82.418 182.585 82.3787C182.639 82.3399 183.145 82.9414 183.714 83.7236C184.284 84.5053 184.703 85.1706 184.648 85.2094Z" fill="white"/>
<path d="M190.305 82.1524C190.33 82.2143 189.64 82.5373 188.765 82.8732C187.89 83.2095 187.161 83.4317 187.137 83.3693C187.113 83.3074 187.803 82.9845 188.678 82.6486C189.552 82.3128 190.281 82.0905 190.305 82.1524Z" fill="white"/>
<path d="M176.425 88.0595C176.365 88.0322 176.564 87.4635 176.871 86.7899C177.177 86.1158 177.475 85.5919 177.536 85.6192C177.597 85.6464 177.397 86.2152 177.091 86.8888C176.784 87.5628 176.486 88.0867 176.425 88.0595Z" fill="white"/>
<path d="M172.059 67.181C172.002 67.2078 171.722 66.6987 171.611 66.0006C171.496 65.3025 171.601 64.7319 171.664 64.7393C171.734 64.7444 171.739 65.2974 171.849 65.9622C171.954 66.6275 172.123 67.1542 172.059 67.181Z" fill="white"/>
<path d="M179.812 83.3842C179.779 83.4424 179.163 83.1629 178.435 82.7605C177.707 82.3577 177.144 81.9844 177.176 81.9266C177.209 81.8684 177.825 82.1479 178.553 82.5503C179.28 82.9527 179.844 83.326 179.812 83.3842Z" fill="white"/>
<path d="M184.293 75.684C184.338 75.7335 183.787 76.304 183.061 76.9587C182.335 77.6133 181.711 78.1045 181.666 78.055C181.622 78.0056 182.173 77.435 182.899 76.7804C183.624 76.1257 184.248 75.6351 184.293 75.684Z" fill="white"/>
<g opacity="0.3">
<path d="M181.548 75.541C181.839 77.1289 182.45 78.714 183.613 79.839C184.776 80.964 186.568 81.5332 188.078 80.945C188.396 80.8217 188.724 80.6133 188.798 80.2825C188.885 79.9 188.578 79.5211 188.215 79.3691C187.851 79.2171 187.444 79.2287 187.051 79.2074C184.807 79.0846 182.674 77.7101 181.643 75.7221" fill="black"/>
</g>
<path d="M187.582 79.2653C187.584 79.2819 187.473 79.3004 187.27 79.3193C187.068 79.3438 186.771 79.3397 186.409 79.3004C186.045 79.2648 185.618 79.166 185.16 79.008C184.706 78.8389 184.225 78.6037 183.763 78.2886C183.305 77.9671 182.915 77.5998 182.598 77.2357C182.289 76.8638 182.047 76.4998 181.887 76.1727C181.723 75.8479 181.616 75.5725 181.568 75.3752C181.515 75.1794 181.494 75.0699 181.51 75.0652C181.553 75.0518 181.68 75.4797 182.036 76.0913C182.211 76.3986 182.459 76.74 182.765 77.0907C183.081 77.4339 183.46 77.7818 183.9 78.0918C184.346 78.3949 184.805 78.6268 185.238 78.801C185.675 78.9645 186.083 79.0773 186.433 79.1327C187.132 79.2514 187.58 79.2209 187.582 79.2653Z" fill="black"/>
<path d="M162.037 86.7109L168.758 85.9066L173.494 88.9987L191.605 84.6767L192.033 72.333L200.075 71.2773V86.2235C199.994 90.0258 196.82 93.0352 193.002 92.9304L166.477 92.199L165.351 89.9514L159.66 89.7828L162.037 86.7109Z" fill="#FFBE9D"/>
<path d="M191.375 84.6767C191.377 84.6836 191.26 84.7192 191.035 84.7797C190.792 84.843 190.464 84.928 190.05 85.0352C189.172 85.2528 187.935 85.5596 186.416 85.937C183.325 86.6827 179.088 87.7051 174.407 88.8342C174.032 88.9239 173.659 89.0126 173.29 89.1008L173.246 89.1114L173.208 89.0865C171.533 87.9897 169.938 86.9451 168.476 85.9879L168.541 86.0031C165.882 86.309 163.579 86.5737 161.816 86.777L161.86 86.752C161.109 87.7019 160.509 88.46 160.085 88.9964C159.884 89.2436 159.726 89.4395 159.606 89.5873C159.495 89.7199 159.436 89.7869 159.431 89.7832C159.426 89.7795 159.476 89.7051 159.577 89.5651C159.689 89.4122 159.839 89.2094 160.029 88.9534C160.441 88.4078 161.025 87.6377 161.756 86.6721L161.772 86.6504L161.8 86.6467C163.561 86.4277 165.861 86.1417 168.517 85.8114L168.552 85.8072L168.582 85.8266C170.047 86.7802 171.645 87.8197 173.323 88.9119L173.24 88.8975C173.609 88.8093 173.982 88.7206 174.358 88.631C179.044 87.5249 183.287 86.5233 186.381 85.7934C187.908 85.4432 189.149 85.1586 190.031 84.9567C190.448 84.8657 190.78 84.7931 191.026 84.7395C191.253 84.691 191.374 84.6693 191.375 84.6767Z" fill="#EB996E"/>
<path d="M165.709 88.6283C165.709 88.686 164.54 88.7332 163.098 88.7332C162.935 88.7327 162.776 88.7318 162.621 88.7313L162.688 88.7068C161.757 89.4834 161.029 90.0429 160.995 90.0037C160.962 89.9644 161.634 89.3398 162.554 88.5493L162.582 88.5248H162.62C162.776 88.5243 162.935 88.5234 163.098 88.5229C164.54 88.5234 165.709 88.5705 165.709 88.6283Z" fill="#EB996E"/>
<path d="M194.711 86.6925C194.655 86.7267 194.306 85.8812 193.391 85.3213C192.488 84.7419 191.572 84.7946 191.578 84.7299C191.576 84.7064 191.798 84.6546 192.163 84.6842C192.526 84.7119 193.027 84.8463 193.503 85.1434C193.978 85.4423 194.317 85.8341 194.499 86.1478C194.684 86.4629 194.733 86.6846 194.711 86.6925Z" fill="#EB996E"/>
<path d="M78.6724 185.388H48.3723V189.534H78.6724V185.388Z" fill="black"/>
<path d="M78.7241 189.585H48.3209V185.336H78.7241V189.585ZM48.4244 189.482H78.6206V185.439H48.4244V189.482Z" fill="black"/>
<path d="M51.1815 188.154L55.5431 209.577H71.6806L75.8965 189.533L51.1815 188.154Z" fill="black"/>
<path d="M51.1815 207.551L53.508 210.735H73.1227L75.8965 207.551H51.1815Z" fill="#284159"/>
<path d="M62.3839 188.779C62.3246 188.779 62.2482 178.855 62.2135 166.614C62.1787 154.369 62.1991 144.446 62.2589 144.446C62.3181 144.446 62.3945 154.369 62.4293 166.613C62.464 178.854 62.4436 188.779 62.3839 188.779Z" fill="black"/>
<path d="M69.1341 163.942C69.1406 163.946 69.1123 164.025 69.0529 164.173C68.9819 164.342 68.8923 164.555 68.7824 164.816C68.722 164.957 68.6561 165.112 68.5847 165.279C68.522 165.453 68.4548 165.641 68.3828 165.842C68.3095 166.045 68.2316 166.26 68.1495 166.488C68.0683 166.717 68.0047 166.967 67.9253 167.225C67.5945 168.253 67.3314 169.515 67.0781 170.919C66.8577 172.329 66.692 173.892 66.609 175.538C66.4614 178.834 66.6484 181.823 66.8484 183.976C66.9458 185.053 67.0437 185.924 67.1161 186.524C67.1472 186.806 67.1727 187.036 67.1927 187.217C67.208 187.376 67.2122 187.46 67.2048 187.461C67.1973 187.462 67.1788 187.38 67.1495 187.224C67.1189 187.043 67.0804 186.815 67.0331 186.536C66.9352 185.937 66.8141 185.069 66.6967 183.991C66.4577 181.838 66.2452 178.84 66.3932 175.528C66.4767 173.874 66.6493 172.303 66.8818 170.886C67.1472 169.475 67.4279 168.21 67.7792 167.18C67.8636 166.921 67.9328 166.672 68.0195 166.443C68.1077 166.216 68.1912 166.001 68.2701 165.799C68.3481 165.6 68.4214 165.413 68.4896 165.239C68.5643 165.07 68.6408 164.919 68.7053 164.782C68.8306 164.527 68.9327 164.319 69.0134 164.155C69.0863 164.012 69.1271 163.939 69.1341 163.942Z" fill="black"/>
<path d="M68.3592 155.915C68.3662 155.918 68.3328 156.031 68.2627 156.242C68.1843 156.472 68.0794 156.779 67.9472 157.165C67.8766 157.367 67.7996 157.588 67.7156 157.83C67.6405 158.077 67.5588 158.345 67.472 158.631C67.2948 159.205 67.0892 159.858 66.9069 160.592C66.8099 160.958 66.7083 161.341 66.603 161.74C66.512 162.143 66.4169 162.562 66.319 162.995C66.1074 163.859 65.9548 164.797 65.7594 165.777C65.4253 167.749 65.1312 169.928 64.9284 172.226C64.7368 174.527 64.6537 176.725 64.624 178.725C64.618 180.725 64.6435 182.527 64.7261 184.037C64.753 184.794 64.8017 185.476 64.8407 186.076C64.8755 186.676 64.9135 187.193 64.9521 187.614C64.9831 188.021 65.0077 188.345 65.0263 188.586C65.0407 188.809 65.0449 188.926 65.0374 188.927C65.03 188.928 65.0114 188.812 64.9831 188.591C64.9544 188.349 64.9163 188.027 64.8685 187.622C64.817 187.201 64.7669 186.685 64.7205 186.085C64.6699 185.485 64.6105 184.802 64.5739 184.045C64.4718 182.533 64.4305 180.728 64.4254 178.723C64.444 176.718 64.5215 174.515 64.7131 172.208C64.9163 169.903 65.2175 167.718 65.5631 165.742C65.7645 164.76 65.9241 163.82 66.1441 162.955C66.2466 162.521 66.3454 162.103 66.441 161.699C66.5515 161.301 66.6577 160.918 66.7593 160.552C66.9519 159.819 67.1681 159.167 67.3565 158.595C67.4498 158.31 67.537 158.044 67.6177 157.797C67.7087 157.557 67.7917 157.337 67.8678 157.137C68.0158 156.756 68.1337 156.453 68.2219 156.226C68.3054 156.02 68.3522 155.912 68.3592 155.915Z" fill="black"/>
<path d="M60.468 190.536C60.4643 190.536 60.4587 190.496 60.4508 190.42C60.4434 190.33 60.4341 190.218 60.422 190.078C60.4007 189.762 60.3705 189.322 60.333 188.764C60.2601 187.606 60.1566 185.959 60.029 183.929C59.7659 179.849 59.3855 174.21 58.696 168.009C58.3433 164.909 57.935 161.965 57.51 159.296C57.284 157.963 57.0794 156.695 56.8465 155.516C56.6335 154.332 56.4038 153.237 56.1922 152.237C55.9932 151.234 55.7709 150.336 55.5927 149.544C55.4173 148.751 55.2475 148.072 55.1055 147.518C54.9719 146.975 54.8666 146.547 54.7909 146.239C54.7594 146.102 54.7343 145.992 54.7144 145.905C54.6981 145.829 54.6916 145.79 54.6954 145.789C54.6991 145.788 54.7125 145.826 54.7357 145.899C54.7612 145.985 54.7933 146.093 54.8332 146.228C54.9185 146.533 55.0369 146.957 55.1872 147.497C55.3417 148.048 55.5236 148.725 55.7106 149.516C55.9004 150.306 56.1333 151.202 56.3421 152.204C56.5634 153.204 56.8019 154.299 57.0228 155.482C57.2631 156.662 57.4747 157.93 57.7067 159.264C58.1429 161.935 58.5582 164.882 58.9108 167.985C59.6012 174.192 59.9576 179.836 60.1817 183.92C60.293 185.963 60.3705 187.616 60.4169 188.759C60.4378 189.319 60.4541 189.759 60.4657 190.075C60.4684 190.216 60.4712 190.329 60.4731 190.418C60.4735 190.495 60.4717 190.535 60.468 190.536Z" fill="black"/>
<path d="M62.1375 149.217C62.0057 147.812 60.5789 146.751 59.1605 146.736C57.742 146.722 56.4206 147.568 55.5529 148.686C54.6857 149.803 54.2073 151.167 53.8157 152.524C52.8608 155.837 52.3383 159.317 52.7471 162.74C53.1554 166.162 54.5497 169.532 57.0163 171.949C57.4172 172.342 57.9369 172.736 58.4872 172.619C58.7879 172.555 59.0347 172.347 59.263 172.141C64.1081 167.783 66.906 161.256 66.7144 154.758C66.6759 153.456 66.5047 152.102 65.7808 151.018C65.057 149.934 63.3694 148.782 62.1375 149.217Z" fill="#165AD4"/>
<path d="M51.5471 137.955C50.8813 139.156 50.2155 140.357 49.5496 141.557C49.5032 141.641 49.4415 141.735 49.3455 141.743C49.2406 141.752 49.1622 141.653 49.1046 141.565C47.3442 138.876 45.5838 136.185 43.8239 133.496L45.0405 132.809L51.5471 137.955Z" fill="#165AD4"/>
<g opacity="0.2">
<path d="M51.5471 137.955C50.8813 139.156 50.2155 140.357 49.5496 141.557C49.5032 141.641 49.4415 141.735 49.3455 141.743C49.2406 141.752 49.1622 141.653 49.1046 141.565C47.3442 138.876 45.5838 136.185 43.8239 133.496L45.0405 132.809L51.5471 137.955Z" fill="black"/>
</g>
<path d="M62.2591 144.446C56.2544 140.918 50.2494 137.39 44.2447 133.861C44.061 133.754 43.8619 133.626 43.8062 133.421C43.7343 133.156 43.9343 132.9 44.1269 132.702C46.6046 130.157 50.2034 128.682 53.7539 128.937C57.3045 129.191 60.719 131.233 62.4572 134.326C64.1953 137.419 64.2533 141.509 62.2591 144.446Z" fill="#165AD4"/>
<path d="M46.8413 130.483C46.8408 130.476 46.922 130.466 47.0775 130.454C47.2329 130.446 47.4621 130.418 47.7582 130.422C48.3498 130.407 49.211 130.446 50.2577 130.619C51.3041 130.791 52.5332 131.126 53.8176 131.696C55.101 132.263 56.4289 133.085 57.6386 134.164C58.8385 135.256 59.792 136.49 60.4871 137.705C61.1849 138.92 61.6424 140.105 61.9181 141.124C62.1955 142.144 62.3199 142.993 62.3644 143.581C62.3969 143.874 62.3918 144.104 62.3997 144.259C62.4029 144.414 62.4016 144.495 62.3941 144.495C62.3751 144.496 62.3524 144.171 62.2809 143.59C62.2113 143.008 62.0647 142.17 61.771 141.166C61.2016 139.168 59.8792 136.475 57.4938 134.324C55.107 132.176 52.284 131.134 50.2308 130.769C49.198 130.578 48.3461 130.516 47.7577 130.505C47.1689 130.492 46.8422 130.502 46.8413 130.483Z" fill="black"/>
<path d="M59.8208 137.141C59.831 137.168 59.4844 137.328 58.9099 137.553C58.336 137.778 57.5342 138.066 56.6368 138.35C55.7394 138.633 54.9172 138.859 54.3182 139.005C53.7187 139.151 53.3429 139.22 53.3355 139.192C53.3276 139.162 53.6895 139.041 54.2769 138.858C54.9409 138.652 55.7153 138.411 56.5714 138.145C57.4242 137.871 58.1963 137.622 58.8584 137.41C59.4449 137.222 59.8101 137.112 59.8208 137.141Z" fill="black"/>
<path d="M56.9843 129.553C57.0421 129.548 57.1695 130.442 57.1968 131.554C57.226 132.666 57.144 133.566 57.0857 133.563C57.025 133.561 57.0102 132.664 56.9815 131.56C56.9542 130.456 56.9236 129.559 56.9843 129.553Z" fill="black"/>
<path d="M44.0879 133.661C44.0795 133.634 44.5779 133.453 45.3964 133.203C46.2148 132.951 47.3544 132.633 48.6249 132.328C49.8962 132.023 51.0562 131.79 51.8998 131.642C52.7433 131.494 53.2695 131.429 53.2746 131.457C53.2802 131.487 52.7642 131.606 51.9299 131.791C51.0957 131.976 49.9436 132.233 48.6754 132.537C47.4083 132.841 46.2654 133.135 45.4376 133.349C44.6103 133.562 44.0967 133.69 44.0879 133.661Z" fill="black"/>
<path d="M53.953 145.889C52.4037 144.719 50.7653 144.489 48.8225 144.566C46.8798 144.642 44.9885 145.232 43.2077 146.008C40.1699 147.333 37.3149 149.286 35.4997 152.049C33.6845 154.813 33.053 158.471 34.4121 161.483C34.5476 161.783 34.7239 162.097 35.0273 162.226C35.347 162.363 35.7131 162.256 36.044 162.149C39.4989 161.027 42.978 159.894 46.155 158.136C49.3315 156.379 52.2232 153.936 53.9279 150.741C54.3367 149.974 54.6791 149.152 54.746 148.287C54.8123 147.421 54.572 146.501 53.953 145.889Z" fill="#165AD4"/>
<path d="M53.9836 145.526C53.9855 145.533 53.8996 145.568 53.7349 145.627C53.5479 145.691 53.308 145.773 53.0111 145.875C52.8515 145.928 52.6765 145.987 52.4868 146.049C52.2965 146.117 52.0942 146.202 51.8743 146.287C51.4372 146.463 50.9296 146.639 50.3955 146.897C50.125 147.02 49.8424 147.148 49.5483 147.281C49.2545 147.416 48.9613 147.582 48.6509 147.74C48.0245 148.046 47.3911 148.437 46.7165 148.834C45.3922 149.668 43.99 150.671 42.6258 151.854C41.2728 153.051 40.0942 154.309 39.0948 155.51C38.6136 156.126 38.1431 156.702 37.758 157.281C37.5617 157.568 37.359 157.836 37.1868 158.109C37.0165 158.383 36.8527 158.646 36.6964 158.897C36.3711 159.392 36.1312 159.871 35.9002 160.28C35.7879 160.486 35.6774 160.675 35.5856 160.855C35.4988 161.034 35.4185 161.199 35.3457 161.35C35.2065 161.63 35.0942 161.857 35.0065 162.033C34.9267 162.188 34.8817 162.269 34.8747 162.266C34.8678 162.263 34.8998 162.177 34.9666 162.016C35.0445 161.835 35.1452 161.603 35.2696 161.315C35.3378 161.161 35.4125 160.992 35.4937 160.809C35.5805 160.627 35.6858 160.434 35.7934 160.224C36.0152 159.808 36.2468 159.322 36.5655 158.819C36.7191 158.564 36.8801 158.297 37.0472 158.02C37.2165 157.743 37.417 157.471 37.6114 157.18C37.9923 156.593 38.4605 156.009 38.9407 155.386C39.9383 154.169 41.1211 152.899 42.4838 151.693C43.8578 150.502 45.2734 149.495 46.6125 148.665C47.2946 148.271 47.9354 147.883 48.5692 147.581C48.8833 147.427 49.1803 147.263 49.4777 147.131C49.7751 147.002 50.0614 146.877 50.3352 146.758C50.8762 146.507 51.3903 146.34 51.833 146.174C52.0557 146.095 52.2613 146.015 52.4538 145.952C52.6459 145.895 52.8236 145.843 52.9856 145.796C53.2881 145.71 53.5326 145.64 53.7229 145.586C53.8918 145.54 53.9818 145.519 53.9836 145.526Z" fill="black"/>
<path d="M41.8797 152.052C41.8964 152.109 40.2089 152.651 38.1111 153.261C36.0125 153.872 34.2984 154.321 34.2817 154.264C34.265 154.208 35.9521 153.666 38.0508 153.055C40.1481 152.444 41.8626 151.995 41.8797 152.052Z" fill="black"/>
<path d="M41.7246 160.333C41.6954 160.334 41.6616 159.887 41.6417 159.164C41.6218 158.441 41.6185 157.442 41.6495 156.339C41.6806 155.236 41.7398 154.238 41.8 153.517C41.8602 152.797 41.919 152.353 41.9482 152.354C41.9783 152.357 41.9737 152.804 41.9524 153.526C41.9278 154.318 41.8982 155.28 41.8653 156.345C41.8385 157.409 41.8144 158.372 41.7945 159.164C41.7746 159.886 41.7546 160.333 41.7246 160.333Z" fill="black"/>
<path d="M48.8476 156.719C48.7883 156.723 48.5989 154.693 48.4253 152.185C48.2512 149.675 48.1586 147.639 48.2179 147.635C48.2771 147.631 48.466 149.661 48.6401 152.17C48.8138 154.678 48.9068 156.715 48.8476 156.719Z" fill="black"/>
<path d="M39.9806 147.438C39.982 147.408 40.4437 147.396 41.1888 147.402C41.9336 147.407 42.9618 147.428 44.0972 147.466C45.2326 147.503 46.2599 147.549 47.0037 147.593C47.7475 147.637 48.2073 147.679 48.2064 147.708C48.2059 147.738 47.7452 147.75 47 147.744C46.2553 147.739 45.2261 147.718 44.0898 147.68C42.9539 147.643 41.9257 147.597 41.1819 147.553C40.4386 147.51 39.9792 147.468 39.9806 147.438Z" fill="black"/>
<path d="M57.7889 172.915C57.7814 172.916 57.7726 172.831 57.7629 172.67C57.7545 172.485 57.7438 172.252 57.7313 171.965C57.7044 171.353 57.6979 170.466 57.7211 169.371C57.7406 168.275 57.8139 166.971 57.9434 165.528C58.0835 164.085 58.2867 162.504 58.5777 160.856C58.8765 159.209 59.2342 157.655 59.6031 156.253C59.9822 154.853 60.3655 153.604 60.7274 152.57C61.0856 151.534 61.3988 150.703 61.6368 150.138C61.7482 149.874 61.8391 149.658 61.911 149.488C61.976 149.34 62.0131 149.264 62.0201 149.267C62.027 149.269 62.0029 149.351 61.9514 149.504C61.8897 149.677 61.8113 149.897 61.7152 150.168C61.5018 150.741 61.2109 151.578 60.8721 152.617C60.5302 153.656 60.1627 154.905 59.7957 156.302C59.4388 157.703 59.0881 159.253 58.7906 160.893C58.5011 162.535 58.2928 164.11 58.142 165.547C58.0018 166.984 57.9132 168.283 57.8742 169.375C57.8315 170.467 57.8144 171.352 57.8158 171.964C57.8121 172.251 57.8093 172.484 57.807 172.668C57.8023 172.83 57.7963 172.915 57.7889 172.915Z" fill="black"/>
<path d="M58.7392 160.678C58.7596 160.698 58.4868 161 58.0204 161.463C57.5541 161.925 56.8925 162.547 56.1375 163.206C55.3821 163.865 54.6769 164.437 54.1553 164.837C53.6338 165.237 53.2974 165.466 53.2793 165.444C53.2603 165.419 53.5628 165.148 54.0583 164.72C54.6119 164.241 55.2689 163.673 55.9951 163.045C56.7152 162.41 57.3667 161.836 57.9156 161.352C58.4083 160.919 58.7183 160.656 58.7392 160.678Z" fill="black"/>
<path d="M64.4412 165.251C64.4152 165.267 64.1294 164.859 63.6756 164.195C63.1833 163.479 62.5717 162.591 61.8957 161.608C61.2052 160.635 60.5812 159.755 60.0782 159.047C59.6109 158.393 59.326 157.984 59.3502 157.965C59.3729 157.948 59.701 158.324 60.2002 158.956C60.7 159.588 61.3681 160.478 62.0725 161.486C62.7763 162.494 63.3819 163.427 63.8036 164.113C64.2254 164.799 64.4658 165.235 64.4412 165.251Z" fill="black"/>
<path d="M61.4545 150.868C61.487 150.918 59.5925 152.187 57.2242 153.703C54.855 155.22 52.9095 156.408 52.877 156.359C52.845 156.309 54.7386 155.039 57.1077 153.523C59.4755 152.007 61.422 150.818 61.4545 150.868Z" fill="black"/>
<path d="M66.7951 156.608C66.7534 156.65 65.4709 155.47 63.9304 153.972C62.3895 152.473 61.1743 151.224 61.216 151.182C61.2578 151.139 62.5403 152.319 64.0812 153.818C65.6217 155.316 66.8369 156.565 66.7951 156.608Z" fill="black"/>
<path d="M68.1384 156.492L69.7643 156.358C70.9183 156.263 72.0388 155.923 73.0475 155.357C73.5463 155.078 74.0475 154.804 74.5778 154.592C76.5879 153.789 78.8308 153.933 80.9945 153.824C84.5255 153.648 88.0194 152.759 91.202 151.226C91.3857 151.137 91.5486 151.002 91.6465 150.824C91.9806 150.218 91.3602 149.678 90.8262 149.351C88.0867 147.67 85.2985 145.968 82.1921 145.134C79.0856 144.299 75.5592 144.441 72.9083 146.257C69.7977 148.389 68.6641 152.768 68.1384 156.492Z" fill="#165AD4"/>
<path d="M91.6841 150.624C91.6804 150.631 91.5857 150.586 91.4085 150.497C91.2136 150.395 90.9575 150.261 90.6378 150.095C89.9691 149.744 89.0073 149.228 87.7911 148.648C86.5745 148.073 85.1004 147.425 83.385 146.957C81.677 146.484 79.7059 146.237 77.6741 146.496C75.6506 146.762 73.7871 147.546 72.468 148.722C71.1405 149.895 70.3299 151.31 69.7573 152.513C69.1861 153.727 68.8339 154.759 68.5778 155.465C68.4576 155.804 68.3616 156.075 68.2883 156.282C68.2205 156.468 68.1816 156.565 68.1746 156.563C68.1676 156.56 68.1927 156.459 68.247 156.269C68.3106 156.059 68.3941 155.783 68.498 155.439C68.73 154.723 69.0604 153.682 69.6186 152.45C70.1782 151.229 70.9851 149.783 72.3362 148.574C73.68 147.361 75.5865 146.553 77.6462 146.284C79.7129 146.019 81.7155 146.279 83.4383 146.766C85.1686 147.25 86.6455 147.918 87.8584 148.511C89.0704 149.112 90.022 149.649 90.6786 150.022C90.9899 150.203 91.24 150.349 91.4298 150.46C91.5996 150.561 91.6878 150.618 91.6841 150.624Z" fill="black"/>
<path d="M87.7791 152.713C87.7457 152.763 85.6192 151.393 83.0296 149.655C80.4391 147.916 78.3673 146.466 78.4003 146.417C78.4337 146.367 80.5597 147.737 83.1503 149.476C85.7398 151.215 87.8125 152.664 87.7791 152.713Z" fill="black"/>
<path d="M85.7361 146.214C85.7477 146.27 85.0094 146.461 84.0763 146.545C83.1428 146.632 82.3827 146.578 82.3837 146.521C82.3837 146.459 83.1353 146.417 84.0569 146.331C84.9784 146.248 85.7249 146.154 85.7361 146.214Z" fill="black"/>
<path d="M76.2014 144.513C76.2529 144.543 75.9402 145.165 75.504 145.902C75.0674 146.639 74.6716 147.212 74.6205 147.181C74.569 147.151 74.8818 146.529 75.3184 145.792C75.7546 145.056 76.1503 144.483 76.2014 144.513Z" fill="black"/>
<path d="M78.107 153.961C78.0921 153.985 77.6977 153.78 77.0834 153.408C76.469 153.037 75.6389 152.493 74.7518 151.852C73.8646 151.21 73.0823 150.604 72.5204 150.16C71.959 149.715 71.6193 149.43 71.6374 149.406C71.655 149.382 72.0272 149.624 72.6123 150.038C73.2503 150.5 74.0233 151.059 74.8784 151.678C75.7628 152.317 76.5748 152.878 77.166 153.281C77.7576 153.683 78.1232 153.934 78.107 153.961Z" fill="black"/>
<path d="M70.5322 163.371C68.9815 162.963 67.1324 164.465 66.8127 166.03C66.493 167.595 67.0823 169.196 67.7727 170.638C69.3007 173.829 71.4091 176.79 74.1862 178.993C76.9632 181.196 80.4413 182.605 83.9923 182.587C83.3367 179.555 84.1659 176.387 83.8002 173.307C83.481 170.619 82.2222 168.049 80.2901 166.145C78.358 164.24 75.7656 163.013 73.0623 162.722C72.0731 162.615 70.927 162.46 70.5322 163.371Z" fill="#165AD4"/>
<path d="M83.9928 182.587C83.9891 182.594 83.9134 182.558 83.7719 182.485C83.6323 182.409 83.43 182.286 83.1919 182.097C82.7052 181.73 82.147 181.02 81.6607 180.058C81.4134 179.58 81.1369 179.061 80.8668 178.486C80.6047 177.91 80.3258 177.295 80.0325 176.65C79.7365 176.006 79.4113 175.338 79.0071 174.687C78.6048 174.034 78.1264 173.397 77.5961 172.776C76.5345 171.534 75.3949 170.46 74.4075 169.433C73.4145 168.411 72.5798 167.427 71.9761 166.529C71.3669 165.635 70.9975 164.834 70.7883 164.27C70.6885 163.985 70.6166 163.762 70.5813 163.607C70.5424 163.453 70.5252 163.372 70.5322 163.37C70.5526 163.364 70.6403 163.686 70.8667 164.239C71.0987 164.789 71.4834 165.57 72.1023 166.443C72.7153 167.32 73.5542 168.285 74.5504 169.295C75.542 170.311 76.688 171.382 77.7608 172.637C78.2967 173.263 78.7807 173.911 79.1876 174.577C79.5964 175.242 79.9212 175.92 80.2135 176.568C80.5003 177.215 80.7731 177.832 81.0292 178.411C81.2895 178.983 81.5582 179.507 81.7962 179.988C82.2635 180.952 82.7845 181.651 83.2457 182.033C83.6991 182.422 84.0058 182.566 83.9928 182.587Z" fill="black"/>
<path d="M75.973 180.068C75.9447 180.062 75.9935 179.664 76.1155 179.028C76.2371 178.392 76.4361 177.519 76.7048 176.568C76.9743 175.617 77.262 174.769 77.4917 174.163C77.7214 173.557 77.8884 173.192 77.9153 173.202C77.9446 173.213 77.8281 173.596 77.6365 174.212C77.4444 174.829 77.1808 175.68 76.9126 176.626C76.6454 177.573 76.4236 178.435 76.2644 179.061C76.1053 179.687 76.0032 180.074 75.973 180.068Z" fill="black"/>
<path d="M83.6991 172.624C83.6898 172.654 83.2745 172.549 82.6064 172.374C81.9382 172.2 81.0153 171.963 79.9889 171.732C78.9616 171.502 78.0258 171.323 77.3469 171.195C76.6686 171.067 76.2482 170.985 76.2524 170.955C76.2561 170.927 76.6843 170.955 77.3711 171.045C78.0578 171.135 79.0034 171.291 80.0358 171.523C81.0677 171.754 81.9892 172.016 82.6486 172.228C83.3084 172.44 83.7074 172.597 83.6991 172.624Z" fill="black"/>
<path d="M70.218 174.787C70.1897 174.781 70.2496 174.321 70.386 173.584C70.5224 172.847 70.7396 171.833 71.0296 170.726C71.32 169.618 71.6286 168.628 71.8713 167.919C72.1144 167.21 72.288 166.779 72.3153 166.788C72.3446 166.798 72.2221 167.245 72.017 167.964C71.8119 168.684 71.5279 169.677 71.2384 170.78C70.9493 171.884 70.7099 172.888 70.5354 173.615C70.361 174.343 70.2482 174.793 70.218 174.787Z" fill="black"/>
<path d="M80.1407 166.138C80.1342 166.197 78.1984 166.041 75.8166 165.79C73.4345 165.538 71.5089 165.286 71.5149 165.227C71.5214 165.168 73.4568 165.324 75.8394 165.576C78.2216 165.827 80.1472 166.079 80.1407 166.138Z" fill="black"/>
<path d="M78.7227 189.516C78.7227 189.575 71.9168 189.624 63.5235 189.624C55.127 189.624 48.3224 189.576 48.3224 189.516C48.3224 189.457 55.127 189.409 63.5235 189.409C71.9168 189.409 78.7227 189.457 78.7227 189.516Z" fill="#284159"/>
<path d="M73.9876 198.237C73.9876 198.296 69.4019 198.344 63.7466 198.344C58.0891 198.344 53.5048 198.296 53.5048 198.237C53.5048 198.177 58.0895 198.129 63.7466 198.129C69.4019 198.129 73.9876 198.177 73.9876 198.237Z" fill="#284159"/>
<path d="M74.1662 199.484C74.1662 199.543 69.5805 199.591 63.9252 199.591C58.2677 199.591 53.6833 199.543 53.6833 199.484C53.6833 199.424 58.2681 199.376 63.9252 199.376C69.5805 199.376 74.1662 199.424 74.1662 199.484Z" fill="#284159"/>
<path d="M74.1662 197.209C74.1662 197.269 69.4232 197.317 63.5735 197.317C57.722 197.317 52.9795 197.269 52.9795 197.209C52.9795 197.15 57.7216 197.102 63.5735 197.102C69.4232 197.102 74.1662 197.15 74.1662 197.209Z" fill="#284159"/>
</svg>
