<svg width="24" height="24" viewBox="0 0 24 24" fill="none" xmlns="http://www.w3.org/2000/svg">
<g clip-path="url(#clip0_368_1763)">
<path d="M23.9976 9.5636C23.9776 8.93201 23.4676 8.42361 22.8357 8.402L22.6693 8.39998C22.2813 8.39998 21.204 8.43757 19.8721 8.69679C19.6337 6.8968 19.1508 5.61881 19.1109 5.51681C18.9925 5.21161 18.754 4.96842 18.4517 4.84322C18.3045 4.78242 18.1485 4.752 17.9925 4.752C17.8277 4.752 17.6633 4.78599 17.5093 4.85358C17.4213 4.89239 16.4521 5.32917 15.2429 6.18037C14.1833 4.16438 12.9573 2.86478 12.8673 2.77079C12.6406 2.53398 12.3273 2.40039 12.0001 2.40039C11.673 2.40039 11.3597 2.53398 11.1333 2.77037C11.0433 2.86436 9.81574 4.16597 8.75576 6.18393C7.54935 5.33512 6.57899 4.89192 6.49138 4.85316C6.3374 4.78556 6.17296 4.75158 6.0082 4.75158C5.8522 4.75158 5.6962 4.78195 5.54901 4.8428C5.24662 4.968 5.00859 5.21161 4.88981 5.51639C4.85021 5.61839 4.3674 6.89596 4.12904 8.69637C2.79625 8.43678 1.71944 8.39998 1.33146 8.39998L1.16426 8.402C0.532668 8.42361 0.0222488 8.93201 0.00228013 9.5636C-0.00493858 9.78841 -0.132532 15.1112 3.17786 18.4219C6.20226 21.4463 10.9482 21.5995 11.869 21.5995L11.9922 21.5979C11.9946 21.5979 11.997 21.5995 11.9994 21.5995C12.0018 21.5995 12.0042 21.5979 12.0066 21.5979L12.1298 21.5995C13.0506 21.5995 17.7966 21.4463 20.8209 18.4219C24.1324 15.1115 24.0048 9.78878 23.9976 9.5636ZM17.9925 5.95162C17.9925 5.95162 18.4733 7.21082 18.6929 8.97799C17.9977 9.1728 17.2753 9.43441 16.5581 9.78438C16.3721 8.89118 16.0933 8.054 15.7649 7.28839C16.9905 6.4004 17.9925 5.95162 17.9925 5.95162ZM6.00773 5.95162C6.00773 5.95162 7.00972 6.39801 8.23611 7.286C7.90691 8.054 7.62692 8.89441 7.44092 9.7908C6.72374 9.44079 6.00253 9.17519 5.30695 8.98001C5.52651 7.21203 6.00773 5.95162 6.00773 5.95162ZM4.02694 17.5736C1.04534 14.592 1.20176 9.60161 1.20176 9.60161C1.20176 9.60161 1.24694 9.6004 1.33094 9.6004C1.95972 9.6004 4.76213 9.70038 7.24569 11.0384C7.21691 11.354 7.20008 11.6744 7.20008 12C7.20008 15.6939 9.20487 18.8143 10.3533 20.3003C8.6329 20.0959 5.92495 19.4716 4.02694 17.5736ZM12.0265 20.3716C12.0033 20.364 11.9805 20.3567 11.9509 20.346C11.5285 19.8856 8.40012 16.326 8.40012 12C8.40012 7.36082 12.0001 3.60006 12.0001 3.60006C12.0001 3.60006 15.6001 7.36082 15.6001 12C15.6001 16.4516 12.2945 20.0844 12.0265 20.3716ZM19.9736 17.5736C18.0756 19.4716 15.3677 20.0959 13.6473 20.3003C14.7953 18.8144 16.8001 15.694 16.8001 12C16.8001 11.6724 16.7833 11.35 16.7537 11.0324C19.2372 9.69564 22.0409 9.60002 22.6692 9.60002C22.7532 9.60002 22.7984 9.60124 22.7984 9.60124C22.7984 9.60124 22.9548 14.592 19.9736 17.5736Z" fill="#7BB133" stroke="#7BB133" stroke-width="0.5"/>
</g>
<defs>
<clipPath id="clip0_368_1763">
<rect width="24" height="24" fill="white"/>
</clipPath>
</defs>
</svg>
