<svg width="65" height="64" viewBox="0 0 65 64" fill="none" xmlns="http://www.w3.org/2000/svg">
<g clip-path="url(#clip0_566_4818)">
<path d="M35.854 20.5521C35.9996 20.7606 36.1027 20.9959 36.1576 21.2444C36.2124 21.4929 36.2178 21.7498 36.1736 22.0004C36.1293 22.251 36.0362 22.4904 35.8996 22.705C35.7629 22.9196 35.5855 23.1051 35.3773 23.251C25.3561 30.2714 18.5427 37.9911 13.8558 47.7695C17.3535 49.9493 21.4955 50.941 25.8109 50.587C31.5367 50.1174 37.0078 47.3854 41.6314 42.6893C45.759 38.4972 47.5774 33.8264 49.3359 29.3077C51.5547 23.607 53.6511 18.2223 60.384 14.0695C61.1296 13.6064 61.547 12.8509 61.505 12.0368C61.4516 11.1053 60.8788 10.3687 59.7875 9.84565C57.2334 8.62073 49.5999 7.47555 41.2471 7.68351C27.8278 8.01596 20.3585 11.4524 16.4545 14.2771C11.4136 17.9276 7.91814 23.3375 6.7035 29.1844C6.47279 30.2861 6.32483 31.4036 6.26085 32.5274C5.98127 37.6289 7.60506 42.2623 10.7297 45.3343C15.6889 35.2972 22.8105 27.3238 33.1578 20.0707C33.3663 19.9246 33.6015 19.8211 33.85 19.7662C34.0984 19.7113 34.3553 19.706 34.6057 19.7508C34.8562 19.7955 35.0954 19.8893 35.3096 20.0268C35.5238 20.1643 35.7088 20.3428 35.854 20.5521ZM11.4889 53.3391C12.21 51.4074 12.9961 49.5548 13.852 47.7699C12.8784 47.1634 11.9613 46.4701 11.1121 45.6985C10.9821 45.5811 10.8544 45.4592 10.7295 45.3355C9.6627 47.501 8.7073 49.7198 7.86702 51.9832C7.77173 52.2228 7.72513 52.4791 7.72996 52.737C7.73479 52.9948 7.79096 53.2491 7.89515 53.485C7.99935 53.7208 8.14949 53.9334 8.33677 54.1103C8.52405 54.2872 8.7447 54.4248 8.98577 54.5152C9.22686 54.6055 9.48352 54.6467 9.74072 54.6363C9.99792 54.626 10.2505 54.5643 10.4836 54.4549C10.7167 54.3454 10.9257 54.1905 11.0983 53.9991C11.2709 53.8077 11.4036 53.5837 11.4887 53.3403L11.4889 53.3391Z" fill="white"/>
</g>
<defs>
<clipPath id="clip0_566_4818">
<rect width="64" height="64" fill="white" transform="matrix(-1 0 0.000591762 -1 64 64)"/>
</clipPath>
</defs>
</svg>
