<svg width="24" height="24" viewBox="0 0 24 24" fill="none" xmlns="http://www.w3.org/2000/svg">
<path d="M7.56276 11.3438C7.63028 11.2721 7.71127 11.2143 7.8011 11.1739C7.89094 11.1335 7.98785 11.1112 8.08632 11.1082C8.18478 11.1052 8.28286 11.1217 8.37496 11.1567C8.46705 11.1916 8.55137 11.2444 8.62307 11.3119C12.0745 14.5632 15.5376 16.5413 19.6129 17.5496C20.1628 16.0496 20.2115 14.3986 19.7367 12.788C19.1067 10.651 17.6395 8.78909 15.4949 7.40393C13.5806 6.16737 11.6671 5.84534 9.81604 5.53409C7.48073 5.14128 5.27479 4.77003 3.16964 2.54112C2.93526 2.29456 2.61604 2.19565 2.31089 2.27581C1.96214 2.36956 1.72823 2.64518 1.6162 3.10081C1.3537 4.16722 1.52245 7.15597 2.26073 10.3111C3.4462 15.3802 5.33807 17.9452 6.71667 19.2047C8.49792 20.8308 10.8239 21.7313 13.1353 21.7313C13.5709 21.732 14.0061 21.7 14.437 21.6357C16.3921 21.3394 18.0196 20.3574 18.937 18.9286C14.7421 17.8374 11.1585 15.7622 7.59323 12.4055C7.52139 12.3379 7.46361 12.2567 7.42318 12.1667C7.38276 12.0767 7.3605 11.9796 7.35767 11.881C7.35484 11.7823 7.3715 11.6841 7.40669 11.5919C7.44188 11.4998 7.49492 11.4154 7.56276 11.3438ZM21.9103 18.0089C21.1214 17.8875 20.3573 17.7352 19.6134 17.551C19.4604 17.9685 19.2701 18.3714 19.0448 18.7547C19.0106 18.8133 18.9745 18.8714 18.9374 18.9286C19.8422 19.1629 20.7584 19.3506 21.6824 19.4911C21.7808 19.5084 21.8816 19.5059 21.9789 19.4837C22.0762 19.4615 22.1681 19.4201 22.2493 19.362C22.3304 19.3038 22.3991 19.23 22.4514 19.145C22.5036 19.0599 22.5383 18.9653 22.5535 18.8666C22.5687 18.7679 22.5641 18.6672 22.5398 18.5704C22.5156 18.4736 22.4723 18.3825 22.4124 18.3026C22.3526 18.2228 22.2773 18.1556 22.1912 18.1052C22.105 18.0548 22.0097 18.022 21.9107 18.0089H21.9103Z" fill="#7BB133"/>
</svg>
