<svg width="48" height="49" viewBox="0 0 48 49" fill="none" xmlns="http://www.w3.org/2000/svg">
<path d="M13.6631 28.6752L13.5558 28.7293C10.4116 29.2773 7.74637 30.0284 5.72866 31.0551C4.71811 31.5676 3.84729 32.1748 3.17245 32.9038C2.49591 33.6346 2 34.5835 2 35.6525C2 37.256 3.0702 38.5093 4.3432 39.4058C5.61619 40.3023 7.2232 40.9873 9.18978 41.5726C13.1178 42.7431 18.3683 43.423 24.1538 43.423C29.9394 43.423 35.1899 42.7431 39.1179 41.5726C41.0828 40.9873 42.6915 40.304 43.9645 39.4058C45.2375 38.5077 46.3077 37.256 46.3077 35.6525C46.3077 34.5801 45.8135 33.5821 45.1352 32.8514C44.457 32.1207 43.5947 31.5676 42.579 31.0534C40.5511 30.0267 37.8603 29.2757 34.6974 28.7276C34.475 28.6848 34.2462 28.6865 34.0245 28.7325C33.8028 28.7785 33.5925 28.8679 33.406 28.9955C33.2195 29.1231 33.0605 29.2863 32.9383 29.4756C32.8161 29.665 32.7331 29.8765 32.6943 30.098C32.6554 30.3196 32.6614 30.5465 32.712 30.7657C32.7625 30.9849 32.8566 31.1918 32.9887 31.3745C33.1208 31.5571 33.2882 31.7118 33.4812 31.8295C33.6743 31.9472 33.889 32.0255 34.1129 32.0598C37.0491 32.5672 39.4894 33.2861 41.0351 34.0676C41.8088 34.4566 42.3524 34.8744 42.6336 35.1772C42.9147 35.4799 42.8994 35.6 42.8994 35.6525C42.8994 35.732 42.7903 36.0973 41.9945 36.6572C41.1987 37.2171 39.8422 37.8311 38.1057 38.3487C34.6343 39.3821 29.6616 40.0401 24.1538 40.0401C18.6461 40.0401 13.6734 39.3821 10.2003 38.3487C8.46551 37.8311 7.10902 37.2171 6.31489 36.6572C5.51735 36.0973 5.40828 35.732 5.40828 35.6525C5.40828 35.6017 5.39635 35.4782 5.67413 35.1772C5.95361 34.8761 6.50405 34.4566 7.27262 34.0676C8.80634 33.2878 11.2228 32.5689 14.142 32.0581C14.3691 32.0307 14.5884 31.9587 14.7871 31.8463C14.9858 31.7338 15.16 31.5832 15.2994 31.4031C15.4387 31.2231 15.5406 31.0173 15.5989 30.7978C15.6572 30.5782 15.6709 30.3493 15.639 30.1245C15.6072 29.8997 15.5305 29.6834 15.4135 29.4883C15.2965 29.2932 15.1415 29.1232 14.9575 28.9883C14.7736 28.8533 14.5643 28.7561 14.3421 28.7024C14.1198 28.6486 13.889 28.6394 13.6631 28.6752Z" fill="#165AD4"/>
<path fill-rule="evenodd" clip-rule="evenodd" d="M24.7961 32.3462H23.5269L22.3638 30.9164C20.7969 28.9897 18.9808 26.5237 17.5442 23.9661C16.1504 21.4849 14.9238 18.5925 14.9238 15.8986C14.9238 10.4885 18.8411 6.5 24.1546 6.5C29.4681 6.5 33.3854 10.4885 33.3854 15.8986C33.3854 18.6066 32.1208 21.5002 30.7165 23.9661C29.2673 26.5108 27.4511 28.9685 25.9431 30.8858L24.7961 32.3462ZM28.77 15.8986C28.77 17.1449 28.2837 18.3402 27.4182 19.2215C26.5526 20.1028 25.3787 20.5979 24.1546 20.5979C22.9305 20.5979 21.7566 20.1028 20.891 19.2215C20.0255 18.3402 19.5392 17.1449 19.5392 15.8986C19.5392 14.6523 20.0255 13.457 20.891 12.5757C21.7566 11.6944 22.9305 11.1993 24.1546 11.1993C25.3787 11.1993 26.5526 11.6944 27.4182 12.5757C28.2837 13.457 28.77 14.6523 28.77 15.8986Z" fill="#165AD4"/>
<path d="M24.1547 17.5771C23.6651 17.5771 23.1955 17.3826 22.8493 17.0363C22.5031 16.6901 22.3086 16.2206 22.3086 15.7309C22.3086 15.2413 22.5031 14.7717 22.8493 14.4255C23.1955 14.0793 23.6651 13.8848 24.1547 13.8848C24.6444 13.8848 25.114 14.0793 25.4602 14.4255C25.8064 14.7717 26.0009 15.2413 26.0009 15.7309C26.0009 16.2206 25.8064 16.6901 25.4602 17.0363C25.114 17.3826 24.6444 17.5771 24.1547 17.5771Z" fill="#165AD4"/>
</svg>
