<svg width="48" height="48" viewBox="0 0 48 48" fill="none" xmlns="http://www.w3.org/2000/svg">
<g clip-path="url(#clip0_316_12219)">
<path d="M47.9541 36.5707C47.7709 35.9322 47.1037 35.5747 46.4709 35.7459L38.6045 37.9939L31.8661 33.5019C31.6693 33.3707 31.4373 33.3003 31.2004 33.3003H3.60039C2.9372 33.3003 2.40039 33.8371 2.40039 34.5003C2.40039 35.1635 2.9372 35.7003 3.60039 35.7003H30.8364L37.734 40.2987C37.9332 40.4316 38.1652 40.5003 38.3996 40.5003C38.5101 40.5003 38.6212 40.4851 38.7292 40.4547L47.1293 38.0547C47.7669 37.8715 48.1357 37.2074 47.9541 36.5707Z" fill="#165AD4" stroke="#165AD4" stroke-width="0.5"/>
<path d="M39.5996 23.7002C36.2916 23.7002 33.5996 26.3914 33.5996 29.7002C33.5996 33.0082 36.2916 35.7002 39.5996 35.7002C42.9084 35.7002 45.5996 33.0082 45.5996 29.7002C45.5996 26.3915 42.9084 23.7002 39.5996 23.7002ZM39.5996 33.3002C37.6116 33.3002 35.9996 31.6882 35.9996 29.7002C35.9996 27.7122 37.6116 26.1002 39.5996 26.1002C41.5876 26.1002 43.1996 27.7122 43.1996 29.7002C43.1997 31.6883 41.5877 33.3002 39.5996 33.3002Z" fill="#165AD4" stroke="#165AD4" stroke-width="0.5"/>
<path d="M20.4004 7.5C17.0924 7.5 14.4004 10.1912 14.4004 13.5C14.4004 16.8088 17.0916 19.5 20.4004 19.5C23.7092 19.5 26.4004 16.808 26.4004 13.5C26.4004 10.1913 23.7092 7.5 20.4004 7.5ZM20.4004 17.1C18.4124 17.1 16.8004 15.488 16.8004 13.5C16.8004 11.512 18.4116 9.9 20.4004 9.9C22.3884 9.9 24.0004 11.512 24.0004 13.5C24.0004 15.488 22.3884 17.1 20.4004 17.1Z" fill="#165AD4" stroke="#165AD4" stroke-width="0.5"/>
<path d="M27.0162 26.2713L15.0162 19.0713C14.729 18.9001 14.3826 18.8513 14.0634 18.9481C13.7426 19.0417 13.4754 19.2649 13.325 19.5633L8.52502 29.1633C8.22905 29.7561 8.4698 30.4769 9.06258 30.7738C9.23462 30.8593 9.4178 30.9001 9.5978 30.9001C10.0386 30.9001 10.4618 30.6577 10.6722 30.2369L14.8922 21.7961L25.781 28.3289C26.3506 28.6697 27.0865 28.4858 27.4274 27.9177C27.7683 27.3497 27.5842 26.6121 27.0162 26.2713Z" fill="#165AD4" stroke="#165AD4" stroke-width="0.5"/>
<path d="M31.2001 38.1001H1.2C0.536814 38.1001 0 38.6369 0 39.3001C0 39.9633 0.536814 40.5001 1.2 40.5001H31.2001C31.8633 40.5001 32.4001 39.9633 32.4001 39.3001C32.4001 38.6369 31.8633 38.1001 31.2001 38.1001Z" fill="#165AD4" stroke="#165AD4" stroke-width="0.5"/>
</g>
<defs>
<clipPath id="clip0_316_12219">
<rect width="48" height="48" fill="white"/>
</clipPath>
</defs>
</svg>
