<svg width="24" height="25" viewBox="0 0 24 25" fill="none" xmlns="http://www.w3.org/2000/svg">
<g id="streamline:phone-ringing-1">
<path id="Vector" d="M11.9866 3.5C13.1703 3.5 14.3423 3.73314 15.4359 4.1861C16.5294 4.63907 17.5231 5.30299 18.36 6.13996C20.0504 7.8303 21 10.1229 21 12.5134M11.9866 6.96669C13.4577 6.96669 14.8685 7.55108 15.9087 8.59129C16.9489 9.6315 17.5333 11.0423 17.5333 12.5134M12.6661 20.9305C13.3849 21.3934 14.2406 21.5963 15.0907 21.5055C15.9409 21.4147 16.7343 21.0356 17.3392 20.4313L17.8661 19.9044C18.0998 19.6681 18.2309 19.3492 18.2309 19.0169C18.2309 18.6846 18.0998 18.3657 17.8661 18.1294L15.6474 15.9246C15.4135 15.6918 15.0969 15.561 14.7669 15.561C14.4368 15.561 14.1202 15.6918 13.8863 15.9246C13.6501 16.1583 13.3312 16.2894 12.9989 16.2894C12.6666 16.2894 12.3476 16.1583 12.1114 15.9246L8.57537 12.3886C8.34165 12.1524 8.21056 11.8334 8.21056 11.5011C8.21056 11.1688 8.34165 10.8499 8.57537 10.6137C8.80824 10.3798 8.93898 10.0632 8.93898 9.73311C8.93898 9.40307 8.80824 9.08646 8.57537 8.85257L6.43989 6.63389C6.20365 6.40017 5.88474 6.26908 5.55242 6.26908C5.2201 6.26908 4.90119 6.40017 4.66494 6.63389L4.13801 7.16083C3.52289 7.75715 3.13088 8.54639 3.02741 9.39685C2.92394 10.2473 3.11527 11.1075 3.56947 11.8339C5.98665 15.4244 9.0756 18.5134 12.6661 20.9305Z" stroke="white" stroke-width="1.5" stroke-linecap="round" stroke-linejoin="round"/>
</g>
</svg>
