<svg width="48" height="49" viewBox="0 0 48 49" fill="none" xmlns="http://www.w3.org/2000/svg">
<g clip-path="url(#clip0_336_5374)">
<path d="M24.0014 2.21436C26.928 2.21436 29.8259 2.79079 32.5298 3.91075C35.2336 5.03072 37.6904 6.67227 39.7598 8.74169C43.9392 12.9211 46.2871 18.5895 46.2871 24.5001M24.0014 10.7858C27.6386 10.7858 31.1269 12.2307 33.6989 14.8026C36.2708 17.3745 37.7157 20.8628 37.7157 24.5001M25.6814 45.3115C27.4588 46.456 29.5743 46.9576 31.6763 46.7331C33.7783 46.5085 35.7402 45.5713 37.2357 44.0772L38.5385 42.7744C39.1164 42.1902 39.4405 41.4017 39.4405 40.5801C39.4405 39.7584 39.1164 38.9699 38.5385 38.3858L33.0528 32.9344C32.4745 32.3586 31.6917 32.0353 30.8757 32.0353C30.0596 32.0353 29.2768 32.3586 28.6985 32.9344C28.1144 33.5122 27.3259 33.8364 26.5043 33.8364C25.6826 33.8364 24.8941 33.5122 24.31 32.9344L15.5671 24.1915C14.9892 23.6074 14.6651 22.8189 14.6651 21.9972C14.6651 21.1755 14.9892 20.387 15.5671 19.8029C16.1429 19.2246 16.4661 18.4418 16.4661 17.6258C16.4661 16.8097 16.1429 16.0269 15.5671 15.4486L10.2871 9.96293C9.70299 9.38505 8.91449 9.06092 8.09282 9.06092C7.27116 9.06092 6.48266 9.38505 5.89854 9.96293L4.59568 11.2658C3.07479 12.7402 2.10555 14.6916 1.84972 16.7944C1.5939 18.8971 2.06696 21.024 3.18997 22.8201C9.16646 31.6975 16.8039 39.335 25.6814 45.3115Z" stroke="#165AD4" stroke-width="2.5" stroke-linecap="round" stroke-linejoin="round"/>
</g>
<defs>
<clipPath id="clip0_336_5374">
<rect width="48" height="48" fill="white" transform="matrix(-1 0 0 1 48 0.5)"/>
</clipPath>
</defs>
</svg>
