<svg width="25" height="24" viewBox="0 0 25 24" fill="none" xmlns="http://www.w3.org/2000/svg">
<g id="streamline:phone-ringing-1" clip-path="url(#clip0_917_93)">
<path id="Vector" d="M12.2497 0.857422C13.713 0.857422 15.162 1.14564 16.5139 1.70562C17.8658 2.2656 19.0942 3.08638 20.1289 4.12109C22.2186 6.21078 23.3926 9.04501 23.3926 12.0003M12.2497 5.14314C14.0683 5.14314 15.8125 5.86558 17.0985 7.15155C18.3844 8.43751 19.1069 10.1817 19.1069 12.0003M13.0897 22.406C13.9784 22.9782 15.0362 23.2291 16.0872 23.1168C17.1382 23.0045 18.1191 22.5359 18.8669 21.7889L19.5183 21.1374C19.8072 20.8454 19.9693 20.4511 19.9693 20.0403C19.9693 19.6294 19.8072 19.2352 19.5183 18.9431L16.7754 16.2174C16.4863 15.9295 16.0949 15.7679 15.6869 15.7679C15.2788 15.7679 14.8874 15.9295 14.5983 16.2174C14.3062 16.5064 13.912 16.6684 13.5011 16.6684C13.0903 16.6684 12.6961 16.5064 12.404 16.2174L8.03258 11.846C7.74364 11.5539 7.58158 11.1597 7.58158 10.7489C7.58158 10.338 7.74364 9.94377 8.03258 9.65171C8.32046 9.36256 8.48208 8.97116 8.48208 8.56314C8.48208 8.15512 8.32046 7.76371 8.03258 7.47457L5.39258 4.73171C5.10052 4.44277 4.70627 4.28071 4.29543 4.28071C3.8846 4.28071 3.49035 4.44277 3.19829 4.73171L2.54686 5.38314C1.78642 6.12034 1.3018 7.09605 1.17389 8.14742C1.04597 9.1988 1.28251 10.2622 1.84401 11.1603C4.83226 15.599 8.65098 19.4177 13.0897 22.406Z" stroke="#284159" stroke-width="2" stroke-linecap="round" stroke-linejoin="round"/>
</g>
<defs>
<clipPath id="clip0_917_93">
<rect width="24" height="24" fill="white" transform="matrix(-1 0 0 1 24.25 0)"/>
</clipPath>
</defs>
</svg>
