<svg width="48" height="49" viewBox="0 0 48 49" fill="none" xmlns="http://www.w3.org/2000/svg">
<path fill-rule="evenodd" clip-rule="evenodd" d="M21.949 6.50408C22.0661 7.02124 21.973 7.56373 21.6903 8.01228C21.4075 8.46083 20.9581 8.77873 20.441 8.89608C20.0486 8.98538 19.6596 9.08945 19.275 9.20808C19.0241 9.28556 18.7603 9.31285 18.4988 9.2884C18.2373 9.26394 17.9832 9.18822 17.751 9.06556C17.5187 8.94289 17.3129 8.77568 17.1453 8.57348C16.9777 8.37128 16.8515 8.13804 16.774 7.88708C16.6966 7.63613 16.6693 7.37237 16.6937 7.11086C16.7182 6.84936 16.7939 6.59523 16.9166 6.36299C17.0392 6.13075 17.2064 5.92495 17.4086 5.75733C17.6109 5.58971 17.8441 5.46356 18.095 5.38608C18.575 5.23675 19.0617 5.10675 19.555 4.99608C19.8113 4.93782 20.0764 4.93061 20.3354 4.97487C20.5944 5.01913 20.8422 5.11399 21.0645 5.25404C21.2868 5.39408 21.4794 5.57656 21.6312 5.79105C21.7829 6.00554 21.8909 6.24783 21.949 6.50408ZM26.049 6.50408C26.1664 5.98698 26.4843 5.53765 26.9328 5.25487C27.3814 4.97209 27.9239 4.879 28.441 4.99608C37.349 7.01608 44.001 14.9801 44.001 24.5001C44.001 35.5461 35.045 44.5001 24.001 44.5001C14.479 44.5001 6.51504 37.8501 4.49504 28.9421C4.39136 28.43 4.49215 27.8978 4.77585 27.4591C5.05955 27.0204 5.50364 26.7101 6.01314 26.5946C6.52265 26.4792 7.05712 26.5676 7.50224 26.8411C7.94737 27.1146 8.26781 27.5514 8.39504 28.0581C9.03148 30.8456 10.4032 33.4116 12.3676 35.4892C14.332 37.5668 16.8173 39.0801 19.5648 39.8715C22.3123 40.663 25.2217 40.7037 27.9903 39.9895C30.7589 39.2753 33.2856 37.8322 35.3074 35.8104C37.3291 33.7886 38.7722 31.262 39.4864 28.4934C40.2007 25.7248 40.1599 22.8154 39.3685 20.0678C38.577 17.3203 37.0638 14.8351 34.9862 12.8707C32.9086 10.9063 30.3426 9.53451 27.555 8.89808C27.0379 8.7803 26.5887 8.46192 26.3063 8.01296C26.0238 7.56401 25.9313 7.02125 26.049 6.50408ZM13.227 9.94008C13.4059 10.1327 13.5451 10.3586 13.6365 10.605C13.728 10.8514 13.77 11.1134 13.7602 11.3761C13.7504 11.6387 13.6888 11.8968 13.5792 12.1357C13.4695 12.3745 13.3138 12.5894 13.121 12.7681C12.825 13.0414 12.5404 13.3254 12.267 13.6201C11.9037 13.9981 11.4065 14.2184 10.8824 14.2334C10.3583 14.2484 9.84921 14.057 9.46482 13.7005C9.08043 13.3439 8.85145 12.8506 8.82718 12.3268C8.8029 11.803 8.98528 11.2907 9.33504 10.9001C9.67505 10.5321 10.0297 10.1767 10.399 9.83408C10.5916 9.65522 10.8176 9.51607 11.064 9.42459C11.3104 9.3331 11.5724 9.29108 11.835 9.30093C12.0977 9.31077 12.3558 9.37229 12.5946 9.48196C12.8335 9.59163 13.0484 9.7473 13.227 9.94008ZM23.999 12.5001C24.5295 12.5001 25.0382 12.7108 25.4133 13.0859C25.7883 13.4609 25.999 13.9697 25.999 14.5001V23.6721L31.413 29.0861C31.7774 29.4633 31.9789 29.9685 31.9744 30.4929C31.9698 31.0173 31.7595 31.5189 31.3887 31.8897C31.0179 32.2605 30.5162 32.4709 29.9918 32.4754C29.4675 32.48 28.9622 32.2784 28.585 31.9141L22.585 25.9141C22.2099 25.5391 21.9992 25.0305 21.999 24.5001V14.5001C21.999 13.9697 22.2098 13.4609 22.5848 13.0859C22.9599 12.7108 23.4686 12.5001 23.999 12.5001ZM7.38504 17.2761C7.89183 17.4324 8.31579 17.7835 8.56371 18.2523C8.81162 18.7212 8.86318 19.2693 8.70704 19.7761C8.58842 20.1607 8.48434 20.5496 8.39504 20.9421C8.26781 21.4488 7.94737 21.8856 7.50224 22.1591C7.05712 22.4326 6.52265 22.521 6.01314 22.4055C5.50364 22.29 5.05955 21.9798 4.77585 21.5411C4.49215 21.1024 4.39136 20.5701 4.49504 20.0581C4.60704 19.5648 4.73704 19.0781 4.88504 18.5981C5.04132 18.0913 5.39248 17.6673 5.86131 17.4194C6.33013 17.1715 6.87822 17.12 7.38504 17.2761Z" fill="#165AD4"/>
</svg>
