<svg width="48" height="48" viewBox="0 0 48 48" fill="none" xmlns="http://www.w3.org/2000/svg">
<g clip-path="url(#clip0_368_1728)">
<path d="M47.4925 31.8352C47.4366 31.796 46.0989 30.8576 44.303 30.2736C42.767 29.7744 41.359 29.6968 40.0926 29.9944C39.7198 26.4257 36.2406 23.7481 36.083 23.6304C35.9759 23.5512 35.8582 23.4912 35.7359 23.4513C35.3727 23.3329 34.9663 23.3937 34.6471 23.6313C34.5943 23.6705 34.1558 24.0185 33.5991 24.5681V23.393C33.5991 22.0673 32.5247 20.993 31.1991 20.993H18.2087C18.2239 20.5626 18.2703 20.1145 18.3534 19.6506C20.9526 19.2041 22.6958 17.609 23.307 15.0226C24.5149 9.90504 20.9094 2.5067 17.3366 0.720308C16.9638 0.535528 16.5231 0.553059 16.1694 0.773089C15.8158 0.991525 15.5998 1.37712 15.5998 1.79308C15.5998 5.32828 14.3894 6.81065 13.1086 8.38104C11.9734 9.7706 10.7998 11.2074 10.7998 13.793C10.7998 16.581 13.1846 19.2082 15.9206 19.6922C15.8558 20.1122 15.8303 20.5466 15.8174 20.993H2.39999C1.07437 20.993 0 22.0673 0 23.393V44.9928C0 46.3184 1.07437 47.3928 2.39999 47.3928H31.1998C32.0407 47.3928 32.7446 46.9344 33.1734 46.28C33.9894 45.8736 34.779 45.3432 35.4142 44.5992C36.2614 45.5583 37.4294 46.3048 38.9366 46.7952C40.7309 47.3784 42.3645 47.4047 42.4333 47.4063C42.9645 47.4127 43.4373 47.0695 43.5949 46.5623C43.6541 46.3727 44.9101 42.1167 43.0709 39.0055C46.3869 37.5687 47.8725 33.388 47.9365 33.2C48.1069 32.6976 47.9261 32.1424 47.4925 31.8352ZM13.1999 13.7929C13.1999 12.0633 13.9415 11.1554 14.9671 9.89857C16.0503 8.5722 17.3447 6.98502 17.8167 4.14741C19.9439 6.56577 21.7167 11.3098 20.9703 14.4714C20.6535 15.8129 19.8823 16.6482 18.7014 17.0666C18.7446 15.9386 18.583 14.6754 17.8726 13.2562C17.575 12.6618 16.8566 12.4226 16.2622 12.7194C15.6694 13.0162 15.4285 13.7362 15.7253 14.3298C16.2853 15.449 16.3557 16.3898 16.271 17.3266C14.6975 17.0097 13.1999 15.3665 13.1999 13.7929ZM26.819 44.992H2.39999V23.3929H31.1998V27.988C30.9182 28.6392 30.6942 29.3304 30.627 30.0719C27.0934 29.2711 23.4214 31.7895 23.2591 31.9047C22.8255 32.2111 22.6455 32.7663 22.8159 33.2687C22.8791 33.4575 24.3695 37.6535 27.699 39.0823C26.5423 41.0264 26.5991 43.4207 26.819 44.992ZM25.4638 33.3736C26.583 32.7688 28.6502 31.8881 30.3999 32.456C31.8958 32.9424 32.9622 34.44 33.583 35.5816C32.407 35.7872 30.8606 36.2456 29.5295 37.1576C29.3223 37.128 29.1175 37.0864 28.9166 37.0216C27.1782 36.4568 26.0167 34.5216 25.4638 33.3736ZM33.779 42.8576C32.7302 44.3016 30.6534 44.8088 29.3774 44.992H29.2414C29.0141 43.7368 28.8198 41.5168 29.8966 40.036C30.8318 38.748 32.5886 38.2168 33.8686 37.9833C33.7134 39.1401 33.6877 40.6801 34.1126 42.1633C34.007 42.3984 33.9318 42.648 33.779 42.8576ZM33.0542 31.2408C33.015 31.0257 32.9646 30.8129 32.9646 30.592C32.9637 28.7512 34.4437 27.0568 35.3645 26.1792C36.2861 27.0568 37.7645 28.7504 37.7645 30.5911C37.7645 32.1871 36.6685 33.6391 35.7725 34.5775C35.2182 33.5328 34.3142 32.22 33.0542 31.2408ZM41.5125 44.9223C41.0069 44.8544 40.3533 44.7319 39.6781 44.5119C38.439 44.1095 37.5326 43.5199 36.9806 42.7615C36.0574 41.4895 36.083 39.6823 36.2502 38.3944C36.7222 38.6256 37.2734 38.8648 37.8838 39.0632C38.7693 39.3512 39.6142 39.5024 40.415 39.5255C40.5582 39.6671 40.751 39.7848 40.8646 39.9408C41.9373 41.4192 41.7405 43.668 41.5125 44.9223ZM41.8358 36.9512C40.9446 37.2408 39.8638 37.1832 38.6262 36.7808C38.1926 36.6399 37.8093 36.4735 37.4566 36.3064C38.275 35.4512 39.223 34.192 39.7517 32.7096C39.9517 32.6 40.1333 32.4567 40.3526 32.3856C41.2438 32.096 42.3246 32.1536 43.5622 32.556C44.2398 32.7761 44.8414 33.0632 45.2918 33.3048C44.7405 34.4528 43.5862 36.3816 41.8358 36.9512Z" fill="#165AD4" stroke="#165AD4" stroke-width="0.5"/>
</g>
<defs>
<clipPath id="clip0_368_1728">
<rect width="48" height="48" fill="white"/>
</clipPath>
</defs>
</svg>
