<svg width="48" height="48" viewBox="0 0 48 48" fill="none" xmlns="http://www.w3.org/2000/svg">
<g clip-path="url(#clip0_368_1736)">
<path d="M47.9955 19.1272C47.9555 17.864 46.9355 16.8472 45.6716 16.804L45.3388 16.8C44.5628 16.8 42.4083 16.8751 39.7444 17.3936C39.2675 13.7936 38.3019 11.2376 38.222 11.0336C37.9851 10.4232 37.5083 9.93684 36.9036 9.68644C36.6092 9.56485 36.2972 9.504 35.9852 9.504C35.6556 9.504 35.3268 9.57197 35.0188 9.70716C34.8429 9.78478 32.9044 10.6583 30.486 12.3607C28.3668 8.32876 25.9149 5.72956 25.7349 5.54159C25.2813 5.06797 24.6549 4.80078 24.0005 4.80078C23.3462 4.80078 22.7197 5.06797 22.2669 5.54075C22.0869 5.72871 19.6317 8.33195 17.5118 12.3679C15.0989 10.6702 13.1582 9.78385 12.983 9.70632C12.675 9.57113 12.3462 9.50316 12.0166 9.50316C11.7046 9.50316 11.3926 9.56391 11.0983 9.6856C10.4935 9.936 10.0174 10.4232 9.77987 11.0328C9.70065 11.2368 8.73503 13.7919 8.25832 17.3927C5.59274 16.8736 3.43913 16.8 2.66316 16.8L2.32876 16.804C1.06558 16.8472 0.0447417 17.864 0.00480439 19.1272C-0.00963302 19.5768 -0.26482 30.2223 6.35595 36.8439C12.4048 42.8927 21.8967 43.1991 23.7382 43.1991L23.9846 43.1959C23.9894 43.1959 23.9942 43.1991 23.999 43.1991C24.0038 43.1991 24.0086 43.1959 24.0135 43.1959L24.2599 43.1991C26.1015 43.1991 35.5934 42.8927 41.6421 36.8439C48.2651 30.2231 48.0099 19.5776 47.9955 19.1272ZM35.9852 11.9032C35.9852 11.9032 36.9468 14.4216 37.386 17.956C35.9956 18.3456 34.5508 18.8688 33.1165 19.5688C32.7445 17.7824 32.1868 16.108 31.53 14.5768C33.9812 12.8008 35.9852 11.9032 35.9852 11.9032ZM12.0157 11.9032C12.0157 11.9032 14.0197 12.796 16.4725 14.572C15.8141 16.108 15.2541 17.7888 14.8821 19.5816C13.4477 18.8816 12.0053 18.3504 10.6141 17.96C11.0533 14.4241 12.0157 11.9032 12.0157 11.9032ZM8.05413 35.1471C2.09092 29.184 2.40376 19.2032 2.40376 19.2032C2.40376 19.2032 2.49413 19.2008 2.66213 19.2008C3.91969 19.2008 9.5245 19.4008 14.4916 22.0767C14.4341 22.708 14.4004 23.3487 14.4004 23.9999C14.4004 31.3878 18.41 37.6287 20.7067 40.6006C17.266 40.1919 11.8501 38.9431 8.05413 35.1471ZM24.0532 40.7431C24.0068 40.7279 23.9613 40.7135 23.902 40.6919C23.0572 39.7711 16.8005 32.652 16.8005 24C16.8005 14.7216 24.0004 7.20011 24.0004 7.20011C24.0004 7.20011 31.2004 14.7216 31.2004 24C31.2004 32.9031 24.5892 40.1687 24.0532 40.7431ZM39.9475 35.1471C36.1515 38.9431 30.7356 40.1919 27.2948 40.6007C29.5908 37.6287 33.6004 31.3879 33.6004 24C33.6004 23.3448 33.5668 22.7 33.5076 22.0648C38.4747 19.3913 44.082 19.2 45.3387 19.2C45.5067 19.2 45.597 19.2025 45.597 19.2025C45.597 19.2025 45.9099 29.184 39.9475 35.1471Z" fill="#165AD4" stroke="#165AD4" stroke-width="0.5"/>
</g>
<defs>
<clipPath id="clip0_368_1736">
<rect width="48" height="48" fill="white"/>
</clipPath>
</defs>
</svg>
