<svg width="24" height="25" viewBox="0 0 24 25" fill="none" xmlns="http://www.w3.org/2000/svg">
<g id="ion:leaf">
<path id="Vector" d="M7.56276 11.8452C7.63028 11.7735 7.71127 11.7158 7.8011 11.6754C7.89094 11.635 7.98785 11.6126 8.08632 11.6097C8.18478 11.6067 8.28286 11.6232 8.37496 11.6581C8.46705 11.6931 8.55137 11.7458 8.62307 11.8134C12.0745 15.0646 15.5376 17.0427 19.6129 18.051C20.1628 16.551 20.2115 14.9001 19.7367 13.2895C19.1067 11.1524 17.6395 9.29056 15.4949 7.9054C13.5806 6.66884 11.6671 6.34681 9.81604 6.03556C7.48073 5.64274 5.27479 5.27149 3.16964 3.04259C2.93526 2.79602 2.61604 2.69712 2.31089 2.77727C1.96214 2.87102 1.72823 3.14665 1.6162 3.60227C1.3537 4.66868 1.52245 7.65743 2.26073 10.8126C3.4462 15.8816 5.33807 18.4467 6.71667 19.7062C8.49792 21.3323 10.8239 22.2327 13.1353 22.2327C13.5709 22.2334 14.0061 22.2015 14.437 22.1371C16.3921 21.8409 18.0196 20.8588 18.937 19.4301C14.7421 18.3388 11.1585 16.2637 7.59323 12.907C7.52139 12.8393 7.46361 12.7582 7.42318 12.6682C7.38276 12.5782 7.3605 12.4811 7.35767 12.3824C7.35484 12.2838 7.3715 12.1856 7.40669 12.0934C7.44188 12.0012 7.49492 11.9169 7.56276 11.8452ZM21.9103 18.5104C21.1214 18.389 20.3573 18.2367 19.6134 18.0524C19.4604 18.47 19.2701 18.8728 19.0448 19.2562C19.0106 19.3148 18.9745 19.3729 18.9375 19.4301C19.8422 19.6643 20.7584 19.8521 21.6824 19.9926C21.7808 20.0099 21.8815 20.0073 21.9789 19.9852C22.0762 19.963 22.1681 19.9216 22.2493 19.8634C22.3304 19.8053 22.3991 19.7315 22.4514 19.6464C22.5036 19.5614 22.5383 19.4667 22.5535 19.3681C22.5687 19.2694 22.5641 19.1687 22.5399 19.0719C22.5156 18.975 22.4723 18.884 22.4124 18.8041C22.3526 18.7242 22.2773 18.6571 22.1912 18.6067C22.105 18.5562 22.0097 18.5235 21.9107 18.5104H21.9103Z" fill="#284159"/>
</g>
</svg>
