<svg width="20" height="20" viewBox="0 0 20 20" fill="none" xmlns="http://www.w3.org/2000/svg">
<path d="M7.95875 10.0332L8.02906 9.96258L7.95875 9.892L0.547745 2.45328C0.302141 2.18805 0.168404 1.83753 0.174771 1.4753C0.181149 1.11248 0.327578 0.766394 0.583098 0.509918C0.838607 0.253454 1.18324 0.106614 1.54437 0.100218C1.90492 0.0938327 2.25396 0.227938 2.51816 0.474434L9.92916 7.91316L10 7.98427L10.0708 7.91316L17.4819 0.474423C17.7461 0.227934 18.0951 0.0938328 18.4556 0.100218C18.8168 0.106614 19.1614 0.253454 19.4169 0.509918C19.6724 0.766395 19.8189 1.11248 19.8252 1.4753C19.8316 1.83753 19.6979 2.18806 19.4523 2.45328L12.0413 9.892L11.9709 9.96258L12.0413 10.0332L19.4535 17.4732L19.4535 17.4732L19.4561 17.4756C19.5931 17.6038 19.703 17.7583 19.7792 17.9301C19.8555 18.1018 19.8965 18.2873 19.8998 18.4753C19.9031 18.6633 19.8686 18.8501 19.7985 19.0244C19.7283 19.1988 19.6239 19.3572 19.4915 19.4901C19.359 19.623 19.2013 19.7278 19.0277 19.7982C18.8541 19.8685 18.6682 19.9031 18.481 19.8998C18.2938 19.8965 18.1092 19.8553 17.9382 19.7789C17.7672 19.7024 17.6132 19.5921 17.4856 19.4545L17.4856 19.4545L17.4831 19.452L10.0708 12.012L10 11.9409L9.92916 12.012L2.51689 19.452L2.51685 19.452L2.51445 19.4545C2.38677 19.5921 2.23282 19.7024 2.0618 19.7789C1.89078 19.8553 1.70617 19.8965 1.519 19.8998C1.33183 19.9031 1.14589 19.8685 0.972295 19.7982C0.798696 19.7278 0.640973 19.623 0.508544 19.4901C0.376115 19.3572 0.271696 19.1988 0.201534 19.0244C0.131372 18.8501 0.0969119 18.6633 0.100217 18.4753C0.103522 18.2873 0.144525 18.1018 0.220769 17.9301C0.297013 17.7583 0.406931 17.6038 0.543944 17.4756L0.543987 17.4757L0.546479 17.4732L7.95875 10.0332Z" fill="#284159" stroke="white" stroke-width="0.2"/>
</svg>
