<svg width="33" height="32" viewBox="0 0 33 32" fill="none" xmlns="http://www.w3.org/2000/svg">
<g id="ic:sharp-tiktok">
<path id="Vector" d="M22.6333 7.76C21.7221 6.71937 21.2198 5.3832 21.22 4H17.1V20.5333C17.0688 21.4283 16.6913 22.2761 16.047 22.898C15.4028 23.5199 14.5421 23.8672 13.6466 23.8667C11.7533 23.8667 10.18 22.32 10.18 20.4C10.18 18.1067 12.3933 16.3867 14.6733 17.0933V12.88C10.0733 12.2667 6.04663 15.84 6.04663 20.4C6.04663 24.84 9.72663 28 13.6333 28C17.82 28 21.22 24.6 21.22 20.4V12.0133C22.8906 13.2131 24.8965 13.8569 26.9533 13.8533V9.73333C26.9533 9.73333 24.4466 9.85333 22.6333 7.76Z" fill="#284159"/>
</g>
</svg>
