<svg width="33" height="32" viewBox="0 0 33 32" fill="none" xmlns="http://www.w3.org/2000/svg">
<g id="ic:baseline-telegram">
<path id="Vector" d="M16.5001 2.6665C9.14008 2.6665 3.16675 8.63984 3.16675 15.9998C3.16675 23.3598 9.14008 29.3332 16.5001 29.3332C23.8601 29.3332 29.8334 23.3598 29.8334 15.9998C29.8334 8.63984 23.8601 2.6665 16.5001 2.6665ZM22.6867 11.7332C22.4867 13.8398 21.6201 18.9598 21.1801 21.3198C20.9934 22.3198 20.6201 22.6532 20.2734 22.6932C19.5001 22.7598 18.9134 22.1865 18.1667 21.6932C16.9934 20.9198 16.3267 20.4398 15.1934 19.6932C13.8734 18.8265 14.7267 18.3465 15.4867 17.5732C15.6867 17.3732 19.1001 14.2665 19.1667 13.9865C19.176 13.9441 19.1748 13.9001 19.1632 13.8582C19.1515 13.8164 19.1299 13.7781 19.1001 13.7465C19.0201 13.6798 18.9134 13.7065 18.8201 13.7198C18.7001 13.7465 16.8334 14.9865 13.1934 17.4398C12.6601 17.7998 12.1801 17.9865 11.7534 17.9732C11.2734 17.9598 10.3667 17.7065 9.68675 17.4798C8.84675 17.2132 8.19341 17.0665 8.24675 16.5998C8.27341 16.3598 8.60675 16.1198 9.23341 15.8665C13.1267 14.1732 15.7134 13.0532 17.0067 12.5198C20.7134 10.9732 21.4734 10.7065 21.9801 10.7065C22.0867 10.7065 22.3401 10.7332 22.5001 10.8665C22.6334 10.9732 22.6734 11.1198 22.6867 11.2265C22.6734 11.3065 22.7001 11.5465 22.6867 11.7332Z" fill="#284159"/>
</g>
</svg>
