<svg width="1440" height="1012" viewBox="0 0 1440 1012" fill="none" xmlns="http://www.w3.org/2000/svg">
<path d="M1440 40.6957C1440 40.6957 1101 132.261 720 40.6957C339 -50.8696 0 40.6957 0 40.6957V90H1440V40.6957Z" fill="#F2F7EB"/>
<path d="M0 971.304C0 971.304 339 879.739 720 971.304C1101 1062.87 1440 971.304 1440 971.304V922H0V971.304Z" fill="#F2F7EB"/>
<rect y="90" width="1440" height="832" fill="#F2F7EB"/>
<path d="M1440 768.696C1440 768.696 1101 860.261 720 768.696C339 677.13 0 768.696 0 768.696V818H1440V768.696Z" fill="#E0ECCF"/>
<path d="M0 897.304C0 897.304 339 805.739 720 897.304C1101 988.87 1440 897.304 1440 897.304V848H0V897.304Z" fill="#E0ECCF"/>
<rect y="818" width="1440" height="30" fill="#E0ECCF"/>
<g clip-path="url(#clip0_49_961)">
<path d="M1253.81 111.636C1254.01 111.915 1254.14 112.231 1254.22 112.564C1254.29 112.897 1254.3 113.241 1254.24 113.577C1254.18 113.913 1254.05 114.234 1253.87 114.522C1253.69 114.809 1253.45 115.058 1253.17 115.254C1239.74 124.665 1230.6 135.014 1224.32 148.123C1229.01 151.045 1234.56 152.374 1240.35 151.9C1248.02 151.27 1255.36 147.608 1261.56 141.312C1267.09 135.692 1269.53 129.431 1271.88 123.373C1274.86 115.731 1277.67 108.512 1286.69 102.945C1287.69 102.324 1288.25 101.312 1288.2 100.22C1288.13 98.9715 1287.36 97.984 1285.9 97.2828C1282.47 95.6407 1272.24 94.1055 1261.04 94.3843C1243.05 94.83 1233.04 99.4368 1227.8 103.224C1221.05 108.117 1216.36 115.37 1214.73 123.208C1214.42 124.685 1214.22 126.183 1214.14 127.69C1213.76 134.529 1215.94 140.74 1220.13 144.858C1226.78 131.403 1236.32 120.714 1250.2 110.99C1250.48 110.794 1250.79 110.656 1251.12 110.582C1251.46 110.509 1251.8 110.501 1252.14 110.561C1252.47 110.621 1252.79 110.747 1253.08 110.931C1253.37 111.116 1253.62 111.355 1253.81 111.636ZM1221.15 155.589C1222.11 153 1223.17 150.516 1224.32 148.123C1223.01 147.31 1221.78 146.381 1220.64 145.346C1220.47 145.189 1220.3 145.026 1220.13 144.86C1218.7 147.763 1217.42 150.737 1216.29 153.772C1216.16 154.093 1216.1 154.436 1216.11 154.782C1216.11 155.128 1216.19 155.469 1216.33 155.785C1216.47 156.101 1216.67 156.386 1216.92 156.623C1217.17 156.86 1217.47 157.045 1217.79 157.166C1218.11 157.287 1218.46 157.342 1218.8 157.328C1219.15 157.314 1219.49 157.232 1219.8 157.085C1220.11 156.938 1220.39 156.731 1220.62 156.474C1220.85 156.217 1221.03 155.917 1221.15 155.591L1221.15 155.589Z" fill="#E0ECCF"/>
</g>
<path d="M199.679 122.516C200.14 122.026 200.694 121.631 201.308 121.355C201.921 121.079 202.584 120.926 203.256 120.906C203.929 120.886 204.6 120.998 205.229 121.237C205.858 121.476 206.434 121.836 206.924 122.298C230.509 144.515 254.174 158.032 282.022 164.922C285.779 154.672 286.112 143.391 282.867 132.385C278.562 117.782 268.536 105.059 253.882 95.5935C240.801 87.1437 227.725 84.9432 215.076 82.8163C199.118 80.1321 184.044 77.5952 169.659 62.3643C168.058 60.6795 165.876 60.0036 163.791 60.5514C161.408 61.192 159.81 63.0754 159.044 66.1889C157.25 73.476 158.403 93.8991 163.448 115.459C171.549 150.098 184.477 167.625 193.897 176.232C206.069 187.344 221.963 193.497 237.758 193.497C240.735 193.502 243.708 193.283 246.653 192.844C260.013 190.819 271.134 184.109 277.403 174.346C248.738 166.889 224.25 152.708 199.887 129.771C199.396 129.309 199.001 128.754 198.725 128.139C198.449 127.524 198.297 126.861 198.277 126.187C198.258 125.513 198.372 124.841 198.612 124.212C198.853 123.582 199.215 123.005 199.679 122.516ZM297.72 168.061C292.329 167.231 287.108 166.19 282.025 164.932C280.98 167.785 279.679 170.538 278.139 173.157C277.906 173.558 277.659 173.955 277.406 174.346C283.589 175.946 289.849 177.229 296.163 178.189C296.835 178.307 297.524 178.29 298.189 178.139C298.854 177.987 299.482 177.704 300.037 177.307C300.591 176.909 301.061 176.405 301.418 175.824C301.775 175.243 302.012 174.596 302.116 173.922C302.22 173.248 302.188 172.559 302.022 171.898C301.857 171.236 301.561 170.614 301.152 170.068C300.742 169.522 300.229 169.064 299.64 168.719C299.051 168.374 298.4 168.151 297.723 168.061H297.72Z" fill="#E0ECCF"/>
<defs>
<clipPath id="clip0_49_961">
<rect width="84" height="84" fill="white" transform="matrix(-1 0 0.000591762 -1 1290.95 169)"/>
</clipPath>
</defs>
</svg>
