<svg width="33" height="32" viewBox="0 0 33 32" fill="none" xmlns="http://www.w3.org/2000/svg">
<g id="mdi:instagram">
<path id="Vector" d="M10.9001 2.6665H22.1001C26.3667 2.6665 29.8334 6.13317 29.8334 10.3998V21.5998C29.8334 23.6508 29.0187 25.6178 27.5684 27.0681C26.1181 28.5184 24.1511 29.3332 22.1001 29.3332H10.9001C6.63341 29.3332 3.16675 25.8665 3.16675 21.5998V10.3998C3.16675 8.34883 3.98151 6.38183 5.43179 4.93154C6.88207 3.48126 8.84907 2.6665 10.9001 2.6665ZM10.6334 5.33317C9.36037 5.33317 8.13948 5.83888 7.2393 6.73906C6.33913 7.63923 5.83341 8.86013 5.83341 10.1332V21.8665C5.83341 24.5198 7.98008 26.6665 10.6334 26.6665H22.3667C23.6398 26.6665 24.8607 26.1608 25.7609 25.2606C26.661 24.3604 27.1667 23.1395 27.1667 21.8665V10.1332C27.1667 7.47984 25.0201 5.33317 22.3667 5.33317H10.6334ZM23.5001 7.33317C23.9421 7.33317 24.366 7.50877 24.6786 7.82133C24.9912 8.13389 25.1667 8.55781 25.1667 8.99984C25.1667 9.44186 24.9912 9.86579 24.6786 10.1783C24.366 10.4909 23.9421 10.6665 23.5001 10.6665C23.0581 10.6665 22.6341 10.4909 22.3216 10.1783C22.009 9.86579 21.8334 9.44186 21.8334 8.99984C21.8334 8.55781 22.009 8.13389 22.3216 7.82133C22.6341 7.50877 23.0581 7.33317 23.5001 7.33317ZM16.5001 9.33317C18.2682 9.33317 19.9639 10.0355 21.2141 11.2858C22.4644 12.536 23.1667 14.2317 23.1667 15.9998C23.1667 17.7679 22.4644 19.4636 21.2141 20.7139C19.9639 21.9641 18.2682 22.6665 16.5001 22.6665C14.732 22.6665 13.0363 21.9641 11.786 20.7139C10.5358 19.4636 9.83341 17.7679 9.83341 15.9998C9.83341 14.2317 10.5358 12.536 11.786 11.2858C13.0363 10.0355 14.732 9.33317 16.5001 9.33317ZM16.5001 11.9998C15.4392 11.9998 14.4218 12.4213 13.6717 13.1714C12.9215 13.9216 12.5001 14.939 12.5001 15.9998C12.5001 17.0607 12.9215 18.0781 13.6717 18.8283C14.4218 19.5784 15.4392 19.9998 16.5001 19.9998C17.5609 19.9998 18.5784 19.5784 19.3285 18.8283C20.0787 18.0781 20.5001 17.0607 20.5001 15.9998C20.5001 14.939 20.0787 13.9216 19.3285 13.1714C18.5784 12.4213 17.5609 11.9998 16.5001 11.9998Z" fill="#284159"/>
</g>
</svg>
