<svg width="32" height="32" viewBox="0 0 32 32" fill="none" xmlns="http://www.w3.org/2000/svg">
<g id="Icon.mail">
<g id="Group">
<path id="Vector" d="M4.72841 26.1242H4.72834C3.85468 26.1233 3.1385 25.8606 2.64042 25.3674C2.14219 24.8741 1.87633 24.1642 1.87632 23.2968L4.72841 26.1242ZM4.72841 26.1242C7.2719 26.1254 9.81542 26.125 12.3589 26.1246C13.6306 26.1244 14.9023 26.1242 16.174 26.1242C17.1373 26.1242 18.1006 26.1243 19.0639 26.1244C21.9529 26.1248 24.8423 26.1251 27.7327 26.1224C28.5729 26.1215 29.275 25.8537 29.7677 25.3673C30.2606 24.8807 30.5326 24.1866 30.5335 23.3552V23.3552C30.537 18.4537 30.537 13.5504 30.5335 8.64713V8.64708M4.72841 26.1242L30.5335 8.64708M1.87632 8.6984L1.87632 8.69831C1.87724 7.84381 2.14375 7.13557 2.63453 6.64058C3.12544 6.14546 3.82824 5.87632 4.67722 5.87632M1.87632 8.6984L4.67722 5.87632M1.87632 8.6984C1.87456 13.5645 1.87456 18.4307 1.87632 23.2968L1.87632 8.6984ZM4.67722 5.87632L4.67725 6.00132L27.7361 5.87632C20.0492 5.87456 12.3641 5.87456 4.67722 5.87632ZM30.5335 8.64708C30.5326 7.81487 30.2607 7.11952 29.7683 6.63203M30.5335 8.64708L29.7683 6.63203M20.197 17.596L20.1968 17.5962C20.168 17.6256 20.1391 17.655 20.1103 17.6845C19.7913 18.0102 19.4686 18.3397 19.1308 18.6515L19.1307 18.6515C17.4702 20.1829 14.9467 20.1827 13.2811 18.6535L13.2811 18.6534C12.9567 18.3556 12.6228 18.0469 12.331 17.7066M20.197 17.596L5.54987 23.9151C6.29382 23.1718 7.0396 22.4298 7.78545 21.6878C9.11766 20.3624 10.4501 19.0368 11.7728 17.7028C11.9219 17.5528 12.0074 17.5138 12.0655 17.5144C12.1207 17.5151 12.199 17.5529 12.331 17.7066M20.197 17.596C20.2715 17.5196 20.3158 17.4899 20.3473 17.4833C20.362 17.4803 20.3988 17.4763 20.4759 17.554L20.197 17.596ZM12.331 17.7066L12.4259 17.6253L12.3311 17.7067C12.3311 17.7067 12.3311 17.7066 12.331 17.7066ZM29.7683 6.63203C29.276 6.14467 28.5747 5.87633 27.7361 5.87632L29.7683 6.63203ZM14.291 16.7966L14.291 16.7965C11.4014 13.9229 8.51354 11.0456 5.62745 8.16835C5.54539 8.08629 5.46775 8.00212 5.36544 7.89084H5.38576H5.42943H5.4731H5.51677H5.56043H5.60409H5.64775H5.69141H5.73506H5.77872H5.82236H5.86601H5.90965H5.95329H5.99693H6.04056H6.0842H6.12783H6.17145H6.21508H6.2587H6.30231H6.34593H6.38954H6.43315H6.47676H6.52037H6.56397H6.60757H6.65116H6.69476H6.73835H6.78194H6.82553H6.86911H6.91269H6.95627H6.99984H7.04342H7.08699H7.13056H7.17412H7.21769H7.26125H7.3048H7.34836H7.39191H7.43546H7.47901H7.52255H7.5661H7.60964H7.65317H7.69671H7.74024H7.78377H7.8273H7.87082H7.91435H7.95787H8.00138H8.0449H8.08841H8.13192H8.17543H8.21894H8.26244H8.30594H8.34944H8.39293H8.43643H8.47992H8.52341H8.56689H8.61038H8.65386H8.69734H8.74081H8.78429H8.82776H8.87123H8.9147H8.95816H9.00162H9.04508H9.08854H9.132H9.17545H9.2189H9.26235H9.3058H9.34924H9.39268H9.43612H9.47956H9.523H9.56643H9.60986H9.65329H9.69671H9.74014H9.78356H9.82698H9.8704H9.91381H9.95723H10.0006H10.044H10.0875H10.1309H10.1743H10.2177H10.2611H10.3045H10.3478H10.3912H10.4346H10.478H10.5214H10.5648H10.6082H10.6515H10.6949H10.7383H10.7817H10.825H10.8684H10.9118H10.9551H10.9985H11.0419H11.0852H11.1286H11.1719H11.2153H11.2586H11.302H11.3453H11.3887H11.432H11.4754H11.5187H11.562H11.6054H11.6487H11.692H11.7354H11.7787H11.822H11.8653H11.9087H11.952H11.9953H12.0386H12.0819H12.1252H12.1685H12.2118H12.2552H12.2985H12.3418H12.3851H12.4284H12.4717H12.515H12.5582H12.6015H12.6448H12.6881H12.7314H12.7747H12.818H12.8612H12.9045H12.9478H12.9911H13.0344H13.0776H13.1209H13.1642H13.2074H13.2507H13.294H13.3372H13.3805H13.4237H13.467H13.5102H13.5535H13.5968H13.64H13.6833H13.7265H13.7697H13.813H13.8562H13.8995H13.9427H13.9859H14.0292H14.0724H14.1156H14.1589H14.2021H14.2453H14.2886H14.3318H14.375H14.4182H14.4614H14.5047H14.5479H14.5911H14.6343H14.6775H14.7207H14.7639H14.8071H14.8503H14.8935H14.9368H14.98H15.0232H15.0664H15.1095H15.1527H15.1959H15.2391H15.2823H15.3255H15.3687H15.4119H15.4551H15.4983H15.5414H15.5846H15.6278H15.671H15.7142H15.7573H15.8005H15.8437H15.8869H15.93H15.9732H16.0164H16.0595H16.1027H16.1459H16.189H16.2322H16.2753H16.3185H16.3617H16.4048H16.448H16.4911H16.5343H16.5774H16.6206H16.6637H16.7069H16.75H16.7932H16.8363H16.8794H16.9226H16.9657H17.0089H17.052H17.0951H17.1383H17.1814H17.2245H17.2677H17.3108H17.3539H17.3971H17.4402H17.4833H17.5264H17.5696H17.6127H17.6558H17.6989H17.7421H17.7852H17.8283H17.8714H17.9145H17.9576H18.0007H18.0439H18.087H18.1301H18.1732H18.2163H18.2594H18.3025H18.3456H18.3887H18.4318H18.4749H18.518H18.5611H18.6042H18.6473H18.6904H18.7335H18.7766H18.8197H18.8628H18.9059H18.949H18.9921H19.0352H19.0783H19.1214H19.1644H19.2075H19.2506H19.2937H19.3368H19.3799H19.423H19.466H19.5091H19.5522H19.5953H19.6384H19.6814H19.7245H19.7676H19.8107H19.8537H19.8968H19.9399H19.983H20.026H20.0691H20.1122H20.1552H20.1983H20.2414H20.2844H20.3275H20.3706H20.4136H20.4567H20.4998H20.5428H20.5859H20.629H20.672H20.7151H20.7581H20.8012H20.8442H20.8873H20.9304H20.9734H21.0165H21.0595H21.1026H21.1456H21.1887H21.2317H21.2748H21.3179H21.3609H21.404H21.447H21.4901H21.5331H21.5761H21.6192H21.7053H21.7914H21.8344H21.8775H21.9205H21.9636H22.0066H22.0497H22.0927H22.1357H22.1788H22.2218H22.2649H22.3079H22.3509H22.394H22.437H22.4801H22.5231H22.5661H22.6092H22.6522H22.6952H22.7383H22.7813H22.8244H22.8674H22.9104H22.9535H22.9965H23.0395H23.0826H23.1256H23.1686H23.2117H23.2547H23.2977H23.3408H23.3838H23.4268H23.4699H23.5129H23.5559H23.5989H23.642H23.685H23.728H23.7711H23.8141H23.8571H23.9002H23.9432H23.9862H24.0292H24.0723H24.1153H24.1583H24.2014H24.2444H24.2874H24.3304H24.3735H24.4165H24.4595H24.5025H24.5456H24.5886H24.6316H24.6747H24.7177H24.7607H24.8037H24.8468H24.8898H24.9328H24.9758H25.0189H25.0619H25.1049H25.1479H25.191H25.234H25.277H25.32H25.3631H25.4061H25.4491H25.4921H25.5352H25.5782H25.6212H25.6643H25.7073H25.7503H25.7933H25.8364H25.8794H25.9224H25.9654H26.0085H26.0515H26.0945H26.1375H26.1806H26.2236H26.2666H26.3097H26.3527H26.3957H26.4387H26.4818H26.5248H26.5678H26.6109H26.6539H26.6969H26.7399H26.783H26.826H26.869H26.9121H26.9551H26.9981H27.0412H27.0543C27.0387 7.91994 27.0183 7.94599 26.9943 7.97126C26.9654 8.00172 26.9323 8.02995 26.8941 8.06172L26.8845 8.06971C26.8504 8.09802 26.8117 8.13016 26.777 8.16492C23.8945 11.0456 21.0067 13.9211 18.1171 16.7966C17.464 17.4461 16.8267 17.755 16.204 17.755C15.5814 17.755 14.944 17.4461 14.291 16.7966ZM10.295 15.6781L10.2952 15.6783C10.459 15.8378 10.5057 15.9319 10.506 16.0027C10.5062 16.0732 10.4604 16.1675 10.2968 16.3277C8.83291 17.7568 7.38018 19.1974 5.92754 20.638C5.31344 21.247 4.69937 21.856 4.08447 22.464C4.03115 22.5164 3.97598 22.5639 3.90851 22.6207V22.6204V22.5934V22.5664V22.5394V22.5124V22.4854V22.4584V22.4314V22.4044V22.3774V22.3505V22.3235V22.2965V22.2695V22.2425V22.2155V22.1886V22.1616V22.1346V22.1076V22.0807V22.0537V22.0267V21.9997V21.9728V21.9458V21.9188V21.8919V21.8649V21.838V21.811V21.784V21.7571V21.7301V21.7032V21.6762V21.6493V21.6223V21.5954V21.5684V21.5415V21.5146V21.4876V21.4607V21.4337V21.4068V21.3799V21.3529V21.326V21.2991V21.2721V21.2452V21.2183V21.1913V21.1644V21.1375V21.1106V21.0837V21.0567V21.0298V21.0029V20.976V20.9491V20.9221V20.8952V20.8683V20.8414V20.8145V20.7876V20.7607V20.7338V20.7069V20.68V20.6531V20.6262V20.5993V20.5724V20.5455V20.5186V20.4917V20.4648V20.4379V20.411V20.3841V20.3572V20.3303V20.3034V20.2765V20.2496V20.2228V20.1959V20.169V20.1421V20.1152V20.0883V20.0615V20.0346V20.0077V19.9808V19.9539V19.9271V19.9002V19.8733V19.8464V19.8196V19.7927V19.7658V19.7389V19.7121V19.6852V19.6583V19.6315V19.6046V19.5777V19.5509V19.524V19.4971V19.4703V19.4434V19.4166V19.3897V19.3628V19.336V19.3091V19.2823V19.2554V19.2286V19.2017V19.1748V19.148V19.1211V19.0943V19.0674V19.0406V19.0137V18.9869V18.96V18.9332V18.9063V18.8795V18.8526V18.8258V18.7989V18.7721V18.7452V18.7184V18.6916V18.6647V18.6379V18.611V18.5842V18.5573V18.5305V18.5037V18.4768V18.45V18.4231V18.3963V18.3695V18.3426V18.3158V18.2889V18.2621V18.2353V18.2084V18.1816V18.1547V18.1279V18.1011V18.0742V18.0474V18.0206V17.9937V17.9669V17.9401V17.9132V17.8864V17.8596V17.8327V17.8059V17.7791V17.7522V17.7254V17.6986V17.6717V17.6449V17.6181V17.5913V17.5644V17.5376V17.5108V17.4839V17.4571V17.4303V17.4034V17.3766V17.3498V17.3229V17.2961V17.2693V17.2425V17.2156V17.1888V17.162V17.1351V17.1083V17.0815V17.0547V17.0278V17.001V16.9742V16.9473V16.9205V16.8937V16.8668V16.84V16.8132V16.7864V16.7595V16.7327V16.7059V16.679V16.6522V16.6254V16.5985V16.5717V16.5449V16.5181V16.4912V16.4644V16.4376V16.4107V16.3839V16.3571V16.3302V16.3034V16.2766V16.2497V16.2229V16.1961V16.1692V16.1424V16.1156V16.0887V16.0619V16.0351V16.0082V15.9814V15.9545V15.9277V15.9009V15.874V15.8472V15.8204V15.7935V15.7667V15.7398V15.713V15.6862V15.6593V15.6325V15.6056V15.5788V15.552V15.5251V15.4983V15.4714V15.4446V15.4177V15.3909V15.364V15.3372V15.3104V15.2835V15.2567V15.2298V15.203V15.1761V15.1493V15.1224V15.0956V15.0687V15.0419V15.015V14.9881V14.9613V14.9344V14.9076V14.8807V14.8539V14.827V14.8002V14.7733V14.7464V14.7196V14.6927V14.6659V14.639V14.6121V14.5853V14.5584V14.5315V14.5047V14.4778V14.4509V14.4241V14.3972V14.3703V14.3434V14.3166V14.2897V14.2628V14.236V14.2091V14.1822V14.1553V14.1284V14.1016V14.0747V14.0478V14.0209V13.994V13.9672V13.9403V13.9134V13.8865V13.8596V13.8327V13.8058V13.7789V13.7521V13.7252V13.6983V13.6714V13.6445V13.6176V13.5907V13.5638V13.5369V13.51V13.4831V13.4562V13.4293V13.4024V13.3755V13.3486V13.3217V13.2947V13.2678V13.2409V13.214V13.1871V13.1602V13.1333V13.1063V13.0794V13.0525V13.0256V12.9987V12.9717V12.9448V12.9179V12.891V12.864V12.8371V12.8102V12.7832V12.7563V12.7294V12.7024V12.6755V12.6485V12.6216V12.5947V12.5677V12.5408V12.5138V12.4869V12.4599V12.433V12.406V12.3791V12.3521V12.3252V12.2982V12.2712V12.2443V12.2173V12.1904V12.1634V12.1364V12.1095V12.0825V12.0555V12.0285V12.0016V11.9746V11.9476V11.9206V11.8937V11.8667V11.8397V11.8127V11.7857V11.7587V11.7317V11.7047V11.6777V11.6508V11.6238V11.5968V11.5698V11.5428V11.5158V11.4887V11.4617V11.4347V11.4077V11.3807V11.3537V11.3267V11.2997V11.2726V11.2456V11.2186V11.1916V11.1645V11.1375V11.1105V11.0835V11.0564V11.0294V11.0024V10.9753V10.9483V10.9212V10.8942V10.8671V10.8401V10.813V10.786V10.7589V10.7319V10.7048V10.6778V10.6507V10.6236V10.5966V10.5695V10.5424V10.5154V10.4883V10.4612V10.4341V10.4071V10.38V10.3529V10.3258V10.2987V10.2716V10.2445V10.2174V10.1903V10.1632V10.1361V10.109V10.0819V10.0548V10.0277V10.0006V9.9735V9.94638V9.91927V9.89215V9.86502V9.8379V9.81077V9.78364V9.75651V9.72938V9.70225V9.67511V9.64797V9.62083V9.59368V9.56654V9.53939V9.51224V9.48508V9.45793V9.43077V9.40361V9.37737C3.97614 9.43543 4.03086 9.48374 4.08294 9.53673L4.08293 9.53674L4.08412 9.53792C4.61768 10.0665 5.15083 10.5955 5.68401 11.1247C7.2173 12.6462 8.75084 14.1681 10.295 15.6781ZM28.5182 9.34898L28.5186 9.34851C28.5188 9.3484 28.5189 9.34829 28.519 9.34818V9.37208V9.39903V9.42599V9.45294V9.47989V9.50683V9.53378V9.56072V9.58766V9.61461V9.64154V9.66848V9.69542V9.72235V9.74928V9.77621V9.80314V9.83007V9.85699V9.88392V9.91084V9.93776V9.96468V9.9916V10.0185V10.0454V10.0723V10.0993V10.1262V10.1531V10.18V10.2069V10.2338V10.2607V10.2876V10.3145V10.3414V10.3683V10.3952V10.4221V10.4489V10.4758V10.5027V10.5296V10.5565V10.5834V10.6103V10.6371V10.664V10.6909V10.7178V10.7446V10.7715V10.7984V10.8252V10.8521V10.879V10.9058V10.9327V10.9596V10.9864V11.0133V11.0401V11.067V11.0938V11.1207V11.1475V11.1744V11.2012V11.2281V11.2549V11.2818V11.3086V11.3355V11.3623V11.3891V11.416V11.4428V11.4696V11.4965V11.5233V11.5501V11.577V11.6038V11.6306V11.6574V11.6843V11.7111V11.7379V11.7647V11.7915V11.8183V11.8452V11.872V11.8988V11.9256V11.9524V11.9792V12.006V12.0328V12.0596V12.0864V12.1132V12.14V12.1668V12.1936V12.2204V12.2472V12.274V12.3008V12.3276V12.3543V12.3811V12.4079V12.4347V12.4615V12.4883V12.515V12.5418V12.5686V12.5954V12.6221V12.6489V12.6757V12.7025V12.7292V12.756V12.7828V12.8095V12.8363V12.8631V12.8898V12.9166V12.9433V12.9701V12.9969V13.0236V13.0504V13.0771V13.1039V13.1306V13.1574V13.1841V13.2109V13.2376V13.2644V13.2911V13.3178V13.3446V13.3713V13.3981V13.4248V13.4515V13.4783V13.505V13.5317V13.5585V13.5852V13.6119V13.6387V13.6654V13.6921V13.7188V13.7456V13.7723V13.799V13.8257V13.8524V13.8792V13.9059V13.9326V13.9593V13.986V14.0127V14.0394V14.0661V14.0929V14.1196V14.1463V14.173V14.1997V14.2264V14.2531V14.2798V14.3065V14.3332V14.3599V14.3866V14.4133V14.44V14.4667V14.4934V14.52V14.5467V14.5734V14.6001V14.6268V14.6535V14.6802V14.7069V14.7335V14.7602V14.7869V14.8136V14.8403V14.8669V14.8936V14.9203V14.947V14.9736V15.0003V15.027V15.0537V15.0803V15.107V15.1337V15.1603V15.187V15.2137V15.2403V15.267V15.2937V15.3203V15.347V15.3736V15.4003V15.427V15.4536V15.4803V15.5069V15.5336V15.5602V15.5869V15.6135V15.6402V15.6668V15.6935V15.7201V15.7468V15.7734V15.8001V15.8267V15.8534V15.88V15.9067V15.9333V15.9599V15.9866V16.0132V16.0399V16.0665V16.0931V16.1198V16.1464V16.173V16.1997V16.2263V16.2529V16.2796V16.3062V16.3328V16.3594V16.3861V16.4127V16.4393V16.466V16.4926V16.5192V16.5458V16.5724V16.5991V16.6257V16.6523V16.6789V16.7055V16.7322V16.7588V16.7854V16.812V16.8386V16.8652V16.8918V16.9185V16.9451V16.9717V16.9983V17.0249V17.0515V17.0781V17.1047V17.1313V17.1579V17.1845V17.2111V17.2377V17.2643V17.2909V17.3176V17.3442V17.3708V17.3974V17.424V17.4505V17.4771V17.5037V17.5303V17.5569V17.5835V17.6101V17.6367V17.6633V17.6899V17.7165V17.7431V17.7697V17.7963V17.8229V17.8494V17.876V17.9026V17.9292V17.9558V17.9824V18.009V18.0355V18.0621V18.0887V18.1153V18.1419V18.1685V18.195V18.2216V18.2482V18.2748V18.3014V18.3279V18.3545V18.3811V18.4077V18.4342V18.4608V18.4874V18.514V18.5405V18.5671V18.5937V18.6203V18.6468V18.6734V18.7V18.7265V18.7531V18.7797V18.8063V18.8328V18.8594V18.886V18.9125V18.9391V18.9657V18.9922V19.0188V19.0454V19.0719V19.0985V19.125V19.1516V19.1782V19.2047V19.2313V19.2579V19.2844V19.311V19.3375V19.3641V19.3907V19.4172V19.4438V19.4703V19.4969V19.5234V19.55V19.5766V19.6031V19.6297V19.6562V19.6828V19.7093V19.7359V19.7624V19.789V19.8156V19.8421V19.8687V19.8952V19.9218V19.9483V19.9749V20.0014V20.028V20.0545V20.0811V20.1076V20.1342V20.1607V20.1873V20.2138V20.2404V20.2669V20.2935V20.32V20.3465V20.3731V20.3996V20.4262V20.4527V20.4793V20.5058V20.5324V20.5589V20.5855V20.612V20.6385V20.6651V20.6916V20.7182V20.7447V20.7713V20.7978V20.8243V20.8509V20.8774V20.904V20.9305V20.9571V20.9836V21.0101V21.0367V21.0632V21.0898V21.1163V21.1428V21.1694V21.1959V21.2225V21.249V21.2755V21.3021V21.3286V21.3551V21.3817V21.4082V21.4348V21.4613V21.4878V21.5144V21.5409V21.5675V21.594V21.6205V21.6471V21.6736V21.7001V21.7267V21.7532V21.7797V21.8063V21.8328V21.8594V21.8859V21.9124V21.939V21.9655V21.992V22.0186V22.0451V22.0716V22.0982V22.1247V22.1513V22.1778V22.2043V22.2309V22.2574V22.2839V22.3105V22.337V22.3635V22.3901V22.4166V22.4431V22.4697V22.4962V22.5228V22.5493V22.5758V22.6024V22.6289V22.6554V22.6674C28.5138 22.6643 28.5082 22.6603 28.5021 22.6552C28.4847 22.6408 28.4672 22.6213 28.4446 22.594C28.4416 22.5904 28.4383 22.5865 28.435 22.5824C28.4163 22.5596 28.3927 22.531 28.368 22.5067C27.3206 21.4716 26.2741 20.4357 25.2275 19.3998L25.225 19.3972L25.2225 19.3947C24.176 18.3589 23.1295 17.3229 22.0821 16.2879C22.0693 16.2751 22.0569 16.2629 22.0451 16.2511C22.0067 16.2132 21.9734 16.1802 21.944 16.1466C21.906 16.1032 21.8845 16.0695 21.8745 16.0406C21.8661 16.0159 21.8646 15.991 21.8768 15.9578C21.8904 15.9208 21.9228 15.8689 21.9932 15.7997C23.54 14.2817 25.079 12.7565 26.6178 11.2313C27.2511 10.6037 27.8844 9.97608 28.5182 9.34898Z" fill="#284159" stroke="#284159" stroke-width="0.25"/>
</g>
</g>
</svg>
