<svg width="512" height="360" viewBox="0 0 512 360" fill="none" xmlns="http://www.w3.org/2000/svg">
<path fill-rule="evenodd" clip-rule="evenodd" d="M37.3617 0.334594C36.2617 0.584594 33.1677 1.48959 30.4867 2.34659L25.6127 3.90359L75.4867 53.8576C102.918 81.3316 148.988 127.065 177.864 155.486C235.15 211.87 234.608 211.423 248.645 213.83C254.38 214.814 257.344 214.814 263.079 213.83C277.116 211.423 276.574 211.87 333.86 155.486C362.736 127.065 408.801 81.3366 436.226 53.8686L486.089 3.92559L481.226 2.04359C476.52 0.221593 469.254 0.155591 257.862 0.0205906C137.687 -0.0554094 38.4617 0.0855936 37.3617 0.334594ZM2.21273 30.3886C0.446733 34.9406 0.349733 41.6886 0.0937326 176.661C-0.174267 318.025 -0.0672677 323.338 3.17873 331.007L4.38373 333.853L81.8727 256.835L159.362 179.817L119.362 139.674C97.3617 117.596 62.4197 82.9006 41.7127 62.5736L4.06473 25.6166L2.21273 30.3886ZM429.798 102.618L352.362 179.661L429.798 256.704C486.641 313.26 507.445 333.37 508.028 332.328C508.465 331.547 509.507 328.283 510.343 325.075C511.667 319.991 511.862 301.301 511.862 179.661C511.862 58.0206 511.667 39.3306 510.343 34.2466C509.507 31.0386 508.465 27.7746 508.028 26.9936C507.445 25.9516 486.641 46.0616 429.798 102.618ZM102.757 278.501L25.3837 355.341L30.8727 357.251C36.2107 359.108 42.3987 359.161 255.862 359.161C467.759 359.161 475.548 359.096 480.736 357.289L486.11 355.418L445.236 314.475C422.755 291.956 387.823 257.304 367.608 237.471L330.853 201.41L317.097 214.786C292.925 238.288 280.757 244.117 255.862 244.117C230.519 244.117 216.476 237.065 191.381 211.735C185.891 206.194 181.114 201.661 180.765 201.661C180.415 201.661 145.312 236.239 102.757 278.501Z" fill="#284159"/>
</svg>
